<svg xmlns="http://www.w3.org/2000/svg" width="263.93" height="284.53" viewBox="0 0 263.93 284.53"><path d="M395.27,127.75a24.41,24.41,0,0,1-2.77,1.35c29,13,17.73,56.94-12.29,55.74-17.29.77-32.93-17.12-28.5-35.79a6.84,6.84,0,0,1-2.33-.32c-4,17.43,7.14,33.38,23.93,38a21.29,21.29,0,0,1-2.71,4.74l.21-.09a1.94,1.94,0,0,1,.42-.15,3.29,3.29,0,0,1,.76-.09,2,2,0,0,1,.42,0h0l.17,0,.4-.05h.11a5,5,0,0,1,.76.1l.1,0a3.57,3.57,0,0,1,.57.23c-.49-7,4.25-3.2,11.73-5C415.2,182,420.68,140.06,395.27,127.75Z" transform="translate(-181.44 -73.77)" fill="#a17301"/><path d="M444.34,331.17c-4.82.24-6.3,6.94-8.21,10.77-24.28-43.72-52.68-88.18-60.55-138.3,6.93,20.94,20.09,40.2,41,49,4.18,3.19,9.63,5.54,15,4.41,2.88-.41,3.56-4,.79-5.14-5.81-4-12.69.52-18.64-2.74-19.48-10.22-31.48-29.79-37.67-50.35a4.25,4.25,0,0,1-.9.82,1,1,0,0,1-.23.13,4.65,4.65,0,0,1-.8.33,3.46,3.46,0,0,1-1.2.13l-.44-.05c2.58,28.43,15,54.6,27.19,80.11a133.67,133.67,0,0,0-40.09,2.31c-2.57-15,4.31-66.11,10.68-83.43a3.57,3.57,0,0,1-.44-.43c-.05.05-.09.1-.15.15s-.08.19-.14.28a2.59,2.59,0,0,1-1.49,1.15,1.76,1.76,0,0,1-.64.08c-13.13,44.7-14.56,93.57-2.86,138.7,1.75,4.61,4.09,17.62,8.46,19.2,5.58-1.31,11.48-3.27,15.51-7.51,2.48-10-13.11,1.85-15.62,4.62-9.51-22.71-12.32-46.36-13.36-70.35,13.45-2.21,29.4-5.33,42-1.21,10.39,20.35,20.78,40.81,33,60.14C438.67,351.83,448.57,334.2,444.34,331.17Zm-12.8-76.86c-2,1.15-7.72.24-10.25-1.63C426.3,252,429.41,252.49,431.54,254.31Zm-45.42,95.26a20.75,20.75,0,0,1-7.16,4.31C381.27,352.29,383.47,350.55,386.12,349.57Zm52.22-6.48a20.82,20.82,0,0,1,4.8-9.28C442.67,337.85,440.3,340.36,438.34,343.09Z" transform="translate(-181.44 -73.77)" fill="#a17301"/><path d="M351.93,244.22c-4-5.75-13.87-12.22-8.06-19.84A178,178,0,0,1,366,200l-.18-.11a2.31,2.31,0,0,1-.78-.29l-.06-.05a3.14,3.14,0,0,1-1.34-.29c-11.13,11.07-26.75,23.2-23,34.26,3.74,7.07,10.63,11.75,13.73,19.3-16.91,12.34-6.66,22.95,2.43,2.56C358,251.36,353.83,247.54,351.93,244.22ZM347,265c1.11-4.19,4-6.46,6.69-8.89C352.07,259.32,350.74,262.75,347,265Z" transform="translate(-181.44 -73.77)" fill="#a17301"/><path d="M388.77,174.71c-8-1.3-11.6-19-.76-8.28,1.12,1.39,2.07,1.43,3.41.37C403.61,159.66,395,174.42,388.77,174.71Zm6.09-7-.34-.34c-6.59,4.86-5.77,1.2-11.3-2.05C386,173.29,389.72,174.92,394.86,167.7Z" transform="translate(-181.44 -73.77)" fill="#a17301"/><path d="M401.05,159.12c-2.78.26-2.1-3.93.13-3.93C403.63,154.89,403.05,159.06,401.05,159.12Z" transform="translate(-181.44 -73.77)" fill="#a17301"/><path d="M384.71,154.76c-.28-2,3.09-3.56,3.09-.66C388.27,156.41,384.44,158,384.71,154.76Z" transform="translate(-181.44 -73.77)" fill="#a17301"/><path d="M349.16,149.77c-4.38-9.28-16-37.83-15.7-40.51.92-9.42,47.53-40.3,55.77-34.85,3.35,2.21,8.16,40.91,10,52.41" transform="translate(-181.44 -73.77)" fill="#a17301"/><path d="M374.65,192.43c9.84-13.47,14.25,15.34,1.22,6.52" transform="translate(-181.44 -73.77)" fill="#a17301"/><path d="M372.88,192.35c-8.12-13.35-18.63,6-7.57,7.94a11.46,11.46,0,0,0,1.39.14,12.62,12.62,0,0,0,1.83-.06,6.82,6.82,0,0,0,3.39-1.73" transform="translate(-181.44 -73.77)" fill="#a17301"/><path d="M371.71,191.26c-4.76,1.2-2.88,9.72,2,9.18C379,200,376.93,188.85,371.71,191.26Z" transform="translate(-181.44 -73.77)" fill="#a17301"/><path d="M349.74,158.26c-62.88,15.9,121.66-70.1,52.08-23.92" transform="translate(-181.44 -73.77)" fill="#a17301"/><path d="M196.71,341.64c22.15-56.64,32.08-97.77,35.53-118.18,1.1-6.49,1.88-13,2.67-19.54a23,23,0,0,0,0-2.5,35.51,35.51,0,0,0-5.42,2.11c-7.81,3.73-15.28,7.92-21.14,14.52a8.68,8.68,0,0,0-2,9.09c1.71,5.51,5.23,9.87,8.65,14.3,2.34,3,5.19,5.61,7.43,8.72a1.73,1.73,0,0,0,.8.59c1.07.37,1,1.08.44,1.73-3,3.19-6,6.49-9.89,8.63a6,6,0,0,1-2.64.78c-2.24.1-3.3-1.53-2.3-3.53a6.18,6.18,0,0,1,1.91-2.21,18.57,18.57,0,0,1,8.92-4,3.05,3.05,0,0,0,.66-.17c.09,0,.15-.16.32-.34-1.16-1.41-2.22-2.93-3.51-4.23a74,74,0,0,1-9.34-11.84c-2.35-3.59-4.16-7.44-4.21-11.91a9.62,9.62,0,0,1,2.51-6.45c5.13-6.2,11.77-10.35,18.77-14a49.1,49.1,0,0,1,8.9-3.79c1.44-.43,1.83-1.16,1.3-2.6-10.73-1.13-19.22-6.08-24.88-15.43a29.75,29.75,0,0,1-4-21.15c2.92-16.58,17.33-27.94,34-26.45a31.37,31.37,0,0,1,28.81,30c.71,15.24-10.15,31.81-30.8,33.19-.49,1.59-.16,2.59,1.59,3.27,5.62,2.2,10.42,5.76,14.87,9.72a25.51,25.51,0,0,1,8.21,14.53c.66,3.42-.36,6.65-1.4,9.83A108.28,108.28,0,0,1,255.59,248c-.27.55-.75,1-.69,1.78a61.73,61.73,0,0,1,8.27.65c.17,0,.35,0,.52.07,1.62.43,2.73,1.8,2.5,3.07a2.94,2.94,0,0,1-3.4,2,28.89,28.89,0,0,1-4.58-.87,17,17,0,0,0-4.91-.93c-2.55,0-3-.76-1.73-3.07a135.15,135.15,0,0,0,6.49-13.78,31.5,31.5,0,0,0,2.57-9.13c.51-5.81-2.26-10.55-5.87-14.55a47.94,47.94,0,0,0-16.51-11.52,11.74,11.74,0,0,0,.27,4.83c.55,38.15,39,120.93,45.21,134.6,1.65,3.62,3,7.36,4.67,11.42,1.2-1.8,2.2-3.3,3.19-4.8a8.24,8.24,0,0,1,4.24-3.67c2.22-.75,3.53.19,3.38,2.55a8.12,8.12,0,0,1-2.14,4.82c-2.26,2.62-5.4,4.16-8,6.39A1.82,1.82,0,0,1,287,358c-.68-.44-.28-1,0-1.66s-.2-1.44-.49-2.11c-.6-4.55-4.37-11.08-5.07-12.84-3.77-.47-58.87-.49-64.71-.24m20.84-146.61a29,29,0,0,0,29.23-28.94c.08-18-14.82-29.53-29.28-29.58-14.62,0-28.92,11.51-29.28,28.4C207.84,181.73,221.93,195,237.55,194.56ZM236.63,211c-3,25.29-23.68,101-36.86,128.43,13.25-1.16,67.39-1.32,80.65,0C274.44,327.58,240.1,252.19,236.63,211Zm60.15,135c-3.29,1.74-4.27,5-6.23,7.39C293.92,352,296.57,349,296.78,346Zm-86.39-86.28c2.71-.22,6.29-2.59,8-5.13C215.32,255.65,212.56,256.89,210.39,259.73ZM263.63,253a9.61,9.61,0,0,0-5.42-.69C260.29,253,261.91,253.43,263.63,253Z" transform="translate(-181.44 -73.77)" fill="#a17301"/><path d="M199.25,341.41c-.7,1.76-4.48,8.29-5.08,12.84-.28.67-.87,1.35-.49,2.11s.71,1.22,0,1.66a1.81,1.81,0,0,1-2.13-.16c-2.58-2.23-5.71-3.77-8-6.39a8.07,8.07,0,0,1-2.15-4.82c-.15-2.36,1.16-3.3,3.39-2.55a8.22,8.22,0,0,1,4.23,3.67c1,1.5,2,3,3.19,4.8,1.66-4.06,3-7.8,4.67-11.42m3.32-1.74-10.13,14c-2-2.42-2.94-5.65-6.23-7.39C184.1,349,186.74,352,190.12,353.4Z" transform="translate(-181.44 -73.77)" fill="#a17301"/><path d="M237.92,186.46c-4.31,0-9.43-2.83-10.64-4.2a6.32,6.32,0,0,1-2-4.43c.11-2.67,2.11-3.79,4.84-2.8,2.35.85,4.24,2.57,6.6,3.44a2.62,2.62,0,0,0,2.39-.11c1.67-.86,2.95-2.23,4.48-3.26s3-2,5-1.43a2.33,2.33,0,0,1,1.88,3c-.81,4.63-5.83,9.08-10.85,9.63Zm10.31-10.59c-.77-.71-2.61.44-3.59,1.22a25.51,25.51,0,0,1-5.31,3.52,3.37,3.37,0,0,1-2.46.19c-2.44-.65-4.47-2.07-6.63-3.26-.77-.42-1.72-1.22-2.49-.36s-.47,1.76.11,2.61a7.92,7.92,0,0,0,1.6,1.77,12,12,0,0,0,3,1.54,11.71,11.71,0,0,0,13.12-2.18C246.92,179.63,249.23,176.53,248.23,175.87Z" transform="translate(-181.44 -73.77)" fill="#a17301"/><path d="M226.54,159.53c-.66.18-2.74,1.14-3.49.3-.44-.49-.07,2.48,1.37,2.7a3.22,3.22,0,0,0,3.7,3,3.1,3.1,0,0,0-1.58-6Z" transform="translate(-181.44 -73.77)" fill="#a17301"/><path d="M221.33,160.67" transform="translate(-181.44 -73.77)" fill="#a17301"/><path d="M249.07,159.53c.66.18,2.73,1.14,3.48.3.45-.49.07,2.48-1.37,2.7a3.21,3.21,0,0,1-3.7,3,3.11,3.11,0,0,1,1.59-6Z" transform="translate(-181.44 -73.77)" fill="#a17301"/><path d="M231.7,274.76c-.79,1-1.53,2.12-2.4,3.09-.51.57-1.26,1.32-2.05.58s0-1.43.44-2c.77-.93,1.66-1.77,2.49-2.65h0a17.07,17.07,0,0,1-3.78,1.63c-.61.12-1.27.16-1.55-.53s.28-1.1.78-1.34c1.17-.56,2.39-1,3.6-1.54a13.77,13.77,0,0,1-3.78-.26c-.61-.18-1.27-.41-1.21-1.19s.75-.79,1.32-.85a15.49,15.49,0,0,1,4,.41c-1-.58-2-1.12-3-1.76-.61-.41-1.41-1-.85-1.83s1.38-.31,2,0c1.18.69,2.3,1.5,3.45,2.26l.13.14.14.13h0l-.13-.14-.14-.13a14.9,14.9,0,0,1-2.56-3.73c-.23-.59-.43-1.26.26-1.66s1.13.13,1.44.59c.79,1.2,1.5,2.46,2.24,3.69,0,0,0,.08,0,0s0,0,0,0a13.89,13.89,0,0,1-.47-4.49c.09-.54.29-1.07.94-1.1s.85.51,1,1c.18.84.29,1.71.42,2.55.22-.68.4-1.4.68-2.08s.59-1.28,1.38-1.06.73,1,.59,1.62c-.29,1.24-.69,2.46-1.05,3.69l0,.05,0-.05a15.77,15.77,0,0,1,2.72-3.15c.46-.33,1-.61,1.5-.15s.24,1,0,1.44a15,15,0,0,1-3.09,3.38l-.13.13h0l.13-.14a18,18,0,0,1,4-1.77c.6-.12,1.27-.19,1.55.51s-.31,1-.79,1.35a18.72,18.72,0,0,1-4.4,1.69,13,13,0,0,1,4.63.14c.59.16,1.23.39,1.18,1.14s-.71.81-1.28.88a17.61,17.61,0,0,1-4.46-.46,14.58,14.58,0,0,1,3.73,2c.48.41,1,.89.61,1.58s-1.13.45-1.66.15c-1.25-.71-2.45-1.51-3.68-2.27l-.14-.14-.13-.14h0l.14.13.14.14a16.53,16.53,0,0,1,2.4,3.51c.26.6.53,1.3-.17,1.73s-1.23-.17-1.58-.67c-.75-1.06-1.4-2.19-2-3.11.11,1,.29,2.29.37,3.56,0,.67-.05,1.46-.88,1.57s-1-.72-1.17-1.35-.22-1.44-.33-2.25c-.25.78-.42,1.49-.7,2.15s-.6,1.28-1.39,1.06-.74-1-.6-1.62c.34-1.41.79-2.78,1.19-4.17Zm2.27-1.08a2,2,0,0,0,2-2.1,2,2,0,0,0-2.21-2.2,2,2,0,0,0-2.22,2.1C231.49,272.89,232.4,273.61,234,273.68Z" transform="translate(-181.44 -73.77)" fill="#a17301"/><polygon points="49.16 199.75 49.17 199.74 49.16 199.75 49.16 199.75" fill="#a17301"/><path d="M257.89,317.62c.57.85,1.17,1.69,1.7,2.57.29.5.5,1.16-.13,1.54s-1-.14-1.35-.59c-.58-.82-1.09-1.68-1.56-2.43.08.86.21,1.84.26,2.83,0,.58-.05,1.26-.79,1.31s-.83-.61-.95-1.14-.19-1.12-.28-1.71c-.19.58-.32,1.14-.54,1.66s-.51,1.09-1.19.88-.63-.82-.5-1.34c.26-1.11.6-2.2.91-3.3l0,0,0,0c-.7.86-1.38,1.76-2.14,2.58-.38.42-1,.79-1.51.28s-.13-1,.19-1.41c.7-.84,1.48-1.61,2.22-2.42h0c-1.07.45-2.13.94-3.23,1.33a.89.89,0,0,1-1.22-.47c-.19-.52.21-.81.57-1.06a13.34,13.34,0,0,1,3.69-1.42,9.65,9.65,0,0,1-4-.23c-.44-.14-.84-.39-.79-.91s.51-.71.95-.71c1.05,0,2.1.09,3,.13-.71-.47-1.57-1-2.38-1.58a.88.88,0,0,1-.35-1.25c.33-.49.85-.36,1.24-.14,1,.6,2,1.26,3,1.9h0c-.59-.89-1.22-1.75-1.76-2.68-.3-.52-.62-1.21.1-1.64s1.08.22,1.38.67c.61.9,1.11,1.88,1.66,2.82l0,0,0,0c-.13-1.15-.32-2.31-.38-3.47,0-.49.15-1.07.79-1.12s.83.51.93,1c.14.69.2,1.4.26,1.9.23-.59.5-1.39.84-2.15a.76.76,0,0,1,.92-.43.7.7,0,0,1,.52.86c-.2,1.1-.47,2.18-.71,3.28l-.14.27,0,0,0,0,.14-.27c.73-.79,1.42-1.61,2.18-2.37a.81.81,0,0,1,1.14-.07.78.78,0,0,1,0,1.13c-.77,1-1.59,1.89-2.39,2.82h0c1-.46,2.08-1,3.15-1.36a.92.92,0,0,1,1.3.44c.21.58-.26.91-.69,1.11-.93.46-1.91.84-2.75,1.21.94.1,2,.18,3.05.34.49.07,1,.36.9.95s-.59.72-1,.72c-1,0-2-.08-2.89-.12.73.46,1.54.92,2.29,1.46.44.31.82.79.47,1.35s-.93.36-1.36.13c-1-.52-1.9-1.11-2.84-1.68l-.14-.14-.13-.14h0l.14.13Zm-.72-2.65a1.87,1.87,0,0,0-1.87-1.8,1.68,1.68,0,0,0-1.89,1.75,1.88,1.88,0,0,0,3.76.05Z" transform="translate(-181.44 -73.77)" fill="#a17301"/><path d="M242.28,243.33c.08-.74-.59-.91-1.15-1a9.38,9.38,0,0,0-3.2-.12c1-.44,2.14-.88,3.21-1.39.41-.19.82-.55.6-1.09s-.75-.54-1.25-.45a13.58,13.58,0,0,0-3.55,1.62h0a13.29,13.29,0,0,0,2.67-2.93c.23-.4.46-.86,0-1.24a.89.89,0,0,0-1.25.16c-.69.66-1.32,1.39-1.95,2.06.21-.79.46-1.62.63-2.47.11-.54.19-1.2-.48-1.41s-1,.41-1.22.94-.35,1.07-.52,1.61c-.1-.63-.15-1.24-.29-1.84s-.25-1.14-.94-1.07-.83.71-.8,1.27c.05,1,.19,2,.3,3-.53-.85-1-1.73-1.59-2.55a1.76,1.76,0,0,0-.72-.69c-.13.7-.28,1.4-.45,2.09.53.81,1.1,1.59,1.65,2.39L230,238.92c-.11.4-.21.79-.32,1.18-.05.2-.1.39-.14.59l1,.58-1.11-.13c-.14.6-.27,1.2-.42,1.79l1.27.08c-.47.21-.95.4-1.44.61-.17.7-.35,1.39-.54,2.09.95-.34,1.87-.74,2.8-1.12-.76.85-1.54,1.68-2.26,2.56a.84.84,0,0,0-.06,1.19c.41.41.86.2,1.25-.07a13.25,13.25,0,0,0,2.45-2.84,14.39,14.39,0,0,0-1,3.76c0,.43.08.86.58,1a.78.78,0,0,0,.93-.54c.32-.75.57-1.53.79-2.12.08.53.15,1.25.31,2,.1.47.26,1,.88,1s.81-.61.8-1.12c0-1-.16-2-.23-2.93.52.78,1.1,1.68,1.73,2.54.26.35.64.68,1.13.4s.45-.81.27-1.28a12,12,0,0,0-2.12-3.18,14.42,14.42,0,0,0,3.34,2c.42.15.88.25,1.17-.23s0-.84-.33-1.15a10.23,10.23,0,0,0-2.78-1.67c1,.07,2,.17,3,.19C241.52,244.07,242.21,244,242.28,243.33Zm-9.2-4.39Zm-2.46,2.35Zm.61,3.21.05-.05h0Zm.88-4.19-.09-.09.09.09Zm2.29,4c-1.24-.06-2-.64-2-1.82a1.65,1.65,0,0,1,1.87-1.74,1.73,1.73,0,0,1,1.84,1.82A1.69,1.69,0,0,1,234.4,244.32Z" transform="translate(-181.44 -73.77)" fill="#a17301"/><path d="M249.89,298.05a10.08,10.08,0,0,1-3,2.27,1.5,1.5,0,0,1-2.12-.64,1.64,1.64,0,0,1,.49-2.36,8.75,8.75,0,0,1,3.54-1.15,12.17,12.17,0,0,1-3-2.06c-.74-.79-1-1.62-.16-2.48a1.68,1.68,0,0,1,2.57,0,10.29,10.29,0,0,1,2,2.9c.55-1.57.15-3.58,2.17-4.26a1.51,1.51,0,0,1,1.75.83c.89,1.79-.67,2.84-1.39,4.13,1.57.19,4.5-1.7,4.28,1.39-.23,3.29-3.21,1.08-4.94,1.29.35,1,.81,2.08,1.09,3.2s0,2-1.27,2.25-1.93-.43-2.18-1.62a11.17,11.17,0,0,1,.2-3.69Zm1.77-1.59a1,1,0,0,0-1-1,.88.88,0,0,0-1,1c0,.63.31,1,.95,1A1,1,0,0,0,251.66,296.46Z" transform="translate(-181.44 -73.77)" fill="#a17301"/><path d="M233.35,320.93a10.82,10.82,0,0,1,1.36,3.58c.14,1-.15,1.86-1.3,2.07a1.69,1.69,0,0,1-2.16-1.39,9.25,9.25,0,0,1,.11-3.56c-1.72.41-3.4,4.18-5,.91-1.33-2.75,2.24-2.31,3.7-3.22-1.18-1.15-3.56-1.41-3.26-3.82a1.46,1.46,0,0,1,1.52-1.2c2.08.14,2.47,2.07,3.36,3.34,1-1.34-.07-5.14,3.19-3.77,2.76,1.15,0,3.06-.55,4.59a22.55,22.55,0,0,1,2.28-.39c1.11-.09,2,.28,2.07,1.56s-.66,1.79-1.82,1.88a11.37,11.37,0,0,1-3.51-.58Zm-1.18-.15a1,1,0,0,0,1-1.08,1,1,0,0,0-2,0A1,1,0,0,0,232.17,320.78Z" transform="translate(-181.44 -73.77)" fill="#a17301"/><path d="M223.78,282.33c-.1-1.25-1-1.58-2.07-1.47a22.6,22.6,0,0,0-2.55.52,22.17,22.17,0,0,0,1.63-2.53,1.65,1.65,0,0,0-.94-2.48h0c-.5,1.83-1.16,3.6-1.8,5.39a1,1,0,0,1,.24.76,1,1,0,0,1-.84,1c-.22.65-.43,1.31-.62,2s-.35,1.32-.55,2a5.19,5.19,0,0,0,.13.64,1.69,1.69,0,0,0,2.18,1.26c1.07-.21,1.36-1,1.25-2a10.68,10.68,0,0,0-1.36-3.65,12.06,12.06,0,0,0,3.51.58C223.16,284.18,223.89,283.58,223.78,282.33Z" transform="translate(-181.44 -73.77)" fill="#a17301"/><path d="M210.75,323.55c-.22-.82-1.61-1.74-.58-2.37s1.17,1,1.78,1.62l.05.05s0,.09,0,0,0,0,0,0c0-.19,0-.37,0-.55,0-.71-.46-1.83.51-1.91s.64,1.14.86,1.79c.3-.58.22-1.45,1.17-1.7.88.76.13,1.6.11,2.39,0,0,.09,0,.11,0,.57-.48,1.14-1.79,1.8-1.08.85.93-.73,1.5-1.07,2.32l-.28.13h0l.28-.14c.86-.21,1.67-1.11,2.72-.3-.48,1.14-1.56,1.16-2.4,1.58.94.23,2.1-.3,2.76.9-.85.81-1.79.37-2.74.39.48.29.91.51,1.29.79s.83.6.51,1.12-.79.2-1.17,0-.93-.5-1.39-.76l-.13-.14h0l.14.14c.43.8,1.44,1.45.81,2.65-1.17-.25-1.35-1.3-1.92-2l0,0,0,0c0,.89.54,1.87-.35,2.67-1-.32-.74-1.16-1-1.78-.34.57-.22,1.53-1.29,1.53-.65-.95.07-1.81.12-2.7l.14-.27h0l-.13.28c-.46.48-.91,1-1.39,1.41a.58.58,0,0,1-.82,0,.56.56,0,0,1,0-.81c.48-.6,1-1.16,1.52-1.74h0c-.94.37-1.79,1.21-3,.61.28-1.25,1.42-1.15,2.12-1.64-.85-.23-2,.2-2.45-1,.78-.81,1.68-.37,2.53-.38-.54-.67-2.14-.86-1.49-1.83s1.51.38,2.3.65l.13.14h0Zm3.44,2.19a1.21,1.21,0,0,0-1.24-1.2,1.11,1.11,0,0,0-1.21,1.12,1.15,1.15,0,0,0,1.25,1.25C213.72,326.93,214.08,326.45,214.19,325.74Z" transform="translate(-181.44 -73.77)" fill="#a17301"/><path d="M273.62,322.11c-.58-1-1.15-2.07-1.69-3.12-.11-.21-.21-.42-.31-.63-.64-.43-1.26-1.08-1.75-.29s1,1.21,1.65,1.75c-.89,0-1.88-.52-2.64.35.14.7.63.8,1.11.87s1,.07,1.49.1c-.58.25-1.12.45-1.63.7-.35.17-.75.4-.57.88s.65.41,1,.29c.61-.2,1.19-.47,1.78-.71h0c-.61.73-1.6,1.23-1.55,2.51,1.33.2,1.68-.95,2.37-1.54-.09.92-.87,1.84-.07,2.79,1-.22.91-1.05,1.23-1.66.16.69,0,1.48.88,1.86a1.32,1.32,0,0,0,.56-.89A36.43,36.43,0,0,1,273.62,322.11Zm-.61.95,0-.07h0Z" transform="translate(-181.44 -73.77)" fill="#a17301"/><path d="M220.4,299h-.14c-.82-.24-2.38.28-2.27-.9s1.53-.3,2.36-.47a.09.09,0,0,0,0-.06c-.63-.5-2.13-.85-1.5-1.67.77-1,1.66.48,2.54.76h0c-.49-.83-1.52-1.5-.88-2.76,1.14.24,1.32,1.23,1.85,1.93.12-.86-.67-2.07.47-2.47.8-.28.6.89.89,1.42.35-.5.31-1.34,1.26-1.32.66.92,0,1.78-.15,2.65l0,.05,0-.05c.71-.51,1.24-2.18,2.08-1.36s-.73,1.56-1.26,2.33l-.13.13h0l.14-.13c.9-.23,1.74-1.16,2.84-.4-.34,1.15-1.38,1.1-2.11,1.57.86.2,1.9-.13,2.51.88-.73,1-1.71.4-2.6.5.64.61,1.82.7,1.68,2-1.14.3-1.81-.52-2.6-1h0c.34.85,1.4,1.46.89,2.66-1.2,0-1.3-1.1-1.9-1.69-.09.84.55,1.85-.51,2.47-.79-.35-.61-1.1-.88-1.66-.32.54-.29,1.33-1.26,1.44-.68-1,.08-2,.21-2.94h0c-1.37,1.84-1.82,2.11-2.48,1.43.07-.94.9-1.42,1.37-2.13l.28-.13h0l-.28.14c-.86.24-1.66,1.1-2.71.32.43-1.18,1.53-1.13,2.3-1.57,0,0,.07,0,0,0Zm2.93-1.58c-.68.08-1.19.41-1.23,1.14a1.11,1.11,0,0,0,1.18,1.23,1.06,1.06,0,0,0,1.23-1.09C224.55,298,224.06,297.57,223.33,297.44Z" transform="translate(-181.44 -73.77)" fill="#a17301"/><path d="M233.22,335.12c-.88.23-1.68,1.12-2.79.36.47-1.25,1.69-1.18,2.56-1.65-1-.19-2.13.33-2.89-.85.78-.9,1.71-.37,2.53-.47-.49-.62-2.14-.88-1.45-1.79s1.62.53,2.48.76c-.38-.84-1.46-1.51-.8-2.74,1,.26,1.24,1.14,1.79,1.79.08-.89-.47-1.87.56-2.45.82.44.65,1.21.83,1.86.31-.58.25-1.43,1.18-1.61.84.72.13,1.52.13,2.31.66-.41.93-1.58,2.1-1.1.1,1.18-.89,1.66-1.41,2.41h0c.9-.26,1.73-1.15,2.83-.41-.36,1.13-1.37,1.13-2.11,1.58.84.25,2-.15,2.45,1-.83.83-1.74.35-2.6.39.6.63,2.25.94,1.62,1.8-.75,1-1.7-.49-2.6-.77h0c.53.8,1.46,1.47,1,2.73-1.25-.14-1.4-1.25-2-1.9l0-.05,0,0c0,.88.58,1.89-.44,2.62-.84-.41-.72-1.16-.87-1.83-.34.59-.24,1.53-1.3,1.57-.69-.93,0-1.79.12-2.7-.39.42-.73.84-1.12,1.2s-.67.62-1.08.24-.08-.78.16-1.1.72-.83,1.08-1.24Zm2.58-.43a1.06,1.06,0,0,0,1.09-1.17,1.15,1.15,0,0,0-1.22-1.21,1.19,1.19,0,0,0-1.25,1.21C234.42,334.32,235,334.65,235.8,334.69Z" transform="translate(-181.44 -73.77)" fill="#a17301"/><path d="M251.27,277.24c.9-.32,1.72-1.18,2.9-.52-.36,1.21-1.49,1.18-2.32,1.66.92.21,2.05-.26,2.7.9-.86.84-1.82.37-2.74.39.68.61,1.91.7,1.86,2-1.17.36-1.82-.55-2.64-.91.32.86,1.51,1.48.78,2.69-1.07-.18-1.25-1.12-1.79-1.76-.09.86.44,1.81-.44,2.47-.86-.25-.71-1-.93-1.6-.4.49-.33,1.37-1.29,1.38-.64-1,0-1.92.19-2.86h0c-.68.65-1,1.79-2.39,1.67-.16-1.25.88-1.74,1.42-2.5h0c-.9.24-1.73,1.18-2.82.37.36-1.1,1.38-1.08,2.1-1.51-.8-.32-2.31.24-2.22-.95s1.46-.36,2.27-.49c-.49-.65-2.1-.84-1.43-1.82s1.49.43,2.29.63c-.31-.78-1.29-1.41-.65-2.49,1.17.16,1.31,1.21,1.88,1.86.08-.88-.52-1.88.46-2.55.8.25.65.95.89,1.48.35-.46.35-1.17,1.21-1.3.77.94,0,1.86-.12,2.77h0c.68-.59,1.17-2.23,2.11-1.43s-.67,1.49-1.15,2.24c0,.05-.09.1-.13.16Zm-2.31.29c-.69.1-1.21.43-1.22,1.17a1.16,1.16,0,0,0,1.3,1.22,1.11,1.11,0,0,0,1.17-1.19C250.21,278,249.68,277.62,249,277.53Z" transform="translate(-181.44 -73.77)" fill="#a17301"/><path d="M268.13,337.21c.57-1.51.12-3.57,2.2-4.18a1.5,1.5,0,0,1,1.77.91c.76,1.84-.82,2.87-1.58,4.2,1.44-.15,3-1.2,4.29.2a1.62,1.62,0,0,1,0,2H263a7.46,7.46,0,0,1,3.6-1.34c-1.35-1.15-3.52-1.49-3.43-3.76a1.44,1.44,0,0,1,1.49-1.31C266.78,333.92,267.16,335.85,268.13,337.21Z" transform="translate(-181.44 -73.77)" fill="#a17301"/><path d="M250.51,262.7a.59.59,0,0,1-.57.57.57.57,0,0,1-.68-.59.56.56,0,0,1,.56-.64.6.6,0,0,1,.58.28c-.16-.56-.31-1.13-.44-1.7-.05-.14-.09-.28-.14-.42-.07.28-.14.57-.22.86-.91-.8-1.49-3-2.84-1.61-1.61,1.68,1,2,1.69,2.94-1,.55-3.21.28-2.45,2.1.93,2.22,2.14-.12,3.27-.37a15.2,15.2,0,0,0,0,1.91,1.14,1.14,0,0,0,1.4,1.15c.86-.12,1-.79.87-1.49C251.17,264.7,250.82,263.71,250.51,262.7Z" transform="translate(-181.44 -73.77)" fill="#a17301"/><path d="M240.35,228.83a24.58,24.58,0,0,1-1.22-4.6c-.27.59-.24,1.53-.62,2-.59-.87-.93-2-2.26-2a.94.94,0,0,0-.92.81c-.19,1.53,1.3,1.74,2.12,2.49-1,.36-2.23.25-2.63,1.51a1,1,0,0,0,.51,1.25c1.34.58,2-.67,3-1.24.07,1.11-.51,2.33.65,3.15a1,1,0,0,0,1.28-.14c1-1.12-.06-2.13-.27-3.22A2.71,2.71,0,0,1,240.35,228.83Zm-1.45-.44c-.39,0-.68-.18-.68-.59a.61.61,0,0,1,.66-.63.59.59,0,0,1,.61.6C239.46,228.14,239.28,228.38,238.9,228.39Z" transform="translate(-181.44 -73.77)" fill="#a17301"/><path d="M235,291.71a19.07,19.07,0,0,1-1.64,1.24c-.63.38-1.3.44-1.7-.35a1.17,1.17,0,0,1,.66-1.75,15.26,15.26,0,0,1,1.84-.61c-.81-.72-2.25-.94-2.14-2.43a1,1,0,0,1,.9-.84c1.32-.07,1.65,1.11,2.28,1.92.68-.85.15-3.26,2.21-2.21,1.59.8,0,2-.36,2.93,1,.05,2.63-1,2.65.82,0,2.15-1.87,1.05-3.06,1.15.2.65.45,1.28.6,1.93s0,1.37-.86,1.52A1.14,1.14,0,0,1,235,293.9a17.82,17.82,0,0,1,0-2.19Zm1.2-1.25a.64.64,0,0,0-1.26.09.56.56,0,0,0,.68.58C236,291.1,236.18,290.87,236.21,290.46Z" transform="translate(-181.44 -73.77)" fill="#a17301"/><path d="M237.86,306.94c-.89.54-1.54,1.67-2.82,1.18a1,1,0,0,1-.59-1.15c.31-1.39,1.64-1.26,2.67-1.64-.83-.78-2.3-1-2.18-2.47a.94.94,0,0,1,.89-.85c1.41-.05,1.72,1.22,2.37,2.12.37-1,.14-2.24,1.41-2.64a1,1,0,0,1,1.14.5c.66,1.1-.33,1.81-.73,2.69.89-.05,1.85-.62,2.54.26s-.2,2-1.45,1.89c-.5-.05-1-.15-1.49-.23-.07,1.21,1.94,3.08-.46,3.41C237.21,310.27,238.12,308.11,237.86,306.94Zm.66-2c-.37,0-.64.2-.65.58a.59.59,0,0,0,.63.66.58.58,0,0,0,.61-.62C239.12,305.22,238.89,305,238.52,305Z" transform="translate(-181.44 -73.77)" fill="#a17301"/><path d="M256.86,330.56c1,.1,2.68-.89,2.62.92-.07,2.14-1.94.95-3.08,1.07-.06,1.18,1.93,3.06-.43,3.4-2,.28-1.05-1.92-1.31-3.08-.87.53-1.55,1.73-2.87,1.17a1,1,0,0,1-.53-1.18c.36-1.34,1.67-1.21,2.69-1.59-.83-.75-2.28-1-2.18-2.45a1,1,0,0,1,.94-.87c1.3,0,1.65,1.14,2.24,2,.64-.87.11-3.12,2.06-2.33C258.78,328.32,257.22,329.57,256.86,330.56Zm-2.22,1c.1.38.29.68.74.62a.58.58,0,0,0,.57-.64.87.87,0,0,0-.47-.57C255,330.79,254.78,331.11,254.64,331.54Z" transform="translate(-181.44 -73.77)" fill="#a17301"/><path d="M215.46,311.92c.36-1,.15-2.19,1.37-2.58a1,1,0,0,1,1.19.51c.61,1.08-.31,1.78-.74,2.62,1,.15,2.73-.9,2.65.94-.09,2.11-2,.9-3.12,1.07.2,1.09,1.37,2.19.23,3.28-.87.83-1.94-.1-1.92-1.65,0-.47,0-.94.07-1.45-.93.61-1.61,1.85-2.91,1.27-1.1-.49-.68-1.91.68-2.38.45-.16.92-.26,1.42-.39-.84-.75-2.26-1-2.15-2.43a1,1,0,0,1,1-.86C214.48,309.87,214.82,311,215.46,311.92Zm1,1.37c-.53-.68-1-.62-1.37.08.07.43.27.71.66.71S216.39,313.79,216.46,313.29Z" transform="translate(-181.44 -73.77)" fill="#a17301"/><path d="M240.52,259.47c.15.49.74.9.35,1.54-.73,0-.84-.62-1.18-1l0,0,0,0c0,.51.24,1.1-.42,1.55l-.55-.63-.6.48c-.67-.48-.19-1-.22-1.54h0c-.41.29-.64.93-1.32.73-.27-.58.24-.86.43-1.27-.45,0-.89.41-1.31-.06,0-.71.7-.66,1.07-1-.47-.18-1.1,0-1.33-.67.34-.56.89-.32,1.36-.37l0,0h-.05c-.26-.36-.89-.46-.79-1.09.46-.44.84,0,1.28.13-.06-.44-.56-.82-.13-1.28.6-.15.7.47,1.06.72.17-.41-.12-1,.41-1.21.42,0,.44.36.63.57l.65-.52c.65.51.2,1.07.21,1.57h0c.41-.28.63-1,1.33-.69.18.59-.27.87-.5,1.24h0c.46,0,.94-.48,1.38.06-.08.63-.66.64-1.08.93.47.18,1.09,0,1.32.61-.3.64-.88.33-1.37.4.3.4,1,.49.81,1.19-.63.32-1-.22-1.47-.43ZM239,257.29c-.43,0-.74.26-.74.71a.7.7,0,0,0,.76.71.66.66,0,0,0,.75-.7A.73.73,0,0,0,239,257.29Z" transform="translate(-181.44 -73.77)" fill="#a17301"/><path d="M212,338.56c.69-.49,1-1.73,2.24-1.32.09,1.12-.8,1.59-1.27,2.29h0c.47-.19.93-.4,1.41-.54s.93-.28,1.12.28a.72.72,0,0,1-.7.92c-2.67.09-5.38.48-8-.46-.52-.19-1.36-.61-.93-1.33s1.09,0,1.62.2a8.12,8.12,0,0,1,.83.53c-.31-.89-1.46-1.53-.69-2.68,1.05.19,1.2,1.15,1.79,1.76.08-.86-.49-1.83.52-2.44.8.32.64,1.08.86,1.66.37-.51.26-1.45,1.29-1.38.6.88,0,1.69-.1,2.52l-.14.27h0Z" transform="translate(-181.44 -73.77)" fill="#a17301"/><path d="M226.06,338.51c.36-.92.15-2.18,1.43-2.53a1,1,0,0,1,1.15.59c.54,1-.32,1.7-.74,2.52a11.41,11.41,0,0,1,1.73-.11c.65.06,1,.46.93,1.28h-7.14l1.46-.41c-.64-1-3.37-1.32-1.6-3C224.62,335.54,225.18,337.7,226.06,338.51Z" transform="translate(-181.44 -73.77)" fill="#a17301"/><path d="M225.29,312.13c-.44-.33-.26-.8-.29-1.21a9,9,0,0,1-1.5-.93c-.6-.54-1.06-1.25-.52-2.06s1.35-.65,2.1-.32c1.61.7,2.25,2.95,1.2,4.12C226,312,225.73,312.3,225.29,312.13Z" transform="translate(-181.44 -73.77)" fill="#a17301"/><path d="M229.89,310c-.3.51-.78.5-1.27.47-1.31-.08-1.68-1.08-2-2.1a2.25,2.25,0,0,1,.54-2.46,1.12,1.12,0,0,1,1.25-.35,1.51,1.51,0,0,1,1,1.46,13.06,13.06,0,0,1-.24,1.92C229.28,309.23,229.9,309.34,229.89,310Z" transform="translate(-181.44 -73.77)" fill="#a17301"/><path d="M246.7,328.57c0,.42.24.9-.19,1.27-.48.18-.8-.09-1.09-.39a2.22,2.22,0,0,1-.22-2.78,2.46,2.46,0,0,1,2.11-1.64,1.15,1.15,0,0,1,1.24.67,1.56,1.56,0,0,1-.42,1.82A10.38,10.38,0,0,1,246.7,328.57Z" transform="translate(-181.44 -73.77)" fill="#a17301"/><path d="M242.56,326.91c0-.09,0-.11,0-.13-.51-1-.85-2.09.16-3a1,1,0,0,1,1.45,0c1.3,1.09.87,2.4.35,3.65a1.84,1.84,0,0,1-2,1,.86.86,0,0,1-.64-.4C241.65,327.46,242.3,327.29,242.56,326.91Z" transform="translate(-181.44 -73.77)" fill="#a17301"/><path d="M273.69,332c-.14-.67.4-.81.58-1.19-.47-1-.79-2.08.37-2.86.58-.39,1.12,0,1.45.53a2.6,2.6,0,0,1-.4,3.22A1.44,1.44,0,0,1,273.69,332Z" transform="translate(-181.44 -73.77)" fill="#a17301"/><path d="M278,332.1l.18-.09c0-.06-.09-.11-.13-.16a11.44,11.44,0,0,1-.95-2,2.69,2.69,0,0,0-.2.27c-.44.8-1,1.64-.29,2.6.31.39.61.83,1.19.62C278.24,333,277.94,332.52,278,332.1Z" transform="translate(-181.44 -73.77)" fill="#a17301"/><path d="M246.27,340.29c-.23-1-.51-2,.2-2.91a.71.71,0,0,1,.71-.11c.89.76.64,1.85.82,2.84A2.34,2.34,0,0,1,246.27,340.29Z" transform="translate(-181.44 -73.77)" fill="#a17301"/><path d="M249.83,340.3H248.1a3.63,3.63,0,0,1,1.11-2.75.51.51,0,0,1,.78.13C250.48,338.56,250.09,339.39,249.83,340.3Z" transform="translate(-181.44 -73.77)" fill="#a17301"/><path d="M245.84,340.31c-1.15,0-2.2.46-2.54-.95-.12-.48-.19-1.17.42-1.18C245,338.16,245.19,339.33,245.84,340.31Z" transform="translate(-181.44 -73.77)" fill="#a17301"/><path d="M252.62,340.3h-2A2.12,2.12,0,0,1,252,339a.91.91,0,0,1,.72.23C253.06,339.52,252.91,339.89,252.62,340.3Z" transform="translate(-181.44 -73.77)" fill="#a17301"/><path d="M205.75,340.15h.64v.14h-.64Z" transform="translate(-181.44 -73.77)" fill="#a17301"/><path d="M213.77,152.82l23-.67,21.12-.62L256.36,146l3.88,5.41h7.3s-10.36-20.83-32.24-20S206,152.82,206,152.82" transform="translate(-181.44 -73.77)" fill="#a17301"/><path d="M236.07,130.76s-1-16.82-19.83-13.53-32.7,14.45-32.7,14.45l13.53,10.72,6.35-5.29-2.59,7.06,3.29,3.06s5.86-16.12,18-16.35c2.07,0,4.3,1.18,5.72.76A21.19,21.19,0,0,1,236.07,130.76Z" transform="translate(-181.44 -73.77)" fill="#a17301"/></svg>