<!-- Generator: Adobe Illustrator 25.2.1, SVG Export Plug-In . SVG Version: 6.00 Build 0)  -->
<svg version="1.1" id="Layer_1" xmlns="http://www.w3.org/2000/svg" xmlns:xlink="http://www.w3.org/1999/xlink" x="0px" y="0px"
	 viewBox="0 0 373.6 374.7" style="enable-background:new 0 0 373.6 374.7;" xml:space="preserve">
<style type="text/css">
	.stbox{fill:#A17E01;}
</style>
<path class="stbox" d="M361.5,187.9c-19.4,0-38.9,0-58.4,0c-1.4,0-3.4,0.8-4-0.5c-0.4-0.9,1.5-1.9,2.4-2.8c3.8-3.9,7.3-8.2,10.3-12.7
	c8.1-12.2,12.2-25.3,9.3-40c-2.7-13.6-10.1-23.6-23.6-28c-13.8-4.4-26.4-2-37.2,7.9c-1.5,1.3-2.1,1.4-3.6,0
	c-11.1-10-23.9-12.1-38-7.8c-0.2,0-14.9,5.6-19.9,18.4c-4.1,9.2-5.1,19.4-2.7,29.2c3.1,13.6,10.9,24.4,20.5,34.2
	c0.5,0.5,1.7,0.9,1.2,1.9c-0.1,0.3-1.3,0.3-2,0.3c-24.9,0-49.8,0-74.8,0.1c-2.7,0-2.7-1-2.1-3c2.1-7.3,4.2-14.7,6.2-22.1
	c2.2-8.1-1.4-14.5-9.5-16.8c-7.4-2.2-14.9-4.2-22.4-6.2c-8.5-2.3-14.9,1.4-17.3,9.8c-1.6,5.7-3.2,11.4-4.6,17.2
	c-0.6,2.3-1.3,3-3.9,2.1c-10.3-3.4-20.8-5.8-31.8-5.3C35.2,164.6,26,177.1,31,196.6c2.7,10.3,7.4,19.7,12.8,28.8
	c1,1.5,1.3,3.4,0.7,5.1c-1.9,6.4-3.7,12.8-5.3,19.3c-0.5,2.7-2.4,5-4.9,6.1c-3.1,1.6-6.2,3.4-9.1,5.4c-7.6,5.1-15,10.4-20.4,18
	c-7.1,10-6.4,19.8,1.9,28.8c3.1,3.3,6.7,6,10.7,8.1c8.3,4.5,17.3,7.8,26.6,9.6c2.4,0.5,3.1,1.2,2.2,3.8c-1.7,5-2.9,10.3-4.3,15.4
	c-3.1,10.9,0.1,16.3,11.1,19.5c7.1,2.1,14.5,4.1,21.6,6.2c9.5,2.5,12.5,2.4,16.9-13.8l21.6-78.4c3.9-14.2,7.8-28.5,11.8-43
	c0.9,1.4,0.5,2.7,0.5,3.9c0,36.4,0.3,72.7-0.1,109.1c-0.1,10.4-2.4,22.3,12.6,22.4h222.6c7.5-0.3,13.1-3.5,13.1-13.1V192.9
	C373.7,187.4,368.9,187.9,361.5,187.9z M41.7,193.8c-3.2-13,1.2-18.6,14.6-19.1c0.7,0,1.5,0,2.2,0l0,0c9.2,0.2,18,2.4,26.7,5.1
	c1.9,0.6,1.9,1.6,1.5,3.2c-3.9,14-7.8,28.1-11.6,42.1c-0.5,1.9-1.3,2.4-3.3,1.8c-5.1-1.6-10.3-2.9-15.4-4.3c-1.1-0.2-2-0.9-2.5-1.8
	C48.6,212.3,44,203.5,41.7,193.8z M71.1,239c-1.7,6.2-3.3,12.2-5,18.1c-0.4,1.4-1.5,0.8-2.4,0.6c-4.1-1.1-8.1-2.4-12.3-3.4
	c-1.9-0.4-1.9-1.2-1.4-2.8c1.5-5.1,2.9-10.3,4.2-15.4c0.5-1.7,0.8-2.7,3.1-1.9c3.9,1.3,7.9,2.2,11.9,3.3
	C70.1,237.8,71.3,237.8,71.1,239z M47.7,315.5c-9.4-2.3-18.7-5-27.1-10.3c-3.2-1.8-5.9-4.4-7.9-7.4c-1-1.5-1.6-3.1-1.8-4.9
	c0.2-3.5,1.9-6.2,3.9-8.6c7.5-8.9,17.3-14.7,27.4-20.2c0.8-0.4,1.6-0.5,2.5-0.2c5.4,1.5,10.7,3,16.1,4.5c1.5,0.4,2,0.9,1.5,2.7
	c-4,14.1-7.9,28.3-11.7,42.4C50.2,315.2,49.7,315.9,47.7,315.5z M100.7,282.2l-20.4,73.9c-0.8,3.1-1.8,4.3-5.2,3.2
	c-6.8-2.2-13.7-4-20.7-5.8c-2.5-0.6-3.1-1.8-2.4-4.1c7-25,13.9-50,20.7-75c0.6-2.1,1.4-2.4,3.2-1.9c7.6,2.2,15.1,4.4,22.8,6.3
	C101,279.3,101.3,280.1,100.7,282.2z M109.5,250.2c-1.6,5.9-3.2,11.6-4.7,17.2c-0.4,1.4-1.1,1.5-2.4,1.1c-7.9-2.3-15.8-4.4-23.8-6.6
	c-1.5-0.4-2.3-0.8-1.7-2.7c1.6-5.2,3-10.5,4.4-15.8c0.4-1.6,0.8-2.4,2.9-1.8c7.8,2.3,15.6,4.4,23.5,6.5
	C108.9,248.5,110.2,248.7,109.5,250.2z M134.2,160.8c-7,25-13.8,50-20.7,75c-0.5,2-1.2,2.3-3.2,1.7c-7.6-2.2-15.2-4.2-22.8-6.3
	c-1-0.3-3.1,0-2.3-2.1c2.8-10.3,5.5-20.3,8.3-30.4c4.1-14.8,8.2-29.7,12.3-44.5c1.2-4.4,1.3-4.4,5.7-3.2c6.7,1.8,13.3,3.7,20,5.4
	C134.2,157.1,134.9,158.3,134.2,160.8z M228.1,279.5c0,25.5,0,51,0.1,76.6c0,2.9-0.4,3.9-3.7,3.9c-26.9-0.1-53.7-0.1-80.6-0.1
	c-5.8,0-7.5-1.7-7.5-7.6c0-49.8,0-99.7-0.1-149.5c0-3.4,1-3.9,4-3.9c28,0.2,55.9,0.2,83.9,0c3.3,0,3.9,1,3.9,4.1
	C228.1,228.5,228.1,254,228.1,279.5z M233.7,186.6c-7.2-6-13.9-12.5-19.2-20.3c-8.4-12.4-11.7-25.5-5.7-39.9
	c5.4-9.3,14-12.3,14.5-12.4c13-3.7,23.9,0.9,30.1,12.8c0.8,2,2.8,3.2,4.9,3.3c2.3,0.1,4.4-1.2,5.1-3.4c0.9-2.5,2.3-4.8,4.1-6.8
	c11.6-12.1,33.7-8.3,40.6,7c3.7,8.2,4.1,17.5,1,26c-4.9,14.5-15.2,24.9-26.7,34.3c-1,0.7-2.2,1-3.4,0.8c-13.7,0-27.5,0-41.2,0
	C236.3,188.1,234.8,187.6,233.7,186.6z M260,356.5c0,2.6-0.4,3.6-3.3,3.5c-4.7-0.3-9.5-0.3-14.2,0c-2.7,0.1-3.4-0.6-3.4-3.4
	c0.1-25.8,0.1-51.6,0.1-77.3c0-25.5,0.1-51.1,0-76.6c0-3,0.7-4,3.8-3.8c4.5,0.2,9,0.2,13.5,0c2.8-0.1,3.7,0.5,3.7,3.5L260,356.5z
	 M362.7,353.2c0,4.7-2,6.7-6.6,6.7c-27.4,0-54.7,0-82.1,0.1c-2.8,0-3-1-3-3.4l0-154.2c0-2.7,0.6-3.5,3.4-3.5
	c28.5,0.1,56.9,0.1,85.4,0c2.2,0,3.1,0.4,3.1,2.9C362.7,252.3,362.7,302.8,362.7,353.2z"/>
<path class="stbox" d="M271.6,21.4c0.1,10.5-3.9,17.7-9.6,24.1c-6.3,7.2-14,12.6-22.4,17.2c-2,1.3-4.5,1.3-6.6,0.2
	C223,57.4,213.8,50.8,207,41.3c-5.6-7.8-8-16.3-5.2-25.8c4-13.9,19.7-19.7,32.2-11.9c1.4,0.9,2.3,1.4,4,0.3c7.3-4.7,15.1-5.1,22.7-1
	C268.7,7.1,271.4,14.4,271.6,21.4z M260.6,23c0-0.4,0-0.7,0-1.1c-0.3-5.5-3.1-9.3-7.9-10.5c-4.7-1.1-8.8,0.8-11.7,5.6
	c-1.4,2.7-4.7,3.7-7.4,2.3c-1.2-0.6-2.1-1.7-2.6-2.9c-1.9-4.3-5.6-5.4-9.9-5.2c-4.1,0.2-7.7,3-8.8,7c-1.8,5.7-0.3,10.8,2.8,15.5
	c4.9,7.6,12,12.9,19.6,17.5c0.9,0.6,2.1,0.6,2.9-0.1c6.8-4.1,13.1-8.8,17.9-15.2C258.6,32.1,260.7,27.9,260.6,23L260.6,23z"/>
<path class="stbox" d="M361.3,54c-0.1,9.1-3.6,15.9-8.8,22c-6.3,7.4-14.1,13-22.6,17.5c-1.9,1.2-4.3,1.2-6.2,0.1
	c-10-5.3-18.9-11.8-25.5-21.2c-5.2-7.3-7.5-15.4-5.1-24.4c3.8-13.9,18.9-19.8,31.4-12.3c1.3,0.8,2.2,1.6,4,0.4
	c7.2-4.6,14.9-4.9,22.4-0.8C358.3,39.6,361,46.8,361.3,54z M350.3,56.3c-0.1-7-2.8-11.2-7-12.3c-5.1-1.3-8.7,0.3-11.8,5.3
	c-2.5,4.1-7.4,3.8-9.8-0.5c-2.3-4.1-5.6-5.7-10.3-5c-4.1,0.6-6.8,3.2-7.8,7.6c-1.2,5.1,0.2,9.6,2.9,13.8
	c4.7,7.3,11.5,12.4,18.8,16.9c0.9,0.7,2.1,0.6,3-0.1c6.6-4,12.7-8.6,17.3-14.8C348.3,63.4,350.3,59.4,350.3,56.3z"/>
<path class="stbox" d="M123.8,86.4c0.1-8.2,2.8-15.4,10.3-19.6c7.5-4.2,15.3-3.9,22.7,0.8c1,0.7,1.7,1,2.8,0.1
	c7.2-5.5,18.9-4.9,25.4,0.7c7.7,6.7,9,15.4,6.8,24.9c-1.6,6.7-5.6,12-10.3,16.9c-5.7,5.8-12.3,10.6-19.5,14.5
	c-2.1,1.3-4.7,1.4-6.9,0.2c-9.7-5.3-18.5-11.6-25.1-20.7C126.3,99,123.8,93.1,123.8,86.4z M181.8,86.2c0-0.4,0-0.7,0-1.1
	c-0.3-5.1-3-8.9-7.1-9.9c-5.1-1.2-8.6,0.4-11.4,5.2c-0.9,1.9-2.9,3.1-5,3c-2.3,0-4.3-1.4-5-3.5c-1.7-4-5.1-5-8.9-4.9
	c-3.8-0.1-7.2,2.2-8.4,5.8c-2.2,5.7-0.8,11,2.4,15.9c4.7,7.2,11.4,12.2,18.6,16.6c0.9,0.7,2.1,0.8,3,0.1c7-4.4,13.7-9.3,18.4-16.3
	C180.6,94,181.9,90.2,181.8,86.2L181.8,86.2z"/>
</svg>
