<svg xmlns="http://www.w3.org/2000/svg" width="131.81mm" height="132.2mm" viewBox="0 0 373.64 374.73"><path d="M144.41,475.17c-7.06-2.1-14.41-4.09-21.56-6.19-10.95-3.21-14.12-8.6-11.06-19.55,1.44-5.13,2.61-10.36,4.31-15.4.88-2.61.14-3.31-2.23-3.82a95.3,95.3,0,0,1-26.57-9.63,42.58,42.58,0,0,1-10.67-8.15c-8.34-9-9-18.76-1.91-28.77,5.38-7.58,12.75-12.94,20.4-18a74.79,74.79,0,0,1,9.07-5.37,8.23,8.23,0,0,0,4.94-6.1c1.58-6.47,3.37-12.9,5.26-19.29a5.74,5.74,0,0,0-.73-5.06c-5.44-9.07-10.17-18.49-12.83-28.8-5-19.49,4.25-32,24.4-32.86,11-.47,21.49,1.94,31.8,5.31,2.63.87,3.32.19,3.9-2.1,1.46-5.76,3-11.49,4.63-17.21,2.35-8.47,8.81-12.14,17.29-9.82,7.48,2.05,15,4.05,22.43,6.21,8.1,2.34,11.71,8.76,9.53,16.85-2,7.37-4.07,14.72-6.17,22.06-.57,2-.57,3,2.12,3,24.93-.1,49.85-.06,74.78-.07.7,0,1.85.07,2-.27.5-1-.68-1.36-1.21-1.9-9.58-9.76-17.38-20.6-20.52-34.2a45.6,45.6,0,0,1,2.71-29.22,5.44,5.44,0,0,1,7.17-3.2,5.29,5.29,0,0,1,2.93,7.21c-6,14.47-2.66,27.55,5.71,39.93,5.29,7.83,12,14.31,19.24,20.31a5.74,5.74,0,0,0,4,1.37c13.75,0,27.49,0,41.23,0a4.85,4.85,0,0,0,3.43-.83c11.45-9.47,21.8-19.82,26.68-34.33a34.69,34.69,0,0,0-1-26c-6.83-15.31-28.91-19.09-40.56-7a20.87,20.87,0,0,0-4.1,6.81,5.15,5.15,0,0,1-5.15,3.37,5.44,5.44,0,0,1-4.88-3.27c-6.2-11.87-17.13-16.51-30.1-12.77-.46.14-.93.28-1.4.4-3.27.86-6.16-.46-7.15-3.27a5.47,5.47,0,0,1,3.86-7.16c14.06-4.37,26.88-2.22,38,7.78,1.55,1.4,2.15,1.35,3.64,0,10.83-9.89,23.47-12.32,37.23-7.9,13.56,4.35,20.9,14.41,23.63,28,2.94,14.69-1.18,27.84-9.27,40a95.55,95.55,0,0,1-10.32,12.73c-.89.93-2.8,1.95-2.36,2.85.64,1.27,2.61.5,4,.5,19.46,0,38.92,0,58.37,0,7.4,0,12.18-.51,12.18,5V462.3c0,9.53-5.67,12.77-13.14,13.08H207.77c-15-.08-12.69-12-12.58-22.41.4-36.36.16-72.72.14-109.08,0-1.17.36-2.44-.53-3.87-4,14.53-7.92,28.77-11.85,43-2.84,10.28-5.64,20.58-8.59,30.83-1.32,4.6-5.77,6.16-9,3.3-1.92-1.72-2.2-3.85-1.51-6.31,2.28-8.05,4.38-16.15,6.71-24.18.62-2.12.27-2.87-2-3.44-7.63-1.94-15.2-4.14-22.78-6.3-1.85-.53-2.66-.21-3.24,1.9q-10.22,37.55-20.7,75c-.66,2.38-.11,3.51,2.42,4.15,6.93,1.75,13.85,3.6,20.67,5.76,3.4,1.08,4.42-.09,5.21-3.18,2.23-8.69,4.73-17.31,7.15-25.95,1.2-4.31,3.9-6.19,7.29-5.16,3.13.94,4.35,3.95,3.21,8.09-2.17,8-4.28,15.93-6.47,23.87C156.94,477.6,153.94,477.68,144.41,475.17ZM309,383.77c0,25.78.05,51.56-.07,77.34,0,2.76.7,3.49,3.41,3.36a124.92,124.92,0,0,1,14.22,0c2.93.18,3.3-.9,3.29-3.47-.09-27.11-.05-54.23-.05-81.34A19.16,19.16,0,0,1,330,376c.59-3,2.55-4.8,5.61-4.65a5,5,0,0,1,5.15,5.08c.09,1.21.07,2.43.07,3.65q0,40.49-.05,81c0,2.33.25,3.39,3.05,3.38,27.36-.12,54.72-.06,82.08-.08,4.65,0,6.64-2,6.64-6.69q0-75.69.08-151.39c0-2.54-.86-2.94-3.11-2.93q-42.68.09-85.36,0c-2.8,0-3.42.81-3.4,3.49.14,14.71.07,29.42.06,44.14,0,1.46.06,2.92-.08,4.37a5.38,5.38,0,0,1-10.59.77,16.47,16.47,0,0,1-.29-4c0-15.08-.1-30.15.06-45.23,0-3-.87-3.69-3.67-3.55a123.89,123.89,0,0,1-13.49,0c-3.08-.19-3.79.84-3.77,3.82C309.06,332.7,309,358.24,309,383.77ZM298,384c0-25.53-.06-51.06.07-76.59,0-3.11-.6-4.09-3.94-4.07q-41.94.23-83.89,0c-3.05,0-4.06.49-4.05,3.87.14,49.85.09,99.69.1,149.54,0,5.92,1.68,7.64,7.5,7.64,26.87,0,53.75-.06,80.61.08,3.22,0,3.67-1,3.66-3.9C298,435.05,298,409.52,298,384ZM155.15,333.55c-.83,2.09,1.23,1.83,2.26,2.12,7.58,2.15,15.21,4.1,22.77,6.32,1.95.57,2.65.32,3.2-1.69q10.26-37.53,20.69-75c.72-2.57,0-3.77-2.59-4.43-6.7-1.7-13.34-3.6-20-5.43-4.41-1.21-4.54-1.14-5.75,3.24q-6.14,22.26-12.28,44.51C160.69,313.23,158,323.29,155.15,333.55Zm-26.88-54.38c-.73,0-1.46,0-2.19,0-13.34.48-17.73,6.1-14.57,19.06,2.37,9.75,6.95,18.57,12.15,27.09a3.9,3.9,0,0,0,2.55,1.84c5.14,1.4,10.31,2.72,15.41,4.28,2,.61,2.76.08,3.28-1.84q5.72-21,11.57-42.06c.45-1.61.45-2.65-1.49-3.25C146.26,281.58,137.46,279.39,128.27,279.17ZM80.8,397.32a11.25,11.25,0,0,0,1.84,4.9,23.86,23.86,0,0,0,7.88,7.44c8.33,5.24,17.62,7.95,27.07,10.26,2,.48,2.45-.28,2.92-2q5.73-21.24,11.71-42.42c.51-1.82,0-2.3-1.54-2.72-5.39-1.45-10.75-3-16.12-4.48a3.12,3.12,0,0,0-2.46.22C102,374,92.22,379.78,84.72,388.69,82.68,391.13,81,393.82,80.8,397.32Zm98.57-42.7c.65-1.49-.65-1.65-1.9-2-7.84-2.13-15.69-4.2-23.47-6.53-2.1-.63-2.45.25-2.87,1.81-1.41,5.26-2.78,10.55-4.38,15.76-.58,1.89.24,2.29,1.7,2.69,8,2.16,15.9,4.33,23.83,6.59,1.32.37,2.05.23,2.42-1.15C176.21,366.18,177.75,360.57,179.37,354.62ZM141,343.48c.17-1.22-1.06-1.24-1.85-1.46-4-1.13-8-1.95-11.9-3.3-2.27-.79-2.66.21-3.11,1.91-1.36,5.16-2.71,10.32-4.22,15.44-.47,1.6-.45,2.33,1.43,2.78,4.12,1,8.17,2.25,12.27,3.36.88.24,2,.8,2.41-.61C137.67,355.64,139.28,349.67,141,343.48Z" transform="translate(-69.85 -101.64)" fill="#a17e01"/><path d="M341.5,123c.1,10.49-3.93,17.68-9.58,24.13-6.31,7.22-14,12.63-22.39,17.21a6.42,6.42,0,0,1-6.57.18c-10.12-5.51-19.33-12.12-26.12-21.62-5.56-7.79-8-16.31-5.23-25.77,4-13.91,19.73-19.7,32.24-11.9,1.4.88,2.31,1.4,4,.28,7.32-4.72,15.06-5.15,22.75-1C338.51,108.78,341.24,116.06,341.5,123Zm-11,1.61c0-.37,0-.73,0-1.09-.27-5.54-3.12-9.35-7.87-10.49s-8.85.78-11.67,5.61a5.5,5.5,0,0,1-10-.6c-1.93-4.32-5.65-5.42-9.89-5.21a9.52,9.52,0,0,0-8.76,7c-1.79,5.67-.26,10.79,2.82,15.54,4.95,7.61,12,12.87,19.63,17.55a2.44,2.44,0,0,0,2.95-.14c6.77-4.15,13.07-8.84,17.9-15.24C328.43,133.74,330.58,129.58,330.46,124.59Z" transform="translate(-69.85 -101.64)" fill="#a17e01"/><path d="M431.13,155.67c-.08,9.15-3.61,15.93-8.76,22-6.3,7.4-14.06,13-22.58,17.52a6.21,6.21,0,0,1-6.24.1c-10-5.32-18.94-11.85-25.55-21.17-5.22-7.35-7.55-15.42-5.09-24.41,3.79-13.86,18.91-19.79,31.36-12.31,1.32.8,2.22,1.57,4,.4,7.24-4.64,14.92-4.95,22.41-.77S430.83,148.39,431.13,155.67Zm-11,2.26c-.06-7-2.79-11.22-7-12.34-5.08-1.34-8.68.28-11.76,5.29-2.54,4.12-7.41,3.85-9.85-.54-2.26-4.07-5.56-5.66-10.29-5-4.09.61-6.77,3.24-7.81,7.57-1.21,5.09.21,9.64,2.94,13.84,4.75,7.31,11.54,12.37,18.83,16.87a2.44,2.44,0,0,0,3-.11c6.57-4,12.67-8.62,17.34-14.84C418.19,165.06,420.11,161.05,420.13,157.93Z" transform="translate(-69.85 -101.64)" fill="#a17e01"/><path d="M193.7,188.05c.15-8.25,2.76-15.4,10.27-19.62s15.35-3.86,22.74.83c1,.66,1.74,1,2.85.14,7.25-5.5,18.91-4.93,25.42.73,7.75,6.74,9,15.42,6.8,24.88-1.6,6.68-5.63,12-10.32,16.86A81.42,81.42,0,0,1,232,226.33a6.75,6.75,0,0,1-6.91.25c-9.7-5.27-18.48-11.65-25.06-20.67C196.12,200.61,193.64,194.77,193.7,188.05Zm58-.17c0-.37,0-.73,0-1.09-.27-5.13-3-8.88-7.1-9.87-5.09-1.23-8.6.37-11.44,5.22a5.37,5.37,0,0,1-5,3,5.27,5.27,0,0,1-5-3.54c-1.69-4-5.09-5-8.93-4.93a8.63,8.63,0,0,0-8.44,5.82c-2.19,5.71-.81,11,2.41,15.89,4.71,7.18,11.39,12.19,18.59,16.6a2.46,2.46,0,0,0,3,.1c7.05-4.41,13.66-9.29,18.39-16.3A18.62,18.62,0,0,0,251.73,187.88Z" transform="translate(-69.85 -101.64)" fill="#a17e01"/></svg>