<!DOCTYPE html>
<!-- Generator: Adobe Illustrator 25.2.1, SVG Export Plug-In . SVG Version: 6.00 Build 0)  -->
<svg version="1.1" id="Layer_1" xmlns="http://www.w3.org/2000/svg" xmlns:xlink="http://www.w3.org/1999/xlink" x="0px" y="0px"
	 viewBox="0 0 800 800" style="enable-background:new 0 0 800 800;" xml:space="preserve">
<style type="text/css">
	.st0{fill:#FFFFFF;}
	.st1{fill:#FBDB7B;}
	.st2{fill:#F9AF49;}
	.st3{fill:#F9A500;}
	.st4{fill:#89D66D;}
	.st5{fill:#006600;}
</style>
<path class="st0" d="M195.6,636.9c-89.5-85.4-95.6-222.5-26.5-342.3s191-182.9,309.8-148.2c0.9-2.2,2-4.4,3.2-6.4
	c15.8-27.3,52.5-35.8,82-18.8s40.5,53,24.7,80.4c-1.2,2.1-2.5,4.1-4,6c89.5,85.4,95.6,222.5,26.5,342.2S420.3,732.7,301.6,698
	c-0.9,2.2-2,4.4-3.2,6.4c-15.8,27.3-52.5,35.8-82,18.8s-40.5-53-24.7-80.4C192.8,640.7,194.2,638.7,195.6,636.9L195.6,636.9z"/>
<path class="st1" d="M567.4,136.3c26,18.7,23.2,42.8,13.5,59.6c-1.2,2.1-8.2,4.7-9.6,6.6c89.5,85.5,87.1,216.2,18,335.9
	s-177.2,186.5-296,151.8c-0.9,2.2-2.8,7-4,9c-9.6,16.7-17.6,25.4-58.7,21.2c-8.6-16.9-9.1-37,0.6-53.9c1.2-2.1,2.5-4.1,4-6
	c-89.5-85.4-95.6-222.5-26.5-342.3s191-182.9,309.8-148.2c0.9-2.2,2-4.4,3.2-6.4C531.3,147.1,548.7,137.5,567.4,136.3z"/>
<path class="st2" d="M240.6,654.5c115.6-44.6,196.9-107.9,244-190c38.8-67.6,54-150.2,66.2-263.9c14.1-12,25.9-42.2,14.8-61.3
	c4.2-1.2,19.4,8.7,23.8,8.5c8.6,16.9,9.1,37-0.6,53.9c-1.2,2.1-2.5,4.1-4,6c89.5,85.5,95.6,222.6,26.5,342.3S420.3,732.7,301.6,698
	c-0.9,2.2-2,4.4-3.2,6.4c-9.6,16.7-48.6,24-67.3,25.2c-8.6-16.9-9.6-46.1,0.2-63c-0.3-4.8,19.9,2.7,21.4,0.8
	C246.8,661.9,245.9,660.6,240.6,654.5z"/>
<path class="st3" d="M248.7,747.9c-14.2,0-28.1-3.8-40.3-10.9c-17.5-10-30.6-26.2-36.6-45.5c-5.5-17.8-4.1-36.2,3.7-52.3
	c-40.7-42.9-64.3-97.8-68.5-159.5c-4.4-64,12.4-130.8,48.3-193.1C183.1,238.5,220,198,262,169.4l18,26.5
	c-38.1,25.9-71.6,62.8-97,106.7c-32.8,56.8-48.1,117.3-44.1,174.9c4,58.1,27.4,109.2,67.8,147.8l10.4,9.9l-8.8,11.4
	c-1,1.3-2,2.7-2.8,4.1c-5.4,9.4-6.5,20.5-3.2,31.4c3.6,11.5,11.5,21.2,22.1,27.1c21.8,12.6,48.8,6.8,60.2-12.9
	c0.8-1.5,1.6-3,2.2-4.5l5.5-13.3l13.8,4c53.7,15.7,109.7,10.4,162-15.2c51.9-25.4,96.7-68.9,129.5-125.6
	c32.8-56.8,48.1-117.2,44.1-174.9c-4-58.1-27.4-109.2-67.8-147.8l-10.4-9.9l8.8-11.4c1-1.3,2-2.7,2.8-4.2c5.4-9.4,6.5-20.5,3.2-31.4
	c-3.6-11.5-11.5-21.2-22.1-27.1c-19.4-11.2-40.7-6.9-55.5,7.3c-1.7,1.6-7.2,8-8.5,9.5l-28-11.5c1.2-2.9,2.6-5.7,4.1-8.4
	c20.2-35,66.8-46,103.9-24.6c17.5,10,30.6,26.2,36.6,45.5c5.5,17.8,4.1,36.2-3.7,52.3c40.7,43,64.3,97.9,68.5,159.6
	c4.4,64-12.4,130.8-48.3,193.1s-85.5,110.2-143.1,138.4c-55.6,27.2-114.9,34.2-172.5,20.5C295.9,736.9,272.8,747.9,248.7,747.9
	L248.7,747.9z"/>
<path class="st4" d="M350.3,206.6c45.4,0,86.5-20.5,123.2-61.6c-36.8-41.1-77.9-61.6-123.2-61.6s-86.5,20.5-123.2,61.6
	C263.9,186.1,305,206.6,350.3,206.6z"/>
<path class="st5" d="M353.5,222.6c-49.9,0-95.4-22.5-135.2-66.9l-9.6-10.7l9.6-10.7c39.8-44.4,85.2-66.9,135.2-66.9
	s95.4,22.5,135.2,66.9l9.5,10.6l-0.4,0.5l-9.1,10.3C448.8,200.1,403.4,222.6,353.5,222.6z M252.3,145c13.9,13.7,28.5,24.4,43.5,31.9
	c36.3,18.3,79.1,18.3,115.4,0c15-7.5,29.5-18.2,43.5-31.9c-13.9-13.7-28.5-24.4-43.5-31.9c-36.3-18.3-79.1-18.3-115.4,0
	C280.8,120.6,266.2,131.3,252.3,145z"/>
<path class="st5" d="M336.6,132.7H455c4.9,0,8.8,3.9,8.8,8.8l0,0v6.4c0,4.9-3.9,8.8-8.8,8.8l0,0H336.6c-4.9,0-8.8-3.9-8.8-8.8l0,0
	v-6.4C327.8,136.7,331.8,132.7,336.6,132.7L336.6,132.7z"/>
<path class="st3" d="M242.6,680.5c-2.7,0-5.4-0.7-7.8-2.1c-39.7-22.9-68.2-47-87-73.7c-5.3-6.8-4.1-16.6,2.6-21.9
	c6.8-5.3,16.6-4.1,21.9,2.6c0.3,0.4,0.6,0.9,0.9,1.3c16.2,22.9,41.4,44,77.1,64.6c7.5,4.3,10,13.9,5.7,21.3
	C253.4,677.5,248.2,680.5,242.6,680.5L242.6,680.5z"/>
<path class="st1" d="M240.6,313.7"/>
</svg>
