<!-- Generator: Adobe Illustrator 25.2.1, SVG Export Plug-In . SVG Version: 6.00 Build 0)  -->
<svg version="1.1" id="Layer_1" xmlns="http://www.w3.org/2000/svg" xmlns:xlink="http://www.w3.org/1999/xlink" x="0px" y="0px"
	 viewBox="0 0 476 460" style="enable-background:new 0 0 476 460;" xml:space="preserve">
<style type="text/css">
	.st0{fill:none;stroke:#A17E01;stroke-width:1.5;stroke-linecap:round;stroke-linejoin:round;stroke-miterlimit:10;}
	.st1{fill:#A17E01;}
	.st2{fill:none;stroke:#A17E01;stroke-width:2;stroke-linecap:round;stroke-linejoin:round;stroke-miterlimit:10;}
	.st3{fill:none;stroke:#A17E01;stroke-width:3;stroke-linecap:round;stroke-linejoin:round;stroke-miterlimit:10;}
	.st4{fill:none;stroke:#A17E01;stroke-width:1.5;stroke-miterlimit:10;}
</style>
<path class="st0" d="M187.7,181.6c-4.4,3.3-5.9,9-3.8,13.7c1.9,4.5,6.5,7.2,11.3,6.8c6.7-0.5,11.3-7.5,10.3-12.9
	C204.3,183.4,196.6,176.6,187.7,181.6z"/>
<path class="st0" d="M209.7,219.2"/>
<path class="st0" d="M209.7,219.2c-2.7-7.9-4.5-13.6-13.8-16.9"/>
<path class="st0" d="M214.4,214.9c-5.8-8.1-6.3-9.2-9.3-18.3"/>
<g>
	<path class="st1" d="M184.1,160.4c0.7,0.7,1.3,1.5,2,2.2c0.3,0.3,0,0-0.2-0.3l-0.4-0.6c-0.3-0.3-0.7-0.7-0.9-1.1
		c-1.4-1.4-2.8-2.8-4.3-4c-3.1-2.6-6.2-4.9-9.6-6.9c-3.5-2-6.9-3.7-10.6-5.1c-3.7-1.4-7.5-2.3-11.5-3c-7.8-1.5-15.7-2.3-23.6-3.2
		c-3.9-0.5-7.9-1.1-11.9-2.3c-2-0.8-3.8-1.7-5.4-2.8l-2.5-1.7c-0.3-0.2-0.8-0.5-1.2-0.7c-0.1-0.1-0.4-0.1-0.4-0.1l0,0l0.2-0.3
		c-0.5,2.1-0.6,4.5,0,6.7s1.8,4.1,3.8,5.1c0.9,0.6,2,0.9,3.1,1.3c1.3,0.3,2.6,0.8,3.7,1.6c2.3,1.5,4,3.5,5.3,5.6
		c2.7,4.2,4.6,8.8,6.5,13.2c1.9,4.5,3.8,8.9,6.6,12.5c3,3.7,6.1,7.6,9.2,11.2s6.4,7.1,9.8,10.5c7,6.5,14.8,12.1,23.5,16l0,0
		c1,0.5,1.5,1.8,1,2.8s-1.8,1.5-2.8,1l0,0c-9-4.3-17.1-10.3-24.2-17.2c-3.5-3.5-6.8-7.1-9.9-10.9c-3.1-3.8-6.1-7.6-9.1-11.4
		c-3.1-4.1-4.9-8.8-6.8-13.3c-1.9-4.5-3.6-9-6.1-13c-1.2-1.9-2.7-3.8-4.5-5c-0.9-0.6-1.8-1-2.9-1.3c-1.3-0.3-2.5-0.9-3.6-1.6
		c-1.2-0.7-2.2-1.7-2.9-2.8c-0.8-1.1-1.2-2.4-1.6-3.6c-0.6-2.7-0.5-5.2,0.2-7.7c0.1-0.1,0.1-0.2,0.2-0.3l0.1-0.1
		c0.4-0.4,1-0.5,1.4-0.4s0.7,0.1,1,0.3c0.5,0.2,0.9,0.6,1.4,0.9l2.5,1.7c1.6,1.1,3.3,2.1,5.1,2.7c3.7,1.2,7.6,1.9,11.5,2.4
		c7.9,1.2,15.8,2,23.6,3.7c3.9,0.8,7.8,1.8,11.4,3.3c3.6,1.5,7.2,3.3,10.6,5.4c3.4,2.1,6.6,4.5,9.5,7.2c1.5,1.3,2.9,2.6,4.2,4.1
		c0.3,0.3,0.7,0.7,0.9,1.1l0.4,0.6c0.1,0.1,0.2,0.3,0.3,0.3c0,0,0,0,0.1,0.1l0,0c0,0-0.1,0.1,0,0l0,0l-0.1-0.1
		C185.3,162,184.7,161.3,184.1,160.4z"/>
</g>
<g>
	<path class="st1" d="M199.6,160.9c0.4,0.9,0.9,1.9,1.3,2.8v0.2l0,0c0.6-0.1-0.7,0.4-0.6,0.2l0,0l-0.1-0.1l-0.1-0.4l-0.4-0.7
		l-0.5-1.5c-0.7-1.9-1.3-3.9-1.7-6c-1-4.1-1.7-8.1-2-12.3c-0.7-8.2,0.2-17,3.6-25c0.9-2,1.8-3.6,2.5-5.5c0.6-1.7,1.1-3.5,1.2-5.5
		c0.2-1.8,0.1-4,0.5-6.2c0.3-2.3,1.1-4.3,2-6.2s1.9-3.8,3-5.6c1.1-1.7,2.2-3.5,3.1-5.2s1.6-3.6,1.9-5.5c0.3-2,0.4-4,0.4-6.1
		c0.5,2,0.8,4.1,0.8,6.2c0,2.1-0.4,4.3-1.2,6.3c-1.5,3.9-3.7,7.4-5.1,11.1c-0.7,1.9-1.2,3.7-1.4,5.5c-0.2,1.8-0.1,3.8-0.2,6
		s-0.6,4.5-1.3,6.5c-0.6,2-1.8,4.1-2.5,5.8c-1.6,3.6-2.5,7.4-3.2,11.3c-0.7,4-0.9,7.9-0.9,12s0.3,8,0.7,12c0.2,2.1,0.5,4.1,0.9,6.1
		l0.3,1.5l0.2,0.8l0.1,0.4l0,0l0,0c0.2,0-1.2,0.4-0.6,0.2l0,0v-0.2C200,162.9,199.8,162,199.6,160.9z"/>
</g>
<g>
	<path class="st1" d="M216.8,52.4c4.2,3.6,8,8,11.4,12.4c3.5,4.5,6.7,9,9.7,13.8c6,9.5,10.9,19.8,14.8,30.5
		c3.7,10.7,6.2,21.9,6.8,33.3c0.3,5.7,0.2,11.4-0.4,17.1c-0.6,5.6-1.8,11.3-3.2,16.9c-0.4,1.1-1.4,1.7-2.6,1.5
		c-1.1-0.4-1.7-1.4-1.5-2.6l0,0l0,0c1.5-5.2,2.8-10.6,3.6-16.2c0.7-5.4,0.9-11,0.9-16.6c-0.3-11.1-2.3-22.2-5.7-32.8
		c-3.4-10.6-8-20.9-13.7-30.5c-2.8-4.9-5.8-9.6-9.2-14C224.5,60.5,220.9,56.1,216.8,52.4z"/>
</g>
<g>
	<path class="st1" d="M173.9,218c-1.3-0.2-2.9-0.2-4.4-0.2c-1.6,0-3.2,0.1-4.5,0.2c-1.6,0.2-3.1,0.5-4.6,0.6l-4.6,1
		c-6,1.6-11.7,4.3-17,7.8c-5.4,3.3-9.9,7.7-14.3,12.3c-2,2.5-4.1,4.9-5.9,7.3c-1.7,2.7-3.5,5.3-5.2,8l-4.5,8.4
		c-0.2,0.3-0.4,0.7-0.7,1.2c-0.2,0.3-0.5,0.8-0.7,1.2c-0.6,0.7-1.4,1.4-2.1,2c-1.5,1-3.2,1.7-4.7,2.3c-3.1,1.1-6,2.1-8.9,3.5
		c-2.8,1.3-5.4,3.1-7.7,5.2s-4.5,4.3-6.3,6.8c-0.8,1.3-1.6,2.6-2.3,4.1c-0.7,1.4-1.4,3-2.3,4.4c-2,3-5,4.8-8,6.4l-2.3,1
		c-0.7,0.4-1.4,0.7-1.8,1.1c-0.3,0.2-0.5,0.5-0.5,0.5v-0.2c-0.1-0.1,0,0,0,0c0.3,0.2,1.1,0.5,1.9,0.7c3,0.6,6.2,0.7,9.4,0.9
		c3.2,0.1,6.4,0.2,9.6,0c3.2-0.1,6.5-0.2,9.6-0.3c3.2-0.1,6.4-0.5,9.6-1c12.7-1.8,25.3-4.9,37.2-9.4c12-4.6,23.6-10.7,33.7-18.5
		c10.3-7.7,19.2-17.2,26.4-28c-7,10.9-15.8,20.5-26.1,28.3c-10.2,7.9-21.7,14.2-33.7,19s-24.7,8-37.5,10c-3.2,0.4-6.4,0.8-9.6,1.1
		s-6.4,0.3-9.7,0.4c-3.2,0.1-6.5,0.2-9.7,0.1s-6.4-0.2-9.8-0.8c-0.8-0.2-1.7-0.4-2.6-1c-0.2-0.1-0.5-0.5-0.8-0.8
		c-0.2-0.5-0.1-1.1,0-1.5c0.3-0.8,0.8-1,1.2-1.4c0.7-0.6,1.5-1,2.3-1.3l2.2-1.1c2.8-1.5,5.4-3.3,6.9-5.7c0.8-1.3,1.4-2.7,2.2-4.2
		c0.7-1.5,1.4-3,2.3-4.4c1.8-2.9,4.2-5.3,6.7-7.5s5.3-4.2,8.2-5.7c2.9-1.6,6.2-2.6,9-3.7c1.5-0.5,2.8-1.1,4-2c0.6-0.4,1-0.8,1.4-1.4
		c0.1-0.2,0.4-0.6,0.5-0.8s0.4-0.6,0.6-0.9l4.5-8.7c1.7-2.9,3.5-5.5,5.2-8.3c2-2.6,3.9-5.2,6-7.8c4.5-4.8,9.3-9.5,14.8-13.1
		c5.5-3.7,11.6-6.7,18-8.5c1.6-0.5,3.2-0.7,4.8-1.2c1.6-0.3,3.3-0.5,4.9-0.8c1.7-0.1,3.3-0.3,4.9-0.3c1.7-0.1,3.3,0,5.2,0.2
		c1.1,0,1.9,1.2,1.8,2.3s-1.2,1.9-2.3,1.8l0,0L173.9,218z"/>
</g>
<g>
	<path class="st1" d="M188.8,237.9c-6.3,5-12.6,9.6-19.3,14c-6.5,4.4-13.4,8.5-20.2,12.3c-6.9,3.8-14,7.3-21.4,10.3
		c-7.3,3-14.9,5.4-22.5,7.3c7.6-2.2,14.9-4.9,22-8.2c7-3.4,14-7.1,20.8-11.2c6.7-4.1,13.2-8.5,19.5-13.1c6.4-4.6,12.5-9.5,18.4-14.6
		l0,0c0.8-0.8,2.2-0.7,2.9,0.2C189.7,235.9,189.8,237.1,188.8,237.9L188.8,237.9z"/>
</g>
<g>
	<path class="st1" d="M200.1,235.4c-0.6,4-1.2,8.1-1.6,12c-0.3,2-0.4,4-0.6,6.1c-0.1,2-0.3,4.1-0.4,6.1c-0.1,4-0.3,8.2-0.2,12.1
		c0.1,4,0.5,8,0.7,12c0.7,7.9,2.3,15.8,5,23.4c1.4,3.8,3,7.3,4.9,10.8c1.1,1.7,2.1,3.4,3.1,5.1l3.4,5.1c4.6,6.7,9.1,13.4,14,19.9
		s9.9,12.8,15.6,18.4c1.4,1.4,2.9,2.6,4.4,3.9c0.7,0.6,1.6,1.1,2.3,1.8l1.2,0.9c0.5,0.3,0.8,0.5,1.3,0.8c3.2,2.2,6.7,3.8,10.4,4.6
		c1.8,0.5,3.8,0.8,5.7,0.8c0.9,0.1,1.9,0.1,2.7-0.1c0.9-0.1,1.5-0.3,1.6-0.5c0,0-0.1,0.1,0,0s-0.1-0.4-0.2-0.8
		c-0.2-0.6-0.7-1.4-1.3-2.1c-1-1.5-2.4-2.8-3.9-4.1l-0.1-0.1c-0.2-0.1-0.4-0.4-0.5-0.8c-0.6-1.9-1.1-3.5-1.5-5.2s-0.7-3.3-0.9-5
		c-0.5-3.4-0.8-6.7-1.1-10.1c-0.3-6.7-0.2-13.5,0.4-20.2c0.1-1.7,0.3-3.4,0.5-5.1l0.6-5c0.3-3.3,0.8-6.5,1-9.8
		c0.3-3.3,0.2-6.5,0.2-9.8c-0.1-1.7-0.2-3.2-0.2-4.9c-0.1-1.7-0.2-3.2-0.5-4.9c-1.2-13-5.3-25.7-11.7-36.9
		c-3.1-5.7-7.1-10.9-11.9-15.5l-3.6-3.4l-4-3c-0.7-0.4-1.3-1-2-1.4l-2.1-1.3l-4.3-2.5c12.2,5.1,23.4,13.8,31,25.3
		c4,5.6,6.6,12,8.7,18.5l0.7,2.4c0.3,0.8,0.4,1.7,0.6,2.5c0.4,1.7,0.8,3.3,1.1,4.9l0.9,5c0.3,1.6,0.5,3.4,0.5,5.1
		c0.2,1.8,0.3,3.3,0.4,5s0.2,3.4,0.2,5c0,3.4,0,6.7-0.2,10.1c-0.1,3.3-0.6,6.8-0.9,10l-0.5,4.9c-0.2,1.6-0.3,3.3-0.5,4.9
		c-0.5,6.5-0.6,13.1-0.4,19.7c0.2,3.2,0.5,6.5,1,9.8c0.3,1.6,0.5,3.3,0.9,4.8c0.3,1.5,0.7,3.2,1.2,4.5l-0.6-0.9
		c1.6,1.5,3.2,3,4.5,4.8c0.7,0.9,1.3,1.8,1.8,3.1c0.2,0.6,0.5,1.3,0.5,2.3c-0.1,0.9-0.3,2.1-1.1,2.7c-0.6,0.7-1.5,1-2.1,1.3
		c-0.6,0.2-1.3,0.3-1.9,0.4c-1.3,0.2-2.4,0.1-3.5,0.1c-2.2-0.1-4.3-0.4-6.4-1c-4.2-1-8.2-2.7-11.7-5.1c-0.5-0.3-0.9-0.6-1.4-0.9
		l-1.2-0.9c-0.9-0.7-1.7-1.2-2.5-1.9c-1.6-1.3-3.2-2.7-4.7-4.2C235,363,229.7,356.6,225,350c-4.8-6.6-9.5-13.3-14-20.1l-3.4-5.1
		c-1.2-1.7-2.2-3.5-3.3-5.4c-2-3.7-3.8-7.4-5.2-11.3c-2.9-7.8-4.5-16.1-5.3-24.4c-0.3-2.1-0.3-4.1-0.3-6.2s0.2-4.1,0.2-6.2
		c0.2-4.1,0.6-8.2,1.2-12.3C196.2,251.2,198,243.2,200.1,235.4z"/>
</g>
<g>
	<path class="st1" d="M217.3,235.6c3.3,4.1,6,8.2,8.7,12.5s5.1,8.7,7.2,13.4c2.1,4.6,3.9,9.3,5.2,14.2s2,9.9,2,14.9
		c-0.2-5-1.3-10-2.9-14.7s-3.8-9.2-6.1-13.6c-2.5-4.3-5-8.6-8-12.6c-2.9-3.9-6.1-7.9-9.3-11.6l0,0c-0.8-0.8-0.8-2.1,0-2.9
		C214.9,234.4,216.4,234.7,217.3,235.6C217.2,235.5,217.2,235.5,217.3,235.6z"/>
</g>
<g>
	<path class="st1" d="M223.1,233c3.1,1.5,6,3.3,8.8,5.1c2.8,2,5.5,4,8,6.2c2.4,2.4,4.8,4.8,6.6,7.6s3.3,5.8,4,9.1
		c-1.1-3.1-2.7-6-4.9-8.5c-2.2-2.5-4.5-4.7-7.2-6.7s-5.4-3.6-8.3-5.2c-2.8-1.5-5.8-2.9-8.8-3.9l0,0c-1.1-0.4-1.6-1.5-1.3-2.6
		c0.4-1.1,1.5-1.6,2.6-1.3C222.9,233.1,223.1,233,223.1,233z"/>
</g>
<g>
	<path class="st1" d="M231.3,200.8c1-3.1,2.6-6.2,4.4-9c0.9-1.4,1.8-2.8,2.9-4l1.6-1.9l1.7-1.9c4.6-4.9,10.3-9,16.2-12.2
		c1.6-0.6,3.1-1.3,4.7-2.1c1.6-0.6,3.1-1.1,4.8-1.7c3.2-1.2,6.5-1.8,9.9-2.5c1.6-0.5,3.3-0.5,5-0.7l5-0.6c3.4-0.2,6.7-0.3,10.1-0.5
		l-0.8,0.2c5.6-2.4,11.2-4.8,17-7s11.9-3.9,18.1-4.7s12.5-0.9,18.7-0.2c3.2,0.4,6.3,0.9,9.4,1.9c1.5,0.5,3,1.1,4.7,2.1
		c0.8,0.5,1.6,1.1,2.3,2.1c0.7,0.9,1.2,2.4,0.9,3.7v-0.5c0,0.8-0.2,1.6-0.5,2.3s-0.7,1.2-1.1,1.6c-0.8,0.8-1.5,1.3-2.4,1.9
		c-1.6,1-3.2,1.7-4.8,2.4c-3.2,1.4-6.3,2.5-9.4,3.8s-6.1,2.5-9,4.1c-0.7,0.4-1.3,0.8-2,1.2c-0.6,0.4-1.2,0.9-1.9,1.4
		c-1.3,1-2.4,2-3.6,3.3c-4.7,4.7-9.3,9.6-14.3,14.3c-4.9,4.7-9.9,9.2-15.5,13.4c-5.4,4.1-11.2,7.9-17.3,11.1s-12.6,5.5-19.3,7.2
		c-13.5,2.7-27.6,1.8-40.4-2.1l4.9,0.7c1.6,0.2,3.4,0.3,5,0.4c1.6,0.2,3.3,0.1,5.1,0.3c1.7,0.1,3.3,0,5-0.1
		c6.6-0.2,13.2-1.5,19.4-3.4c6.3-1.5,12.6-3.9,18.4-6.9s11.4-6.7,16.7-10.6c5.3-4,10.2-8.4,15.1-13s9.4-9.5,14.3-14.3
		c1.2-1.2,2.5-2.4,3.8-3.5c0.7-0.6,1.5-1,2.2-1.7c0.8-0.5,1.6-1,2.3-1.3c3-1.7,6.3-3,9.4-4.3s6.3-2.4,9.2-3.8c1.6-0.6,3-1.4,4.2-2.1
		c0.6-0.4,1.2-0.9,1.6-1.3c0.1-0.2,0.4-0.4,0.4-0.6c0.1-0.1,0.1-0.1,0.1-0.1l0,0v-0.5c0.1-0.1,0-0.2-0.2-0.6c-0.3-0.3-0.7-0.7-1.1-1
		c-1-0.7-2.4-1.2-3.7-1.7c-2.7-0.9-5.6-1.4-8.6-1.7c-5.9-0.7-11.9-0.5-17.7,0.2c-5.8,0.7-11.6,2.3-17.3,4.4
		c-5.6,2.2-11.2,4.6-16.8,7c-0.2,0-0.5,0.2-0.8,0.2l-0.1-0.1c-3.2,0.1-6.5,0.3-9.7,0.4l-4.8,0.6c-1.6,0.3-3.2,0.2-4.7,0.8
		c-3.1,0.8-6.3,1.2-9.3,2.4l-2.2,0.7c-0.8,0.2-1.6,0.5-2.3,0.8c-1.4,0.7-2.9,1.3-4.5,1.9c-5.8,2.5-11.5,5.8-16.3,10.1
		C238.6,189.8,234.2,194.9,231.3,200.8z"/>
</g>
<g>
	<path class="st1" d="M233.1,199.7c4.7-3.7,9.6-7.1,14.8-9.9c5.3-2.7,11-4.8,16.8-5.9c5.7-1.1,11.8-1.2,17.5-0.8
		c2.9,0,5.9,0.3,8.6,0.1c1.4-0.1,2.9-0.5,4.2-0.9c1.4-0.6,2.6-1.5,3.4-2.6c-0.9,1.2-2,2.2-3.4,2.8c-1.4,0.6-2.8,1-4.2,1.2
		c-2.9,0.5-5.8,0.4-8.8,0.5c-5.8,0.1-11.6,0.5-17.2,1.9s-10.8,3.6-15.7,6.5c-4.9,2.9-9.4,6.4-13.6,10.3c-0.8,0.8-2.1,0.8-2.9,0
		C231.8,202,232.2,200.6,233.1,199.7C233,199.9,233.1,199.7,233.1,199.7z"/>
</g>
<g>
	<path class="st1" d="M231.7,218.2c5.3,0.6,10.9,0.8,16.4,0.6c5.5-0.1,11-0.7,16.4-1.7s10.8-2.6,15.9-4.8c5.1-2.1,9.9-5.1,14.1-8.7
		c-4,3.8-8.7,7.1-13.7,9.6c-5.1,2.5-10.4,4.3-15.9,5.8c-5.5,1.2-11.1,2.3-16.8,2.8c-5.7,0.5-11.2,0.7-17,0.3c-1.1,0-1.9-1.1-1.9-2.2
		s1.1-1.9,2.2-1.9C231.6,218.2,231.6,218.2,231.7,218.2L231.7,218.2z"/>
</g>
<path class="st2" d="M264.5,271.6c0,0,13.4,8.2,41.1,2.8c12.5-2.5,21.4-8.1,37.4-5.8c60.1,8.7,67.9,33.2,64.8,41
	c0,0-2.4,4.5-8.6-1.4s7.7,15.6,14.8-0.4c7.2-16-36.4-80.1-64.3-92.7c-20.1-9.2-41.2-10.7-41.2-10.7"/>
<g>
	<path class="st1" d="M239.7,234.9c5.8,3.5,11.7,6.4,17.9,8.9c5.8,3,12.1,5.2,18.3,6.1c0.7,0.1,1.5,0.2,2.3,0.2l2.3,0.2l2.4-0.1
		l1.2-0.1c0.4-0.1,0.7-0.1,1.1-0.1c2.7-0.7,5.6-2.4,8.3-4.1c2.8-1.8,5.7-3.6,8.8-5.2c3.1-1.6,6.7-2.6,10.3-2.9
		c7.1-0.7,14,0.5,20.5,2.4c6.6,1.9,12.8,4.5,18.9,7.5s11.9,6.4,17.6,10.1c2.6,2.1,5.3,4.3,7.7,6.7c2.4,2.4,4.8,4.8,6.8,7.6
		c-2.6-2.1-5.3-4-8.3-5.7c-2.8-1.8-5.7-3.4-8.6-5c-5.5-3.7-11.3-7-17.1-9.8c-6-3-12-5.5-18.2-7.3s-12.7-2.8-19-2.2
		c-3.1,0.3-6.1,1.1-8.9,2.5c-2.8,1.3-5.6,3.2-8.5,4.9c-2.9,1.8-5.8,3.7-9.6,4.5c-0.5,0-1,0.2-1.4,0.2l-1.4,0.1l-2.7,0.1l-2.6-0.2
		c-0.9-0.1-1.7-0.1-2.6-0.2c-6.9-0.9-13.5-3.3-19.6-6.4C249.9,243.9,244.4,239.6,239.7,234.9z"/>
</g>
<g>
	<path class="st1" d="M268.2,248.4c3.5-1.4,7-3.1,10.4-4.8c3.4-1.8,6.8-3.7,10-5.9c6.3-4.3,12.4-9.3,16.6-15.9
		c-1.8,3.4-4.2,6.6-6.7,9.6c-2.6,2.9-5.6,5.6-8.7,8s-6.3,4.8-9.6,7c-3.3,2.1-6.7,4.1-10.3,6c-1,0.5-2.3,0.2-2.8-1
		c-0.5-1-0.2-2.3,1-2.8C268,248.4,268,248.4,268.2,248.4L268.2,248.4z"/>
</g>
<g>
	<path class="st1" d="M335.5,226.5c-1.2,0.4-2.5,0.9-3.7,1.2c-1.2,0.4-2.5,0.9-3.7,1.2c-2.4,0.9-4.8,1.9-7.1,3
		c-2.2,1.2-4.5,2.4-6.3,3.8c-0.9,0.7-1.8,1.6-2.5,2.5c-0.4,0.4-0.7,0.9-1,1.3c-0.1,0.2-0.3,0.5-0.4,0.6s-0.2,0.5-0.1,0.4l-1.3,1.5
		c-1.3,0.5-2.7,0.9-4,1.4l-0.3-3.9c4.2,0.9,8.3,1.8,12.4,3.1c4.2,1.2,8.1,2.7,12,4.3c4,1.7,7.7,3.8,11.3,6.2
		c3.5,2.4,6.9,5.3,8.9,9.1c-3-3-6.5-5.2-10.2-7.1s-7.5-3.4-11.4-4.7c-3.8-1.4-7.8-2.6-11.8-3.7s-8.1-2.2-12-3l0,0
		c-1.2-0.2-1.8-1.3-1.5-2.4c0.1-0.7,0.6-1.2,1.3-1.5c1.4-0.4,2.7-0.9,4.1-1.3l-1.3,1.5c0.1-0.7,0.3-1,0.5-1.3s0.4-0.7,0.7-1
		c0.4-0.7,0.9-1.2,1.4-1.7s1-1,1.6-1.5c0.5-0.5,1.1-0.9,1.7-1.2c2.3-1.5,4.8-2.7,7.3-3.5c1.2-0.4,2.5-0.9,3.8-1.2
		c1.3-0.3,2.5-0.7,3.8-0.9C330.4,227,333,226.7,335.5,226.5z"/>
</g>
<g>
	<path class="st1" d="M287.3,249.2c3.4,0.5,6.6,1.2,9.8,2.1c3.3,0.8,6.4,1.8,9.6,2.9c3,1.1,6.1,2.4,9,4.1s5.7,3.6,7.6,6.3
		c-2.2-2.4-5.1-4-8-5.4c-2.9-1.3-6.1-2.2-9.2-3s-6.3-1.4-9.5-1.8s-6.5-0.8-9.6-1l0,0c-1.1,0-1.9-1.1-1.9-2.2
		C285.1,250.1,286.1,249.2,287.3,249.2C287.1,249.2,287.3,249.2,287.3,249.2z"/>
</g>
<path class="st3" d="M269.9,169.5"/>
<g>
	<path class="st1" d="M219,250.1L219,250.1z"/>
	<path class="st1" d="M218.5,249.9L218.5,249.9z"/>
	<path class="st1" d="M200.1,302.7c-3.5,9.6-4,9.4-9.1,18.4c-5.1,8.9-10.8,17.4-17.1,25.5c-3.2,4-6.5,7.9-10,11.7
		c-3.4,3.7-7.1,7.5-11,10.8c-7.8,6.7-16.4,12.5-25.5,17.2c-4.5,2.3-9.3,4.5-14.2,6.2c-2.5,0.9-4.9,1.6-7.5,2.2
		c-2.6,0.5-5.1,1-7.6,1.3c-10.3,1.1-20.5,0.7-30.4,2.6l0,0c-0.4,0.1-0.8-0.2-0.9-0.5c-0.1-0.4,0.1-0.6,0.4-0.7
		c3.6-2.1,7-4.3,10.3-6.8c1.7-1.3,3.2-2.5,4.6-4s2.9-3.1,3.5-5c-0.6,2-1.8,3.7-3.2,5.3c-1.4,1.6-2.8,3-4.5,4.4
		c-3.2,2.8-6.5,5.1-10,7.4l-0.5-1.4c5-1.3,10.2-2,15.2-2.1c5.1-0.3,10.2-0.4,15.2-1c2.5-0.3,5-0.7,7.4-1.2c2.5-0.6,4.9-1.4,7.2-2.2
		c4.8-1.6,9.4-3.7,13.9-6.1c8.9-4.6,17.4-10.4,25.2-17c3.8-3.3,7.4-6.9,10.9-10.6c3.4-3.7,6.7-7.6,9.9-11.5c6.3-8,12-16.4,17-25.2
		c5-8.8,5.5-8.5,9-18L200.1,302.7z"/>
</g>
<path class="st3" d="M107.9,388.3"/>
<g>
	<path class="st1" d="M100.9,303.6c-5.1,8.3-7.9,16.3-10.4,25.7c-2.5,9.4-4,19.1-4.8,28.9C85,368.2,85,378,86,387.7
		c-1.1-9.7-1.3-19.5-0.7-29.4c0.6-9.7,2-19.6,4.4-29c2.3-9.1,5-16.9,9.6-25.1L100.9,303.6z"/>
</g>
<g>
	<path class="st1" d="M197.3,271.8c-4.1,2.2-6.2,2.6-10.1,5.1c-2,1.3-3.9,2.6-5.6,3.9c-0.9,0.7-1.9,1.2-2.9,1.9l-2.8,1.9
		c-3.7,2.7-7.2,5.6-10.2,9l-1.1,1.3c-0.4,0.4-0.7,0.9-1,1.3c-0.7,0.9-1.4,1.7-2,2.7c-0.7,0.9-1.2,1.9-1.9,2.8
		c-0.6,1-1.2,1.9-1.7,2.9c-1.2,1.9-2.2,4-3.2,6.1s-2.3,4.4-4.1,6.1c-3.7,3.5-8.1,5.4-12.1,7.5s-7.8,4.5-11.2,7.5
		c-1.7,1.5-3.3,3-4.7,4.7c-0.7,0.8-1.4,1.7-2.1,2.6c-0.7,0.9-1.2,1.9-1.7,2.8l0.2-0.5c-0.8,4.5-1.8,8.9-3,13.4
		c-1.2,4.3-2.8,8.7-4.6,12.9c-0.4,1-0.9,2.1-1.4,3.1l-0.7,1.6c-0.3,0.5-0.6,1-0.9,1.5c-1.3,2-2.5,3.9-4,5.7
		c-1.4,1.8-2.9,3.5-4.6,5.1c-1.7,1.6-3.5,3-5.3,4.2c3.3-3,6.1-6.7,8.2-10.5c1.2-1.9,2.1-3.9,3-5.9c0.5-1,1-2,1.5-3s1-2,1.4-3
		c1.7-4,3.2-8.3,4.4-12.5c1.2-4.3,2.2-8.7,3-13v-0.1c0-0.1,0.1-0.3,0.1-0.4c1.2-2.3,2.6-4.1,4.2-6c1.5-1.8,3.2-3.5,5-5
		c3.5-3.1,7.6-5.8,11.8-7.9c1.1-0.6,2.1-1,3.1-1.6c1-0.5,2-1.1,2.9-1.6c1.9-1.1,3.9-2.3,5.3-3.8c1.5-1.5,2.5-3.3,3.6-5.4
		c1-2.1,2.1-4.1,3.3-6.2c0.6-1.1,1.2-2,1.8-3.1s1.3-2,2-2.9c0.6-1,1.4-1.9,2.1-2.8c0.4-0.5,0.7-1,1.1-1.4l1.3-1.3
		c3.2-3.5,6.9-6.6,10.7-9.3c1.9-1.3,3.8-2.7,5.8-4c2-1.2,4.1-2.2,6.2-3.2C190.4,273.1,192.9,273.3,197.3,271.8z"/>
</g>
<g>
	<path class="st1" d="M118.4,342.1l-20.6,25.1l18.1-26.9c0.5-0.7,1.4-0.9,2.1-0.4C118.8,340.4,119,341.3,118.4,342.1
		C118.5,342,118.4,342.1,118.4,342.1z"/>
</g>
<g>
	<path class="st1" d="M155.1,308.9c0.5,2.4,0.7,4.7,0.7,7.1c0.1,2.4-0.1,4.7-0.3,7c-0.5,4.7-1.7,9.3-3.6,13.6s-4.3,8.3-7.4,11.9
		s-6.6,6.6-10.3,9.2c3.6-2.8,7-6,9.8-9.7s4.9-7.6,6.6-11.9c1.5-4.2,2.4-8.7,2.7-13.2c0.1-2.2,0.1-4.6-0.1-6.8s-0.5-4.5-1-6.6v-0.1
		c-0.2-0.8,0.3-1.6,1.1-1.8C154,307.6,154.9,308.1,155.1,308.9C155,308.9,155.1,308.9,155.1,308.9z"/>
</g>
<g>
	<path class="st1" d="M166.1,292.3c-2,0-4.1,0.1-6.3,0.4c-2.1,0.3-4.2,0.7-6.3,1.3c-4.1,1-8.2,2.5-12.1,4.2
		c-7.9,3.5-15.1,8.4-21.4,14.2c-6.5,5.8-12,12.5-16.9,19.7c-4.8,7.1-9.1,14.9-12.6,22.8c3.4-8,7.3-15.8,12-23.2
		c4.7-7.3,10.1-14.2,16.5-20.4c6.4-6,13.6-11.2,21.5-15.2c3.9-1.9,8.1-3.6,12.4-4.7c2.1-0.6,4.3-1.2,6.5-1.5
		c2.2-0.4,4.4-0.6,6.8-0.6c0.9,0,1.5,0.7,1.5,1.5C167.7,291.7,167.1,292.3,166.1,292.3C166.2,292.3,166.2,292.3,166.1,292.3
		L166.1,292.3z"/>
</g>
<g>
	<path class="st1" d="M219.4,226.6c-2.3-2.6-3.7-5.5-4.7-8.5c-1.2-3-1.8-6.2-2.1-9.3c-0.2-1.6-0.3-3.1-0.3-4.7s0.2-3.1,0.2-4.7
		c0.2-1.5,0.5-3.1,0.7-4.6c0.3-1.6,0.8-3.1,1.1-4.5c-0.3,1.6-0.6,3-0.8,4.7c-0.2,1.5-0.4,3.2-0.3,4.7c0,1.6-0.2,3.1,0,4.7
		c0,1.5,0.3,3.1,0.5,4.7c0.5,3.1,1.4,6.1,2.5,8.9c1.2,2.7,2.8,5.6,4.8,7.6l0.1,0.1c0.4,0.4,0.3,1-0.1,1.4
		C220.6,227,219.8,227,219.4,226.6L219.4,226.6z"/>
</g>
<g>
	<path class="st1" d="M220.8,224.1c-1.1-3-1.7-5.8-2.3-8.8c-0.6-3-0.8-5.9-1-9c-0.1-3-0.1-6.1,0.3-9c0.2-2.9,1-5.9,1.6-8.8
		c-0.5,2.9-1,5.9-1,8.8c-0.2,2.9,0,6,0.3,8.8c0.3,2.9,0.7,5.8,1.5,8.8c0.6,2.9,1.6,5.7,2.6,8.3l0,0c0.2,0.5,0,1.1-0.5,1.3
		C221.8,224.9,221,224.5,220.8,224.1L220.8,224.1z"/>
</g>
<g>
	<path class="st1" d="M222.1,218.2c-2.7-2.4-5-5-6.9-7.9c-1.9-3-3.3-6.2-4.2-9.5c-1-3.4-1.4-6.8-1.2-10.2c-0.1-1.7,0.3-3.4,0.5-5.1
		c0.2-1.6,0.8-3.3,1.2-5c-0.2,1.6-0.8,3.3-0.9,5s-0.3,3.4-0.3,5.1c0,3.4,0.6,6.8,1.7,9.9s2.6,6.2,4.5,8.9c1.9,2.7,4.3,5.1,6.8,7.1
		l0.1,0.1c0.5,0.3,0.5,1,0.2,1.4C223.2,218.4,222.7,218.6,222.1,218.2L222.1,218.2z"/>
</g>
<g>
	<path class="st1" d="M222.4,214.6c-1.1-1.8-1.5-3.7-2-5.6s-0.5-3.9-0.3-5.7c0.1-1.9,0.4-3.8,0.9-5.6c0.2-0.8,0.5-1.8,0.8-2.8
		c0.4-0.9,0.6-1.7,1-2.6c-0.3,1-0.5,1.8-0.8,2.8c-0.2,0.8-0.5,1.8-0.6,2.7c-0.3,1.8-0.4,3.7-0.4,5.5c0.1,1.9,0.3,3.6,0.8,5.4
		s1.2,3.5,2.2,4.8l0.1,0.1c0.3,0.5,0.3,1.1-0.3,1.5C223.4,215.3,222.8,215.2,222.4,214.6C222.5,214.7,222.4,214.6,222.4,214.6z"/>
</g>
<g>
	<path class="st1" d="M214.8,225.6c-1.4-1.9-3-3.7-4.6-5.5c-1.7-1.7-3.6-3.4-5.4-4.9c-1.9-1.6-3.9-2.9-6-4.3s-4.4-2.3-6.5-3.3
		c2.3,0.8,4.7,1.6,6.8,2.9c2.2,1.1,4.3,2.4,6.4,3.9c2,1.4,4,3,5.8,4.7c1.9,1.7,3.6,3.4,5.3,5.3c0.4,0.4,0.3,1-0.1,1.4
		C215.8,226.3,215.2,226.2,214.8,225.6C214.8,225.8,214.8,225.8,214.8,225.6L214.8,225.6z"/>
</g>
<g>
	<path class="st1" d="M210.2,224.9c0,0,0-0.2-0.2-0.3c0-0.2-0.2-0.3-0.3-0.5c-0.3-0.3-0.4-0.6-0.8-0.8c-0.6-0.6-1.3-1-1.9-1.6
		c-1.4-0.9-3.1-1.6-4.7-2.3c-1.5-0.7-3.3-1.3-5-1.7c-1.6-0.5-3.5-0.9-5.2-1.3c1.8,0.3,3.5,0.4,5.3,0.9c1.8,0.3,3.5,0.7,5.3,1.2
		c1.7,0.6,3.4,1.1,5.1,1.9c0.8,0.5,1.6,0.8,2.3,1.5c0.3,0.2,0.7,0.6,1.1,1c0.2,0.1,0.4,0.4,0.4,0.6c0.2,0.3,0.3,0.3,0.5,0.8
		c0.1,0.6-0.2,1.2-0.8,1.3C210.9,225.8,210.3,225.4,210.2,224.9z"/>
</g>
<g>
	<path class="st1" d="M209.1,220.1c-2.2-1.4-4.6-2.8-6.9-4c-2.4-1.4-4.8-2.5-7.1-3.7c-2.4-1.1-4.9-2.3-7.5-3.1
		c-2.5-0.9-5.2-1.6-7.8-2.1c2.8,0.3,5.3,0.9,8,1.6s5.2,1.6,7.7,2.8c2.5,0.9,5.1,2.1,7.5,3.3c2.5,1.2,4.8,2.4,7.3,3.6
		c0.5,0.3,0.7,0.9,0.4,1.4C210.4,220.2,209.6,220.4,209.1,220.1L209.1,220.1L209.1,220.1z"/>
</g>
<g>
	<path class="st1" d="M214.2,228.7c0-0.2-0.5-0.8-0.8-1c-0.4-0.4-0.9-0.7-1.3-1.1c-0.9-0.7-1.9-1.2-2.9-1.7c-2-0.9-4.4-1.6-6.6-2.2
		c-2.3-0.5-4.6-1-6.9-1.3s-4.6-0.5-6.9-0.6c2.3,0,4.7,0,7,0.2s4.7,0.3,7.1,0.7c2.3,0.5,4.6,1,6.9,1.7c1.2,0.4,2.2,0.9,3.2,1.6
		c0.6,0.4,1,0.7,1.6,1.1c0.2,0.1,0.5,0.5,0.7,0.6c0.3,0.3,0.5,0.5,0.7,0.9c0.3,0.5,0.1,1.2-0.4,1.4
		C215.1,229.5,214.5,229.2,214.2,228.7C214.3,228.7,214.3,228.7,214.2,228.7L214.2,228.7z"/>
</g>
<path class="st0" d="M203.3,210.8"/>
<path class="st0" d="M174.2,197.8"/>
<g>
	<path class="st1" d="M214.6,199.3c-1.3-2-2.6-3.9-3.5-6c-1-2.1-1.9-4.3-2.6-6.4c-0.7-2.2-1.1-4.4-1.3-6.7c-0.2-2.3,0-4.6,0.4-6.9
		c-0.3,2.3-0.3,4.6,0,6.7c0.4,2.2,1,4.4,1.8,6.5s1.8,4.1,2.9,5.9s2.3,3.8,3.7,5.5l0,0c0.4,0.4,0.3,1.1-0.1,1.4
		S215,199.8,214.6,199.3L214.6,199.3z"/>
</g>
<path class="st0" d="M200.4,207.4"/>
<g>
	<path class="st1" d="M198.5,216.5c-0.9-0.6-2.1-1.1-3.2-1.7c-1.1-0.5-2.2-0.9-3.5-1.2c-2.3-0.7-4.8-0.9-7.3-0.9
		c2.4-0.4,5.1-0.5,7.6-0.1c1.2,0.1,2.5,0.4,3.8,0.8c1.3,0.3,2.5,0.7,3.7,1.4c0.5,0.3,0.7,0.9,0.4,1.4
		C199.8,216.6,199.1,216.9,198.5,216.5C198.7,216.6,198.7,216.6,198.5,216.5L198.5,216.5z"/>
</g>
<g>
	<path class="st1" d="M202.4,210.4c-2.1-1.1-4.1-2.3-6.2-3.3s-4.3-2-6.5-2.9c-4.4-1.8-8.8-3.3-13.6-3.8c4.7,0.2,9.4,1.4,14,2.8
		c2.3,0.8,4.5,1.6,6.8,2.5s4.4,1.8,6.6,2.9c0.5,0.3,0.7,0.9,0.4,1.4C203.7,210.5,203,210.7,202.4,210.4
		C202.6,210.4,202.5,210.5,202.4,210.4L202.4,210.4z"/>
</g>
<path class="st3" d="M243.8,183.6"/>
<path class="st4" d="M173.1,192.1c-0.9-0.1-1.5-3.7-1.3-6.9c0.2-3.4,1.7-7.1,2.5-7.1c0.9,0.1,1.2,3.7,1.1,6.1
	C175.3,188,174.2,192.1,173.1,192.1z"/>
<path class="st4" d="M214.1,175.1c-0.3,0.8-4,0.2-6.9-1.1c-3.1-1.5-6.1-4-5.7-4.9c0.3-0.8,3.8,0.1,6.1,1.1
	C211,171.7,214.5,174.3,214.1,175.1z"/>
<path class="st4" d="M215.2,193.3c-0.8-0.2-1.2-3-0.6-5.5c0.5-2.6,2.3-5.2,3.2-5c0.8,0.2,0.9,3,0.5,4.9
	C217.6,190.4,216,193.5,215.2,193.3z"/>
<path class="st4" d="M180.2,213.8c-0.5-0.8,1.7-2.9,3.7-4c2.4-1.2,5.5-1.5,5.9-0.8s-1.7,2.5-3.4,3.6
	C183.9,213.9,180.6,214.6,180.2,213.8z"/>
<path class="st4" d="M193.9,168.4c-0.9,0.4-1.2,1.7-0.6,2.5c0.6,0.7,1.6,0.8,2.3,0.2s0.7-1.9,0.1-2.4
	C195.2,168.2,194.4,168.1,193.9,168.4z"/>
<path class="st4" d="M180.1,166.5c-0.9,0.4-1.2,1.7-0.6,2.5c0.6,0.7,1.6,0.8,2.3,0.2c0.7-0.7,0.7-1.9,0.1-2.4
	C181.4,166.3,180.6,166.2,180.1,166.5z"/>
<path class="st4" d="M179.2,171.8c-0.9,0.4-1.2,1.7-0.6,2.5c0.6,0.7,1.6,0.8,2.3,0.2c0.7-0.7,0.7-1.9,0.1-2.4
	C180.6,171.7,179.8,171.7,179.2,171.8z"/>
<path class="st4" d="M187.1,174.5c-0.9,0.4-1.2,1.7-0.6,2.5c0.6,0.7,1.6,0.8,2.3,0.2c0.7-0.7,0.7-1.9,0.1-2.4
	C188.5,174.4,187.7,174.3,187.1,174.5z"/>
<path class="st4" d="M199.8,173.8c-0.9,0.4-1.2,1.7-0.6,2.5c0.6,0.7,1.6,0.8,2.3,0.2c0.7-0.7,0.7-1.9,0.1-2.4
	C201.2,173.7,200.5,173.5,199.8,173.8z"/>
<path class="st4" d="M216.4,166.6c-0.9,0.4-1.2,1.7-0.6,2.5c0.6,0.7,1.6,0.8,2.3,0.2c0.7-0.7,0.7-1.9,0.1-2.4
	C217.6,166.5,216.8,166.4,216.4,166.6z"/>
<path class="st4" d="M166,175.4c-0.9,0.4-1.2,1.7-0.6,2.5c0.6,0.7,1.6,0.8,2.3,0.2c0.7-0.7,0.7-1.9,0.1-2.4
	C167.4,175.3,166.7,175.1,166,175.4z"/>
<path class="st4" d="M169.5,196.9c-0.9,0.4-1.2,1.7-0.6,2.5c0.6,0.7,1.6,0.8,2.3,0.2c0.7-0.7,0.7-1.9,0.1-2.4
	C170.9,196.7,170.2,196.6,169.5,196.9z"/>
<path class="st4" d="M177.1,194c-0.9,0.4-1.2,1.7-0.6,2.5c0.6,0.7,1.6,0.8,2.3,0.2c0.7-0.7,0.7-1.9,0.1-2.4
	C178.3,193.8,177.6,193.6,177.1,194z"/>
<path class="st4" d="M172.8,203c-0.9,0.4-1.2,1.7-0.6,2.5c0.6,0.7,1.6,0.8,2.3,0.2c0.7-0.7,0.7-1.9,0.1-2.4
	C174.1,202.8,173.4,202.7,172.8,203z"/>
<path class="st4" d="M180.1,201.4c-0.9,0.4-1.2,1.7-0.6,2.5c0.6,0.7,1.6,0.8,2.3,0.2c0.7-0.7,0.7-1.9,0.1-2.4
	C181.3,201.2,180.6,201.1,180.1,201.4z"/>
<path class="st4" d="M181.3,218.5c-0.9,0.4-1.2,1.7-0.6,2.5c0.6,0.7,1.6,0.8,2.3,0.2c0.7-0.7,0.7-1.9,0.1-2.4
	C182.6,218.3,181.8,218.3,181.3,218.5z"/>
<path class="st4" d="M188.9,214.2c-0.9,0.4-1.2,1.7-0.6,2.5c0.6,0.7,1.6,0.8,2.3,0.2c0.7-0.7,0.7-1.9,0.1-2.4
	C190.2,214,189.5,213.9,188.9,214.2z"/>
<path class="st4" d="M194.2,224.9c-0.9,0.4-1.2,1.7-0.6,2.5c0.6,0.7,1.6,0.8,2.3,0.2c0.7-0.7,0.7-1.9,0.1-2.4
	C195.5,224.7,194.8,224.5,194.2,224.9z"/>
<path class="st4" d="M221.8,183.1c-0.9,0.4-1.2,1.7-0.6,2.5c0.6,0.7,1.6,0.8,2.3,0.2c0.7-0.7,0.7-1.9,0.1-2.4
	C223.2,183,222.4,182.9,221.8,183.1z"/>
<path class="st4" d="M211.4,178.6c-0.9,0.4-1.2,1.7-0.6,2.5c0.6,0.7,1.6,0.8,2.3,0.2s0.7-1.9,0.1-2.4
	C212.7,178.5,211.9,178.3,211.4,178.6z"/>
<path class="st4" d="M217.7,174.1c-0.9,0.4-1.2,1.7-0.6,2.5c0.6,0.7,1.6,0.8,2.3,0.2c0.7-0.7,0.7-1.9,0.1-2.4
	C218.9,174,218.2,173.8,217.7,174.1z"/>
<path class="st4" d="M158.4,186.9c-0.9,0.4-1.2,1.7-0.6,2.5c0.6,0.7,1.6,0.8,2.3,0.2c0.7-0.7,0.7-1.9,0.1-2.4
	C159.8,186.8,159,186.7,158.4,186.9z"/>
<path class="st4" d="M223.7,197.4c-0.9,0.4-1.2,1.7-0.6,2.5c0.6,0.7,1.6,0.8,2.3,0.2s0.7-1.9,0.1-2.4
	C225.1,197.2,224.3,197.1,223.7,197.4z"/>
<path class="st4" d="M197,207.1c-0.9,0.4-1.2,1.7-0.6,2.5c0.6,0.7,1.6,0.8,2.3,0.2c0.7-0.7,0.7-1.9,0.1-2.4
	C198.4,206.9,197.7,206.8,197,207.1z"/>
<path class="st4" d="M208.7,195c-0.9,0.4-1.2,1.7-0.6,2.5c0.6,0.7,1.6,0.8,2.3,0.2c0.7-0.7,0.7-1.9,0.1-2.4
	C210.1,194.9,209.3,194.8,208.7,195z"/>
<path class="st4" d="M213.3,201.4c-0.9,0.4-1.2,1.7-0.6,2.5c0.6,0.7,1.6,0.8,2.3,0.2c0.7-0.7,0.7-1.9,0.1-2.4
	C214.6,201.2,213.8,201.1,213.3,201.4z"/>
<path class="st4" d="M185.1,220.5c-0.9,0.4-1.2,1.7-0.6,2.5c0.6,0.7,1.6,0.8,2.3,0.2c0.7-0.7,0.7-1.9,0.1-2.4
	C186.4,220.4,185.7,220.3,185.1,220.5z"/>
<path class="st4" d="M193.6,175.9c-0.9,0.4-1.2,1.7-0.6,2.5c0.6,0.7,1.6,0.8,2.3,0.2c0.7-0.7,0.7-1.9,0.1-2.4
	C195,175.8,194.2,175.6,193.6,175.9z"/>
</svg>
