<!-- Generator: Adobe Illustrator 25.2.1, SVG Export Plug-In . SVG Version: 6.00 Build 0)  -->
<svg version="1.1" id="Layer_1" xmlns="http://www.w3.org/2000/svg" xmlns:xlink="http://www.w3.org/1999/xlink" x="0px" y="0px"
	 viewBox="0 0 476 460" style="enable-background:new 0 0 476 460;" xml:space="preserve">
<style type="text/css">
	.stleaf{fill:#A17E01;}
</style>
<g>
	<path class="stleaf" d="M196.5,155.6c0.4,2,0.9,4,1.7,6.1l0.5,1.5c0,0.1,0,0.1,0.1,0.2l0.3,0.6l0,0c0,0.1,0,0.2,0,0.3
		c0.1,0.2,0.2,0.4,0.4,0.5c0,0,0,0,0,0c0.2,0.2,0.5,0.2,0.7,0.2c0.6,0,1.3-0.4,1.3-0.4c0.4-0.3,0.5-0.8,0.3-1.2
		c0-0.1-0.1-0.2-0.2-0.3l-0.5-2.3c-0.4-2-0.7-4-0.9-6c-0.3-3.4-0.7-7.5-0.7-11.9c0-4.7,0.3-8.3,0.9-11.8c0.6-3.1,1.4-7.2,3.1-11.1
		c0.2-0.6,0.6-1.2,0.9-1.9c0.6-1.2,1.3-2.6,1.6-3.9c0.8-2.2,1.3-4.6,1.4-6.8c0-0.9,0-1.7,0.1-2.6c0-1.2,0-2.3,0.1-3.4
		c0.2-1.6,0.6-3.3,1.3-5.3c0.7-1.8,1.6-3.5,2.5-5.4c0.9-1.8,1.9-3.7,2.6-5.7c0.8-2.1,1.3-4.4,1.3-6.7c0-2.1-0.3-4.2-0.8-6.4
		c-0.1-0.5-0.6-0.8-1.1-0.8c-0.5,0.1-0.9,0.5-0.9,1c0,2.3-0.1,4.2-0.4,5.9c-0.3,1.7-0.9,3.5-1.8,5.2c-0.8,1.5-1.8,3.2-3.1,5.1
		c-1,1.7-2.1,3.6-3.1,5.7c-0.8,1.8-1.8,4-2.1,6.4c-0.3,1.4-0.3,2.8-0.4,4.1c0,0.8-0.1,1.5-0.1,2.2c-0.1,2-0.7,3.9-1.1,5.2
		c-0.4,1.2-1,2.2-1.5,3.4c-0.3,0.7-0.6,1.3-1,2.1c-3.2,7.5-4.5,16.3-3.7,25.5C194.8,147.2,195.4,151.1,196.5,155.6z"/>
	<path class="stleaf" d="M187.6,233.2c-0.8-0.1-1.7,0.3-2.2,0.8c-6.3,5.5-12.3,10.2-18.3,14.5c-6.5,4.8-13.1,9.2-19.4,13.1
		c-6.3,3.8-13.1,7.4-20.7,11.1c-7,3.2-14.1,5.9-21.9,8.1c-0.5,0.2-0.8,0.7-0.7,1.2c0.1,0.4,0.5,0.7,1,0.7c0.1,0,0.2,0,0.2,0
		c8.1-2,15.7-4.5,22.6-7.3c6.9-2.8,14-6.2,21.5-10.4c7.9-4.4,14.5-8.4,20.3-12.3c6.5-4.3,12.8-8.9,19.4-14.1
		c1.3-1.1,1.5-2.8,0.4-4.4C189.3,233.6,188.5,233.2,187.6,233.2z"/>
	<path class="stleaf" d="M226.8,247.6c-2.5-4-5.3-8.3-8.8-12.6c0,0,0-0.1-0.1-0.1c-0.6-0.6-1.4-1-2.2-1.1c-0.9-0.1-1.8,0.1-2.4,0.7
		c-0.6,0.6-0.9,1.3-0.9,2.2c0,0.8,0.3,1.6,0.8,2.1c3.1,3.6,6.3,7.6,9.3,11.5c0,0,0,0,0,0c3,4,5.5,8.3,7.9,12.5c2.1,4,4.4,8.6,6,13.5
		c1.7,5,2.7,9.9,2.8,14.4c0,0.5,0.5,1,1,1c0,0,0,0,0,0c0.5,0,1-0.5,1-1c0-5-0.7-10.1-2-15.2c-1.2-4.6-2.9-9.3-5.3-14.4
		C232.1,256.5,229.7,252.1,226.8,247.6z"/>
	<path class="stleaf" d="M249.6,261.3c0.1,0.4,0.5,0.7,0.9,0.7c0.1,0,0.2,0,0.3,0c0.5-0.1,0.8-0.7,0.7-1.2c-0.6-3.1-2-6-4.1-9.4
		c-1.9-2.9-4.3-5.4-6.8-7.8c-2.6-2.3-5.4-4.4-8.1-6.3c-2.6-1.7-5.6-3.6-8.9-5.2c-0.1,0-0.2-0.1-0.3-0.1c-0.1-0.1-0.2-0.1-0.3-0.2
		c-1.6-0.4-3.2,0.4-3.8,2c-0.4,1.6,0.4,3.2,1.9,3.8c2.6,0.9,5.5,2.2,8.6,3.8c2.6,1.4,5.4,3,8.2,5.1c2.5,1.9,4.7,3.9,7,6.6
		c0,0,0,0,0,0C246.9,255.4,248.4,258.2,249.6,261.3z"/>
	<path class="stleaf" d="M231,223.1C231,223.1,231,223.1,231,223.1c2.1,0.1,4.2,0.2,6.3,0.2c3.4,0,6.9-0.2,10.8-0.5
		c5.9-0.5,11.6-1.7,17-2.8c6.3-1.7,11.4-3.6,16.1-5.9c5.1-2.5,9.9-5.9,13.9-9.8c0.4-0.4,0.4-1,0.1-1.4c-0.4-0.4-1-0.4-1.4-0.1
		c-4.2,3.6-9,6.5-13.8,8.5c-4.9,2.1-10.2,3.7-15.7,4.7c-5.5,1-11,1.6-16.3,1.7c-5.4,0.2-10.9,0-16-0.6c-0.2-0.1-0.4-0.2-0.6-0.2
		c-1.5,0-3.2,1.2-3.2,2.9C228.2,221.4,229.4,223.1,231,223.1z"/>
	<path class="stleaf" d="M396.7,259c-12-17.5-30.5-38.7-46.1-45.8c-14-6.4-28.7-9.1-36.1-10.2c1.7-1.5,3.4-3.1,5.1-4.8
		c3.4-3.2,6.6-6.4,9.7-9.6c1.6-1.6,3.1-3.2,4.7-4.8c1.1-1.2,2.2-2.2,3.4-3.2c0.3-0.2,0.6-0.4,0.9-0.7c0.3-0.3,0.7-0.5,0.9-0.7
		c0.4-0.2,0.7-0.4,1-0.6c0.3-0.2,0.6-0.4,1-0.6c2.5-1.4,5.1-2.5,7.8-3.6l1.1-0.5c1.3-0.6,2.7-1.1,4-1.6c1.8-0.7,3.6-1.4,5.4-2.2
		c1.6-0.7,3.3-1.4,5-2.5c0.9-0.6,1.7-1.1,2.6-2c0.6-0.6,1-1.2,1.3-1.9c0.3-0.6,0.4-1.2,0.5-1.9c0,0,0-0.1,0-0.1
		c0.4-1.7-0.3-3.5-1.1-4.5c-0.8-1.2-1.8-1.9-2.6-2.4c-1.9-1.1-3.6-1.7-4.9-2.2c-3.3-1.1-6.6-1.6-9.6-1.9c-6.1-0.7-12.5-0.6-18.9,0.2
		c-5.8,0.8-12,2.4-18.3,4.8c-5.7,2.2-11.4,4.6-16.5,6.8c-1.5,0.1-3,0.2-4.5,0.2c-1.7,0.1-3.4,0.2-5.1,0.3l-5,0.6
		c-0.5,0.1-0.9,0.1-1.4,0.1c-1.2,0.1-2.5,0.2-3.7,0.6l-1.1,0.2c-3.1,0.6-6,1.2-8.9,2.3l-1.6,0.6c-1.1,0.4-2.1,0.7-3.2,1.2
		c0,0-0.1,0-0.1,0c-1.6,0.8-2.9,1.4-4.1,1.9c0.9-4.1,1.5-7.7,1.8-11.1c0.6-5.5,0.7-11.3,0.4-17.3c-0.6-10.8-2.9-22.1-6.9-33.6
		c-4.1-11.2-9.1-21.5-14.9-30.7c-2.9-4.6-6.1-9.1-9.8-13.9c-4.1-5.3-7.9-9.4-11.5-12.5c-0.4-0.4-1-0.3-1.4,0.1
		c-0.4,0.4-0.3,1,0.1,1.4c3.8,3.4,7.3,7.5,10.8,12.7c3.1,4,6.1,8.5,9.1,13.9c5.6,9.5,10.2,19.7,13.6,30.3
		c3.5,10.8,5.4,21.7,5.7,32.5c0,6.5-0.3,11.8-0.9,16.5c-0.7,4.9-1.9,10.2-3.6,16.1c0,0,0,0,0,0.1c-3.7,2.5-6.9,5.3-9.7,8.2l-1.7,1.9
		l-1.6,1.9c-1.2,1.3-2.1,2.7-3,4.1c-2,3.2-3.6,6.3-4.5,9.2c-0.2,0.5,0.1,1,0.6,1.2c0.1,0,0.2,0,0.3,0.1c0,0.7,0.2,1.3,0.7,1.8
		c0.6,0.6,1.3,0.9,2.2,0.9c0.8,0,1.6-0.3,2.1-0.9c4.4-4.1,8.8-7.4,13.4-10.2c5-2.9,10-5,15.4-6.4c6-1.5,12.2-1.8,17-1.9
		c0.7,0,1.5,0,2.2,0c2.2,0,4.5-0.1,6.7-0.5c1.5-0.2,3-0.6,4.5-1.3c1.3-0.6,2.5-1.5,3.5-2.8c0.1-0.1,0.2-0.2,0.3-0.4
		c0.3-0.4,0.2-1.1-0.2-1.4c-0.4-0.3-1.1-0.2-1.4,0.2c-0.1,0.1-0.2,0.2-0.2,0.3c-0.7,0.8-1.6,1.5-2.7,2c-1.1,0.3-2.6,0.7-3.9,0.8
		c-1.6,0.1-3.4,0.1-5.2,0c-1.1,0-2.2-0.1-3.3-0.1c-6.6-0.5-12.6-0.2-17.8,0.8c-5.6,1.1-11.4,3.1-17.1,6c-4.2,2.3-8.5,5.1-13.1,8.6
		c2.5-3.9,5.7-7.6,9.8-11.3c4.3-3.9,9.7-7.2,16-9.9c1.4-0.5,3.1-1.2,4.5-1.9c0.8-0.3,1.5-0.6,2.2-0.8l2.3-0.7c1.9-0.8,3.9-1.2,6-1.6
		c1-0.2,2.1-0.4,3.2-0.7c0,0,0.1,0,0.1,0c0.8-0.3,1.7-0.4,2.7-0.5c0.6-0.1,1.2-0.1,1.8-0.2l4.7-0.6c1.6-0.1,3.2-0.1,4.9-0.2
		c1.5-0.1,3-0.1,4.5-0.2c0.4,0.2,1,0,1.2-0.1l0.1,0c0.1,0,0.2,0,0.3-0.1c5.5-2.4,11.2-4.8,16.7-7c6.2-2.3,11.8-3.7,17.1-4.3
		c6.3-0.8,12.2-0.8,17.5-0.2c3.3,0.3,6,0.9,8.3,1.6l0.4,0.1c1.1,0.4,2.3,0.9,3.1,1.4c0.3,0.2,0.6,0.5,0.9,0.8l0,0.2c0,0,0,0.1,0,0.1
		l0,0c-0.1,0.1-0.2,0.2-0.2,0.3c-0.4,0.4-0.9,0.8-1.3,1.1c-1.3,0.8-2.6,1.5-4.1,2.1c-1.8,0.9-3.7,1.6-5.7,2.4
		c-1.1,0.4-2.3,0.9-3.4,1.4l-1.3,0.5c-2.7,1.1-5.6,2.3-8.2,3.8c-0.8,0.3-1.6,0.8-2.4,1.3c-0.1,0-0.1,0.1-0.2,0.1
		c-0.3,0.3-0.7,0.6-1.1,0.9c-0.3,0.2-0.7,0.5-1,0.7c-1.3,1.1-2.6,2.3-3.9,3.5c-2.1,2-4.1,4.1-6,6c-2.7,2.7-5.4,5.6-8.3,8.2
		c-4.3,4-9.4,8.7-15,12.9c-6,4.4-11.4,7.9-16.6,10.5c-5.8,3-12.1,5.4-18.2,6.8c-6.7,2-13.1,3.2-19.2,3.4l-0.1,0
		c-1.6,0.1-3.2,0.2-4.7,0.1c-0.9-0.1-1.8-0.1-2.7-0.2c-0.8,0-1.6,0-2.5-0.1l-0.5,0c-1.4-0.1-3-0.2-4.4-0.4l-2.9-0.4
		c-0.5-0.2-1.1-0.5-1.6-0.7c-0.5-0.2-1,0-1.3,0.5c-0.1,0.2-0.1,0.3-0.1,0.5c0,0.1-0.1,0.1-0.1,0.2c-0.1,0.5,0.2,1,0.7,1.2
		c0.6,0.2,1.2,0.4,1.8,0.5l2.4,1.4l2.1,1.3c0.3,0.2,0.6,0.4,0.9,0.6c0.3,0.3,0.7,0.5,1.1,0.7l3.9,2.9l3.6,3.4
		c4.7,4.5,8.7,9.7,11.7,15.3c6.4,11.2,10.4,23.8,11.6,36.6c0.3,1.6,0.4,3.1,0.5,4.7c0,1.6,0.1,3,0.2,4.4l0,0.5c0,0.7,0,1.3,0,2
		c0,2.6,0,5.1-0.2,7.8c-0.1,1.9-0.3,3.9-0.6,5.8c-0.2,1.3-0.3,2.6-0.4,4l-0.6,5c-0.2,1.7-0.4,3.4-0.5,5.1
		c-0.6,6.5-0.7,13.3-0.4,20.4c0.3,3.7,0.6,6.9,1.1,10.1c0.2,1.6,0.5,3.3,0.9,5.1c0.4,1.7,0.9,3.2,1.5,5.2c0.2,0.6,0.5,1.1,0.9,1.3
		l0.1,0.1c1.6,1.4,2.8,2.6,3.7,3.9c0,0,0,0.1,0.1,0.1c0.5,0.6,0.9,1.3,1.1,1.7c-0.1,0-0.3,0.1-0.5,0.1c0,0-0.1,0-0.1,0
		c-0.6,0.2-1.4,0.2-2.3,0.1c0,0-0.1,0-0.1,0c-1.7,0-3.7-0.3-5.5-0.8c-3.5-0.7-6.8-2.2-10.1-4.5c-0.2-0.1-0.4-0.3-0.6-0.4
		c-0.2-0.1-0.4-0.2-0.6-0.4l-1.1-0.8c-0.5-0.4-0.9-0.8-1.4-1.1c-0.3-0.2-0.6-0.4-0.9-0.7c-0.4-0.3-0.8-0.7-1.2-1
		c-1.1-0.9-2.2-1.8-3.2-2.9c-5.8-5.7-10.9-12.2-15.5-18.3c-4.1-5.5-8-11.2-11.8-16.7l-5.5-8.2c-1-1.7-2-3.4-3.1-5.1
		c-1.9-3.5-3.5-7-4.8-10.7c-2.6-7.2-4.2-15-4.9-23.1c-0.1-1.6-0.2-3.2-0.3-4.8c-0.2-2.3-0.3-4.8-0.4-7.2c-0.1-2.9,0-6.1,0.1-9.1
		c0-1,0.1-2,0.1-2.9c0-1,0.1-2,0.2-3c0.1-1,0.2-2.1,0.2-3c0.1-0.7,0.1-1.3,0.2-2c0.1-1.4,0.2-2.7,0.4-4.1c0.4-3.9,1-8,1.6-12
		c0.1-0.5-0.3-1-0.8-1.1c-0.5-0.1-1,0.2-1.2,0.7c-1.2,4.4-2.3,8.9-3.2,13.4c-7,10.1-15.4,18.8-24.9,25.9
		c-9.4,7.3-20.7,13.5-33.4,18.4c-11.5,4.4-24,7.5-37,9.3c-3.8,0.6-6.7,0.9-9.5,1l-9.6,0.3c-3.1,0.2-6.4,0.1-9.5,0l-1.6-0.1
		c-2.6-0.2-5.2-0.3-7.5-0.8c0.2-0.1,0.3-0.2,0.5-0.3l2.3-1c2.9-1.6,6.2-3.5,8.4-6.7c0.7-1.1,1.3-2.3,1.8-3.4
		c0.2-0.4,0.3-0.7,0.5-1.1c0.7-1.4,1.4-2.7,2.2-3.9c1.9-2.6,4.3-4.9,6.2-6.6c2.3-2.1,4.8-3.8,7.5-5c2.7-1.3,5.3-2.2,8.2-3.2l0.7-0.2
		c1.6-0.7,3.3-1.4,4.9-2.4c0,0,0.1,0,0.1-0.1c0.7-0.6,1.6-1.4,2.2-2.1c0.1-0.1,0.1-0.1,0.1-0.2c0.2-0.4,0.5-0.8,0.7-1.1
		c0.1-0.2,0.3-0.4,0.4-0.6c0.1-0.2,0.2-0.4,0.4-0.6l4.5-8.3c0.8-1.3,1.7-2.7,2.6-4c0.9-1.3,1.8-2.7,2.6-4c1.1-1.5,2.3-2.9,3.6-4.5
		c0.8-0.9,1.5-1.9,2.2-2.7c3.9-4.1,8.6-8.8,14.1-12.2c5.4-3.6,11-6.2,16.7-7.7l4.5-1c1-0.1,1.9-0.2,2.9-0.4c0.6-0.1,1.1-0.2,1.7-0.2
		c1.1-0.1,2.8-0.2,4.4-0.2c1.3,0,2.5,0,3.6,0.1c1.5,0.7,3.3,0,4.1-1.5c0.5-1.1,0.3-2.4-0.5-3.4c-0.5-1-1.4-1.6-2.4-1.6l-0.4,0
		c-7.4-3.5-14.6-8.6-21.5-15c-3.7-3.7-6.8-7.1-9.7-10.4c-2.5-2.9-4.9-5.9-7.3-8.9l-1.8-2.3c-2.8-3.6-4.8-8.2-6.5-12.3l-0.5-1.1
		c-1.8-4.1-3.6-8.3-6.1-12.2c-1.6-2.5-3.4-4.5-5.6-5.9c-1.1-0.8-2.4-1.4-4-1.8c-0.2-0.1-0.4-0.2-0.7-0.2c-0.8-0.3-1.6-0.5-2.2-0.9
		c0,0-0.1,0-0.1-0.1c-2-1-2.9-3-3.3-4.5c-0.4-1.4-0.5-3-0.3-4.6c0.1,0,0.1,0.1,0.1,0.1l2.5,1.7c1.6,1.1,3.4,2,5.7,2.9
		c4.2,1.3,8.4,1.9,12.1,2.3l2.9,0.3c6.8,0.8,13.8,1.6,20.6,2.9c4.5,0.8,8.1,1.7,11.3,3c3.3,1.3,6.7,2.9,10.4,5
		c0.2,0.1,0.5,0.3,0.7,0.4l0.4,0.3c3.1,2,6,4.2,8.5,6.5c1.2,1.1,2.7,2.4,4.1,4c0.3,0.4,0.7,0.8,1.1,1.3l0.2,0.3
		c0,0.1,0.1,0.1,0.1,0.2c0,0.1,0.1,0.2,0.3,0.3c0,0,0.1,0.1,0.1,0.1c0.2,0.2,0.5,0.3,0.7,0.3s0.5-0.1,0.7-0.3l0,0
		c0.2-0.2,0.3-0.4,0.3-0.7c0-0.1,0-0.3-0.1-0.4c0-0.3,0-0.6-0.2-0.8c0-0.1-0.1-0.2-0.2-0.3l-0.4-0.6c0-0.1-0.1-0.1-0.1-0.2
		c-0.2-0.2-0.6-0.6-0.7-0.8c0-0.1-0.1-0.2-0.2-0.3c-1.4-1.4-2.8-2.8-4.4-4.1c-2.9-2.5-5.8-4.5-8.6-6.3c0,0,0,0,0,0l-0.4-0.2
		c-0.2-0.1-0.4-0.3-0.6-0.4c-3.3-2-6.9-3.9-10.7-5.5c-3.2-1.3-6.8-2.4-11.6-3.4c-5.5-1.2-11.1-2-16.5-2.7c-2.4-0.3-4.8-0.7-7.2-1
		c-4.6-0.6-8.2-1.3-11.3-2.4c-1.5-0.5-3-1.3-4.9-2.6l-2.5-1.7c-0.2-0.1-0.3-0.2-0.5-0.3c-0.3-0.2-0.6-0.4-1-0.6
		c-0.3-0.2-0.7-0.3-1-0.3c-0.1,0-0.2,0-0.3-0.1c-0.7-0.2-1.7,0-2.3,0.7l-0.1,0.1c-0.1,0.1-0.2,0.3-0.3,0.4c-0.1,0.1-0.1,0.2-0.2,0.4
		c-0.8,2.7-0.8,5.4-0.2,8.2c0,0,0,0.1,0,0.1l0.1,0.2c0.4,1.2,0.8,2.5,1.6,3.6c0.8,1.3,1.9,2.4,3.2,3.1c1.4,0.9,2.7,1.4,3.9,1.7
		c1,0.3,1.8,0.6,2.6,1.2c1.4,0.9,2.8,2.5,4.2,4.7c2,3.3,3.5,6.8,5.1,10.6c0.3,0.7,0.6,1.5,0.9,2.2l0.6,1.4c1.7,4.1,3.5,8.3,6.4,12.1
		c2.9,3.7,6,7.6,9.1,11.4c3,3.7,6.3,7.3,10,11c4.4,4.3,9.1,8.1,14,11.3c-0.3,0-0.6,0.1-1,0.1c-0.8,0.1-1.7,0.3-2.5,0.4
		c0,0-0.1,0-0.1,0c-0.8,0.2-1.5,0.4-2.3,0.6c-0.8,0.2-1.6,0.4-2.5,0.6c-6.2,1.7-12.4,4.7-18.3,8.6c-5.8,3.8-10.8,8.8-15,13.3
		c-1.4,1.7-2.7,3.5-4,5.2c-0.7,0.9-1.3,1.7-2,2.6c0,0,0,0.1-0.1,0.1c-0.7,1.2-1.5,2.4-2.3,3.6c-1,1.5-2,3.1-3,4.8l-4.5,8.6l-0.2,0.3
		c-0.2,0.3-0.4,0.5-0.5,0.7c0,0.1-0.1,0.2-0.2,0.3c-0.1,0.2-0.2,0.3-0.3,0.4c-0.3,0.5-0.6,0.8-1.1,1.1c-1,0.8-2.2,1.3-3.8,1.9
		c-0.8,0.3-1.6,0.6-2.4,0.9c-2.2,0.8-4.6,1.7-6.7,2.8c-2.8,1.5-5.7,3.5-8.4,5.8c-2.1,1.9-4.9,4.5-6.9,7.7c-0.9,1.5-1.7,3-2.3,4.5
		c-0.3,0.6-0.6,1.1-0.9,1.7c-0.4,0.9-0.8,1.7-1.3,2.5c-1.2,1.9-3.3,3.6-6.5,5.3l-2.2,1.1c-1,0.4-1.9,0.9-2.6,1.5
		c-0.1,0.1-0.2,0.2-0.3,0.2c-0.4,0.3-0.9,0.7-1.2,1.5c0,0,0,0.1,0,0.1c-0.2,0.8-0.2,1.5,0,2.1c0,0.1,0.1,0.2,0.2,0.3
		c0.1,0.1,0.2,0.2,0.3,0.3c0.2,0.3,0.5,0.5,0.7,0.7c1,0.6,2,0.9,2.7,1.1l0.2,0c3.5,0.6,6.7,0.7,9.9,0.8c3.3,0.1,6.7,0,9.8-0.1
		c0.8,0,1.6,0,2.4-0.1c2.5-0.1,4.9-0.1,7.4-0.3c2-0.2,4-0.4,6-0.7c-3.6,6.8-6.1,13.8-8.4,23c-2.3,9-3.8,18.8-4.4,29.2
		c-0.5,8-0.4,15.9,0.1,23.6c0,0,0,0,0,0l0,0.1c-0.6,1.4-1.9,2.7-3,4c-1.4,1.5-2.9,2.7-4.5,3.9c-3,2.3-6.3,4.5-10.1,6.7
		c-0.8,0.3-1.1,1-0.9,1.9c0.2,0.6,0.9,1.2,1.7,1.2c0,0,0,0,0.1,0c0.1,0,0.2,0.1,0.3,0.1c0.2,0,0.4-0.1,0.6-0.2l0.1-0.1
		c5.7-1,11.5-1.3,17.6-1.6c4-0.2,8-0.4,12.1-0.8c2.3-0.3,4.6-0.7,7-1.2l0.7-0.1c2.7-0.6,5.1-1.3,7.6-2.2c4.4-1.5,9.1-3.6,14.3-6.3
		c9.2-4.7,17.8-10.6,25.7-17.3c4.4-3.7,8.4-8,11.1-10.9c3.3-3.6,6.6-7.4,10.1-11.8c6.3-8.1,12.1-16.7,17.2-25.6
		c1.1-2,2.1-3.6,2.8-4.9c1.7-2.8,2.7-4.5,3.8-7.3c1.2,3.2,2.8,6.5,4.9,10.4l0.5,0.8c0.9,1.6,1.8,3.2,2.9,4.7l3.4,5.1
		c4.2,6.3,8.8,12.9,14,20.1c5,7,10.3,13.4,16,19c1.4,1.4,3,2.8,4.7,4.2c0.5,0.5,1,0.8,1.6,1.2c0.3,0.2,0.6,0.5,1,0.7l1.2,0.9
		c0,0,0.1,0,0.1,0.1c0.2,0.1,0.4,0.3,0.7,0.4c0.2,0.2,0.5,0.3,0.7,0.4c3.5,2.4,7.6,4.2,12,5.2c2.1,0.6,4.2,0.9,6.7,1
		c0.3,0,0.5,0,0.8,0c0.9,0,1.8,0,2.9-0.1l0.2,0c0.6-0.1,1.2-0.2,1.8-0.4c0,0,0.1,0,0.1-0.1c0.1-0.1,0.2-0.1,0.4-0.2
		c0.6-0.3,1.4-0.6,2-1.3c1.1-0.9,1.3-2.6,1.4-3.3c0,0,0-0.1,0-0.1c0-1-0.3-1.8-0.5-2.4l-0.1-0.3c-0.6-1.5-1.3-2.5-1.9-3.3
		c-1.2-1.6-2.6-3-4-4.4c-0.3-1-0.6-2.2-0.9-3.7c-0.3-0.9-0.4-2-0.6-3.1c-0.1-0.6-0.2-1.1-0.3-1.6c-0.4-2.9-0.8-6.1-1-9.7
		c-0.2-6.9-0.1-13.5,0.4-19.5c0.1-0.8,0.2-1.6,0.3-2.5c0.1-0.8,0.1-1.6,0.2-2.4l0.5-4.9c0.1-1,0.2-2,0.3-3c0.3-2.3,0.5-4.7,0.6-7
		c0.2-3.4,0.2-6.7,0.2-10.2c0-1.6-0.1-3.4-0.2-5.1c-0.1-1.6-0.2-3.1-0.4-5c0-2.1-0.3-4-0.5-5.2l-0.9-5c-0.2-1.3-0.6-2.6-0.9-4
		l-0.1-0.6c6.5,2.2,18.8,4.5,37.4,0.9c3.8-0.8,7.2-1.8,10.5-2.8c7.9-2.3,15.3-4.6,26.2-3c42.9,6.2,56.8,20.1,61.2,27.8
		c2.6,4.5,2.8,8.3,2.1,10.4c-0.1,0.1-0.4,0.5-0.9,0.5c-0.5,0.1-2,0-4.5-2.5c-0.9-0.9-2.3-2.2-3.8-1.3c-0.8,0.5-1.2,1.4-1,2.3
		c0.4,2.1,5.2,7.5,10.4,8.1c0.3,0,0.6,0,0.9,0c2.6,0,6.2-1.3,8.9-7.2C421.3,296.4,402.5,267.6,396.7,259z M409.6,310.5
		c0-0.1,0.1-0.1,0.1-0.2c1.5-3.8,0.6-9-2.3-14c-4.8-8.3-19.5-23.3-64.1-29.7c-2.8-0.4-5.3-0.6-7.7-0.6c-7.7,0-13.8,1.8-20.2,3.7
		c-3.2,1-6.6,2-10.2,2.7c-20.7,4-33.2,0.3-37.9-1.7l-0.2-0.5c-2.6-8.1-5.3-13.9-8.8-18.7c-0.5-0.7-1-1.4-1.5-2.1
		c6.2,3,12.4,4.9,18.2,5.6c0.5,0.1,0.9,0.1,1.3,0.1c0.4,0,0.8,0,1.3,0.1l2.6,0.2c0,0,0.1,0,0.1,0l2.7-0.1l1.3-0.1
		c0.3,0,0.6-0.1,0.8-0.1c0.3-0.1,0.6-0.1,0.8-0.1c0.6-0.1,1.2-0.3,1.9-0.5c2.9,0.2,5.9,0.6,8.5,0.9c3.2,0.4,6.4,1,9.4,1.8
		c3,0.8,6.2,1.7,9,2.9c2.8,1.3,5.6,2.9,7.7,5.2c0.4,0.4,1,0.4,1.4,0.1c0.4-0.3,0.5-0.9,0.2-1.4c-2-2.9-5-4.9-7.9-6.6
		c-2.5-1.5-5.5-2.8-9.2-4.2c-3-1-6.2-2.1-9.7-2.9c-0.3-0.1-0.6-0.2-0.9-0.2c0.7-0.4,1.5-0.9,2.2-1.3c2-1.2,3.9-2.4,5.8-3.3
		c0.4-0.2,0.7-0.3,1.1-0.5c3.5,0.8,7.1,1.7,10.5,2.7c4.7,1.3,8.4,2.5,11.7,3.7c4.3,1.4,7.9,2.9,11.3,4.6c4.3,2.2,7.4,4.4,10,6.9
		c0.3,0.3,0.9,0.4,1.3,0.1c0.4-0.3,0.5-0.8,0.3-1.3c-2.3-4.4-6.4-7.5-9.2-9.5c-3.9-2.6-7.7-4.7-11.5-6.3c-2-0.8-4.2-1.7-6.6-2.5
		c2.7,0.4,5.4,1,8.3,1.8c5.7,1.7,11.6,4,18,7.2c5.9,2.8,11.6,6.1,17,9.7c0,0,0.1,0.1,0.1,0.1c2.8,1.6,5.7,3.2,8.5,5
		c2.8,1.6,5.4,3.4,8.2,5.6c0.4,0.3,1,0.3,1.3-0.1c0.4-0.3,0.4-0.9,0.1-1.3c-2.1-2.9-4.5-5.3-6.9-7.7c-2.3-2.4-4.9-4.5-7.8-6.8
		c0,0-0.1,0-0.1-0.1c-6.2-4-12-7.4-17.7-10.2c-6.9-3.4-13-5.8-19.1-7.6c-6.7-1.9-12.6-2.8-18.2-2.6c0.1,0,0.1-0.1,0.2-0.1
		c1.5-1.2,3.5-2.3,5.5-3.3l0.6-0.3c2.1-1,4.5-2,7-2.9c0.9-0.2,1.8-0.5,2.7-0.9c0.3-0.1,0.7-0.2,0.9-0.3c0.9-0.2,1.8-0.6,2.7-0.9
		c0.3-0.1,0.7-0.2,1-0.4c0.5-0.2,0.8-0.7,0.7-1.1c-0.1-0.5-0.5-0.8-1.1-0.8c-2.3,0.2-5,0.5-7.9,1.2c-0.9,0.1-1.7,0.4-2.5,0.6
		c-0.4,0.1-0.9,0.2-1.3,0.3c-1,0.2-2,0.6-3,0.9c-0.3,0.1-0.6,0.2-0.9,0.3c-2.6,0.8-5.1,2.1-7.5,3.6c-0.7,0.4-1.4,0.8-1.8,1.3
		c-0.6,0.5-1.2,1.1-1.7,1.6c-0.5,0.5-1,1-1.5,1.8c-0.2,0.3-0.4,0.5-0.6,0.8c-0.7,0.2-1.5,0.5-2.2,0.7l-0.3,0.1
		c-0.2,0.1-0.3,0.1-0.5,0.2c0,0-0.1,0-0.1,0c-0.2,0.1-0.4,0.2-0.6,0.3c-0.4,0.2-0.9,0.4-1.3,0.6c-3.2,1.7-6.2,3.5-8.9,5.2
		c-1.8,1.1-3.9,2.4-5.9,3.2l-1.6,0.6l-5,0.4l-2.3-0.2c-0.1,0-0.3,0-0.4,0c1-0.6,2-1.2,3-1.9c3.6-2.4,7-5,9.7-7
		c3.4-2.6,6.3-5.3,8.9-8.2c3.1-3.7,5.2-6.8,6.8-9.8c0.3-0.5,0.1-1.1-0.4-1.3c-0.5-0.3-1.1-0.1-1.3,0.3c-4.5,7-11.1,12-16.3,15.6
		c-3.3,2.3-6.9,4.2-9.9,5.8c-3,1.5-6.3,3.1-9.6,4.5c-3.5-1.1-7-2.5-10.5-4.3c-4.5-1.8-8.6-3.8-12.8-6c-2.8-2.3-5.7-4.4-8.9-6.3
		c10.2,1.8,20.7,1.7,30.7-0.3c7.3-1.9,13.7-4.2,19.5-7.3c5.8-3,11.7-6.8,17.4-11.2c2-1.5,4.1-3.2,6.5-5.2c5.5,0.6,22.4,3,38.4,10.3
		c12.3,5.5,29.8,23,44.5,44.4c14,20.4,21.7,39.1,18.8,45.7c-0.9,2-1.9,3.4-3,4.1C409.4,310.8,409.5,310.6,409.6,310.5z M86.9,394
		c-1.4,0.1-2.9,0.1-4.3,0.2c-2.4,0-4.9,0.2-7.3,0.6c1.2-0.9,2.3-1.8,3.3-2.7c1.7-1.4,3.1-2.8,4.6-4.5c0.6-0.7,1.2-1.4,1.6-2.1
		c0.1,0.8,0.2,1.6,0.2,2.3c0.1,0.5,0.6,0.9,1.1,0.9c0.5-0.1,0.9-0.5,0.9-1.1c-0.2-1.7-0.3-3.6-0.5-5.6c0,0,0,0,0-0.1h0c0,0,0,0,0,0
		c0.1-0.2,0-0.5-0.1-0.7c-0.4-7.3-0.4-14.8,0.2-22.9c0.9-10.5,2.4-19.9,4.8-28.7c2.7-10.2,5.5-17.2,9.4-24
		c13.7-2.1,26.3-5.5,37.7-10.1c12.7-5.1,24.1-11.5,33.9-19.1c8.5-6.4,16-14.1,22.4-22.8c-0.4,1.8-0.7,3.6-1,5.3
		c-0.6,4.1-1,8.3-1.2,12.4c0,0.2,0,0.5,0,0.7c-0.1,0-0.2,0.1-0.4,0.1c-2,0.4-3.9,0.9-6.4,2c-2.1,1-4.2,2-6.3,3.3
		c-1.3,0.8-2.5,1.7-3.7,2.5c-0.7,0.5-1.4,1-2.1,1.5c-3.1,2.2-5.9,4.5-8.4,6.9c-2.2,0-4.2,0.2-6.2,0.6c-2.3,0.3-4.5,0.9-6.6,1.5
		c-4,1-8.1,2.6-12.6,4.8c-7.7,3.9-15,9.1-21.7,15.4c-6.1,5.9-11.5,12.6-16.6,20.6c-4.4,6.9-8.3,14.5-12.1,23.3
		c-0.2,0.5,0,1.1,0.5,1.3c0.5,0.2,1.1,0,1.3-0.5c3.5-7.8,7.8-15.7,12.5-22.6c5.3-7.8,10.8-14.2,16.8-19.5c6.5-6,13.6-10.7,21.1-14
		c4.3-1.9,8.3-3.3,12-4.2c1.8-0.5,3.9-0.9,6.2-1.3c0.2,0,0.4,0,0.5-0.1c-0.2,0.2-0.3,0.4-0.5,0.7c-0.5,0.7-1.1,1.4-1.6,2.2
		c-0.7,0.9-1.4,1.8-2.1,3c-0.3,0.5-0.6,1-0.9,1.5c-0.3,0.5-0.6,1-0.9,1.6c-0.9,1.6-1.7,3.1-2.5,4.7c-0.5,0.4-0.8,1-0.8,1.6
		c-1.1,2-2,3.7-3.4,5.1c-1.3,1.4-3.1,2.5-5.1,3.6c-0.3,0.2-0.6,0.3-0.9,0.5c-0.6,0.4-1.3,0.8-2.1,1.1c-0.5,0.3-1.1,0.6-1.6,0.9
		c-0.5,0.2-0.9,0.5-1.4,0.7c-4.4,2.2-8.6,5-12,8c-1.9,1.5-3.6,3.3-5.1,5.1c-1.2,1.5-2.5,3.1-3.7,5.1c-0.3,0.2-0.6,0.5-0.9,0.8
		L97,366.6c-0.3,0.4-0.2,1,0.2,1.4c0.4,0.3,1,0.2,1.4-0.2l14.5-17.7c-0.3,1.2-0.6,2.4-0.9,3.6c-1.2,4.2-2.7,8.5-4.4,12.4
		c-0.4,1-0.9,2-1.4,2.9l-1.5,3c-0.9,1.9-1.8,3.9-3,5.8c-2.2,3.9-4.9,7.4-8,10.2c-0.4,0.4-0.4,0.9-0.1,1.4c0.3,0.4,0.9,0.5,1.3,0.2
		c2-1.3,3.8-2.7,5.4-4.3c1.6-1.5,3.2-3.2,4.7-5.2c1.4-1.7,2.5-3.4,3.7-5.3l1.3-2.1c0,0,0-0.1,0.1-0.1l0.7-1.6c0.5-1.1,1-2.2,1.4-3.2
		c1.9-4.5,3.5-8.9,4.6-13c1.2-4.6,2.2-8.8,3-13.1l0,0c0.4-0.7,0.8-1.5,1.4-2.2c0.7-0.9,1.4-1.8,2.1-2.6c1.4-1.7,3-3.2,4.6-4.6
		c3-2.6,6.6-5,11-7.4c0.7-0.4,1.4-0.7,2.1-1.1c3.5-1.8,7.1-3.6,10.3-6.6c0.3-0.3,0.6-0.6,0.9-0.9c0.1,1.8,0.2,4,0.1,6.2
		c-0.3,4.5-1.2,8.9-2.6,12.9c-1.7,4.4-3.9,8.2-6.5,11.7c-2.5,3.3-5.7,6.4-9.6,9.5c-0.4,0.3-0.5,0.9-0.2,1.4c0.3,0.4,0.9,0.5,1.4,0.2
		c4.1-2.9,7.5-6,10.5-9.4c3-3.5,5.5-7.5,7.6-12.1c1.9-4.4,3.2-9,3.7-13.9c0.2-2.3,0.4-4.7,0.3-7.1c0-2.1-0.2-4.1-0.5-6.1
		c0.7-1.5,1.6-3.2,2.6-4.9c0.3-0.7,0.7-1.3,1.2-2c0.2-0.3,0.3-0.5,0.5-0.8c0.4-0.5,0.7-1,1-1.4c0.3-0.5,0.6-0.9,0.9-1.3
		c0,0,0-0.1,0.1-0.1c0.4-0.7,0.9-1.3,1.4-2c0.2-0.2,0.3-0.4,0.5-0.6c0.1-0.1,0.2-0.3,0.3-0.4c0.2-0.3,0.4-0.6,0.7-0.9l1.1-1.3
		c2.6-2.9,5.8-5.7,10-8.8l2.8-1.9c0.4-0.3,0.8-0.5,1.2-0.8c0.6-0.3,1.1-0.7,1.7-1.1c1.5-1.2,3.3-2.4,5.5-3.9
		c1.9-1.2,3.3-1.9,4.8-2.6c0,0.8-0.1,1.5-0.1,2.3c0,2.1,0,4.2,0.3,6.3c0.7,7.3,2,14.1,3.9,20.1c-2.1,5.5-3.1,7.1-5.3,10.9
		c-0.8,1.3-1.7,2.9-2.9,5.1c-4.9,8.6-10.6,17-16.9,25.1c-3.8,4.6-6.9,8.2-9.9,11.4c-4.1,4.3-7.5,7.7-10.8,10.5
		c-8,6.7-16.4,12.4-25,16.9c-4.9,2.6-9.4,4.6-13.8,6c-2.1,0.7-4.5,1.6-7.1,2.2c-2.3,0.5-4.8,0.9-7.3,1.2
		C94.1,393.6,90.4,393.8,86.9,394z"/>
	<path class="stleaf" d="M174.4,176.4c0,0-0.1,0-0.1,0c-3.1,0-4.2,7.3-4.2,8.7c-0.1,0.9-0.4,8.4,2.9,8.7c0,0,0,0,0.1,0c0,0,0.1,0,0.1,0
		c3.8,0,4-9.2,4-9.6C177.3,180.8,176.9,176.6,174.4,176.4z M173.6,184.3c0,0.6-0.1,1.2-0.1,1.8c0-0.3,0-0.5,0-0.8c0,0,0,0,0,0
		C173.6,185,173.6,184.6,173.6,184.3z"/>
	<path class="stleaf" d="M194.6,173.2c0.8,0,1.6-0.3,2.2-0.8c0.7-0.6,1.2-1.6,1.1-2.6c0-1-0.4-1.9-1-2.3c-1-1-2.7-1.3-3.8-0.6
		c-0.9,0.4-1.5,1.2-1.8,2.2c-0.3,1-0.1,2.1,0.6,3C192.6,172.8,193.6,173.2,194.6,173.2z M194.4,169.8
		C194.4,169.8,194.4,169.8,194.4,169.8c0.1-0.1,0.2-0.1,0.2,0l-0.1,0.1l0.2,0c0,0,0,0,0,0l-0.2,0l-0.1,0.1
		C194.4,169.9,194.4,169.9,194.4,169.8C194.4,169.9,194.4,169.9,194.4,169.8C194.4,169.8,194.4,169.8,194.4,169.8l-0.6-0.2
		L194.4,169.8z M194.6,170C194.6,170,194.6,170,194.6,170L194.6,170C194.6,170,194.6,170,194.6,170z"/>
	<path class="stleaf" d="M176.7,172.4c-0.3,1-0.1,2.1,0.6,3c0.6,0.7,1.4,1.1,2.3,1.2c0.1,0,0.2,0,0.3,0c0.8,0,1.6-0.3,2.3-0.9
		c0.7-0.7,1.1-1.7,1-2.7c0-0.9-0.4-1.6-0.9-2.1c0.3-0.1,0.5-0.3,0.7-0.5c0.7-0.7,1.1-1.7,1-2.7c0-0.9-0.4-1.7-0.9-2.1
		c-1-1-2.7-1.3-3.8-0.6c-0.9,0.4-1.5,1.2-1.8,2.2c-0.3,1-0.1,2.1,0.6,3c0,0.1,0.1,0.1,0.2,0.2C177.5,170.7,176.9,171.5,176.7,172.4z
		 M180.7,167.9L180.7,167.9l-0.8-0.2L180.7,167.9z M180.9,168L180.9,168L180.9,168L180.9,168L180.9,168
		C180.9,168,180.9,168,180.9,168z M180.6,167.9L180.6,167.9l0.1,0.1C180.6,168,180.6,168,180.6,167.9z"/>
	<path class="stleaf" d="M186.4,172.9c-0.9,0.4-1.6,1.2-1.8,2.2c0,0,0,0,0,0c-0.3,1-0.1,2.1,0.6,3c0.6,0.7,1.4,1.1,2.3,1.2
		c0.1,0,0.2,0,0.3,0c0.3,0,0.6-0.1,0.9-0.1c-0.6,0.3-1.2,0.5-1.8,0.9c0,0-0.2,0.1-0.2,0.1c-5,3.8-6.8,10.3-4.4,15.8
		c0.9,2,2.2,3.7,3.8,5c-1.1-0.3-2.1-0.5-3.1-0.7c-1-0.8-2.4-1-3.4-0.6c-1.2-0.2-2.3-0.3-3.4-0.3c-0.5,0-1,0.4-1,0.9
		c0,0.5,0.4,1,0.9,1.1c0.6,0.1,1.1,0.1,1.7,0.2c-0.1,0.1-0.1,0.3-0.1,0.4c-0.3,1-0.1,2.1,0.6,3c1.2,1.4,3.3,1.6,4.9,0.3
		c0.6-0.6,0.9-1.3,1-2.2c1.6,0.5,3.3,1.1,5.3,1.9c1.3,0.5,2.8,1.2,4.3,1.9c-0.3-0.1-0.7-0.2-1-0.4c-0.5-0.2-1.1,0.1-1.3,0.6
		c-0.2,0.5,0,1.1,0.5,1.3c0.5,0.2,1,0.5,1.6,0.7c0.4,0.2,0.7,0.3,1.1,0.5c0,0.1,0.1,0.3,0.2,0.4c-1-0.4-2-0.8-3.1-1.2
		c0-0.3-0.1-0.6-0.3-0.8c-1-1.8-4-1.3-5.5-0.9c-2.2-0.5-4.1-0.9-5.9-1.1c-0.5-0.1-1,0.3-1.1,0.8c-0.1,0.5,0.3,1,0.8,1.1
		c0.9,0.2,1.8,0.4,2.6,0.6c-1.3,0.9-3.4,2.5-3.8,4.1c-0.2,0.8,0,1.4,0.2,1.8c0.2,0.4,0.6,0.8,1.3,1.1c1.5,0.5,4.3-0.3,6.5-1.2
		c0,0.1-0.1,0.2-0.1,0.3c-0.3,1-0.1,2.1,0.6,3c0.6,0.7,1.4,1.1,2.3,1.2h0c0.1,0,0.2,0,0.3,0c0.8,0,1.6-0.3,2.3-0.9
		c0.2-0.2,0.4-0.4,0.5-0.7l0.6,0.2c1.4,0.3,2.8,0.6,4.1,1c1.7,0.4,3.4,1,4.8,1.6l0.6,0.2c0.1,0,0.1,0.1,0.2,0.1
		c-1.7-0.3-3.3-0.4-5-0.5c-0.6,0-1.2-0.1-1.8-0.1c-2.3-0.2-4.8-0.2-7.1-0.2c-0.1,0-0.3,0-0.4,0.1c-0.1-0.2-0.3-0.3-0.4-0.4
		c-0.8-0.6-1.9-0.9-2.9-0.7c-0.2-0.5-0.4-0.9-0.8-1.2c-1.1-1-2.6-1.1-3.7-0.6c-0.9,0.4-1.6,1.2-1.8,2.2c-0.3,1-0.1,2.1,0.6,3
		c0.6,0.7,1.4,1.1,2.3,1.2c0.3,0,0.7,0,1-0.1c0.1,0.3,0.3,0.6,0.5,0.9c0.6,0.7,1.4,1.1,2.3,1.2c0.1,0,0.2,0,0.3,0
		c0.8,0,1.6-0.3,2.3-0.9c0.7-0.7,1.1-1.6,1-2.6c2.2,0.1,4.3,0.3,6.5,0.6c2.3,0.3,4.6,0.8,6.8,1.3c2.2,0.6,4.5,1.3,6.4,2.1
		c1,0.5,1.9,0.9,2.7,1.6c0.2,0.2,0.5,0.4,0.7,0.6c0.2,0.1,0.4,0.3,0.6,0.5c0,0,0.1,0.1,0.2,0.1c0.1,0.1,0.3,0.3,0.4,0.4
		c0,0.1,0.1,0.2,0.1,0.3c0.3,0.6,0.9,1,1.5,1c0.1,0,0.1,0,0.2,0c0.4,0,0.8-0.1,1.1-0.4c0.4-0.2,0.7-0.6,0.9-1.1
		c0.2-0.6,0.1-1.2-0.1-1.6c-0.1-0.1-0.1-0.2-0.2-0.3c0.1-0.1,0.2-0.1,0.4-0.2c0,0,0.1-0.1,0.1-0.1c0.2-0.2,0.3-0.3,0.4-0.5
		c0.3,0.5,0.7,0.9,1.1,1.3c0.5,0.5,1.3,0.6,1.8,0.7c0.1,0,0.2,0,0.3,0c0.1,0,0.2,0,0.2,0c0.3,0,0.5-0.1,0.7-0.3
		c0.6-0.6,0.8-1.5,0.5-2.2c0.2,0,0.4-0.1,0.6-0.3c0.9-0.4,1.3-1.6,0.9-2.5c-0.4-1-0.8-2.2-1.2-3.4c0.6,0.1,1.3-0.1,1.8-0.7
		c0,0,0.1-0.1,0.1-0.1c0.3-0.5,0.5-1.1,0.4-1.6c-0.1-0.4-0.3-0.7-0.5-1c0,0,0,0,0,0c0,0,0.1,0,0.1-0.1c1-0.6,1.2-1.8,0.6-2.8
		c0-0.1-0.1-0.1-0.2-0.2l-0.1-0.1c-0.8-1.1-1.5-2.5-2-4.4c-0.4-1.5-0.7-3.1-0.8-5.1c0-0.7,0-1.4,0.1-2c0.6,0.6,1.4,0.9,2.3,0.9
		c0.8,0,1.6-0.3,2.2-0.8c0.7-0.6,1.2-1.6,1.1-2.6c0-0.9-0.3-1.7-0.9-2.3c-0.9-1-2.5-1.3-3.8-0.7c0,0-0.1,0.1-0.1,0.1c0,0,0,0,0,0
		l0.1-0.5c0.1-0.5,0.3-1,0.4-1.4c0.1-0.4,0.2-0.9,0.4-1.4c0.2-0.5-0.1-1-0.6-1.2c-0.5-0.2-1,0-1.3,0.5c-0.2,0.5-0.4,0.9-0.5,1.4
		c-0.1,0.4-0.3,0.8-0.5,1.2c0,0,0,0.1,0,0.1c-0.3,1-0.6,2-0.8,2.8c-0.3,1.1-0.5,2.2-0.7,3.4c0-1.3,0-2.4,0.1-3.5
		c0-2.9,0.5-6.1,1-8.6c0.1-0.4-0.1-0.7-0.3-0.9c0-0.2,0.1-0.4,0.1-0.7c0.6,0.5,1.2,0.8,2,0.9c0.1,0,0.2,0,0.3,0
		c0.8,0,1.6-0.3,2.3-0.9c0.7-0.7,1.1-1.7,1-2.7c0-0.9-0.4-1.7-0.9-2.1c-1-1-2.6-1.1-3.6-0.7c0,0,0,0,0,0c0,0-0.1,0-0.1,0
		c-0.5,0.2-1,0.6-1.3,1.1c-0.3-0.7-0.8-1.3-1.6-1.5c-0.4-0.1-1.1-0.1-1.9,0.4c-1.4,0.9-2.9,3.5-3.3,5.9c-0.3,1.1-0.4,2.4-0.3,3.5
		c-0.4-0.7-0.8-1.5-1.2-2.3c0-0.4,0.1-0.9,0.1-1.3c0-0.6,0.1-1.2,0.1-1.7c0-0.7,0.2-1.4,0.3-2.1c0.9,0,1.7-0.3,2.3-0.8
		c0.7-0.6,1.2-1.6,1.1-2.6c0-1-0.4-1.9-1.1-2.4c-0.2-0.1-0.4-0.3-0.6-0.4c0.3,0,0.6-0.1,0.8-0.2c0.3-0.1,0.5-0.3,0.7-0.4
		c0.1,0.4,0.3,0.8,0.6,1.2c0.7,0.8,1.6,1.2,2.6,1.2c0.8,0,1.6-0.3,2.3-0.9c0.7-0.7,1.1-1.7,1-2.7c0-0.9-0.4-1.7-1.1-2.3
		c0,0-0.1,0-0.1-0.1c-1.2-0.8-2.5-1-3.6-0.4c-0.6,0.3-1,0.7-1.3,1.2c-1.1-1.9-4.9-4.2-7.3-5.2c-0.2-0.1-5.1-2.2-7.2-1.3
		c-0.8,0.3-1.1,0.9-1.1,1.1c-0.5,1.2,0.2,2.5,1.3,3.6c-0.7-0.1-1.4-0.1-2.1,0.2c0,0,0,0,0,0c-0.9,0.4-1.6,1.2-1.8,2.2
		c-0.1,0.4-0.1,0.8-0.1,1.2c-0.2-0.3-0.3-0.5-0.5-0.7c-0.8-0.8-2.4-1.3-3.8-0.7c-0.9,0.4-1.6,1.2-1.8,2.2c-0.2,0.6-0.2,1.3,0,1.9
		c-0.6,0.1-1.3,0.3-1.9,0.6c0.3-0.1,0.6-0.3,0.8-0.6c0.7-0.7,1.1-1.7,1-2.7c0-0.9-0.4-1.7-0.9-2.1c-1-1-2.6-1.1-3.6-0.7
		C186.5,172.9,186.4,172.9,186.4,172.9z M194.4,177.4C194.4,177.4,194.4,177.4,194.4,177.4l-0.2,0l-0.1,0.1c0,0-0.1-0.1-0.1-0.1
		c0,0,0,0,0,0l0,0c0,0,0,0,0,0l0,0c0,0,0,0,0,0C194.2,177.2,194.3,177.2,194.4,177.4l-0.2,0L194.4,177.4z M194.3,177.5L194.3,177.5
		C194.3,177.5,194.3,177.5,194.3,177.5C194.3,177.5,194.3,177.5,194.3,177.5z M194.4,177.5L194.4,177.5
		C194.4,177.5,194.4,177.5,194.4,177.5C194.4,177.5,194.4,177.5,194.4,177.5z M194.1,177.3C194.1,177.3,194.1,177.3,194.1,177.3
		l-0.6-0.2L194.1,177.3z M216.2,188.4c0-0.1,0-0.2,0.1-0.3c0,0,0,0,0,0c0.1-0.4,0.2-0.9,0.4-1.3c0,0.1,0,0.3-0.1,0.4
		C216.5,187.7,216.4,188.1,216.2,188.4z M216.5,200.6c-0.1-0.1-0.1-0.1-0.2-0.2c-0.1-0.1-0.1-0.1-0.2-0.1c0.1-0.1,0.2-0.1,0.3-0.2
		c0,0,0,0,0,0C216.5,200.3,216.5,200.4,216.5,200.6z M216.6,207.7c-0.4-0.6-0.8-1.2-1.1-1.9c0.3-0.1,0.5-0.3,0.8-0.5
		c0.1-0.1,0.2-0.2,0.2-0.3c0,0.4,0,0.9,0,1.3C216.5,206.8,216.6,207.3,216.6,207.7z M213.9,202.9c0,0-0.1-0.1-0.1-0.1L213.9,202.9
		L213.9,202.9z M214.1,202.9L214.1,202.9L214.1,202.9C214.1,202.9,214.1,202.9,214.1,202.9z M215.9,214c-0.2-0.5-0.3-1.1-0.4-1.6
		c0.6,0.9,1.3,1.7,2,2.5l0,0.1c0,0.2,0.1,0.4,0.1,0.6c0.4,1.8,0.7,3.6,1.2,5.3c-0.5-1-1.1-2-1.6-3.2c-0.3-0.8-0.6-1.7-1-2.8
		C216.1,214.5,216,214.2,215.9,214z M216.8,197.2c0,0,0,0.1,0,0.1c0,0,0,0,0,0c-0.6-0.7-1.1-1.5-1.6-2.2c0.8,0.1,1.5-0.4,2.1-1
		C217,195.1,216.9,196.1,216.8,197.2z M189.6,215.7L189.6,215.7c-0.1,0-0.2,0-0.2,0l0,0l0,0c0,0,0,0,0,0l0,0l0,0
		C189.5,215.6,189.5,215.5,189.6,215.7L189.6,215.7l0.2,0c0,0,0,0,0,0L189.6,215.7z M189.6,215.8
		C189.6,215.8,189.6,215.8,189.6,215.8L189.6,215.8C189.6,215.8,189.6,215.8,189.6,215.8z M189.4,215.6
		C189.4,215.6,189.4,215.6,189.4,215.6l-0.6-0.2L189.4,215.6z M184.1,211.7c0.2-0.1,0.4-0.2,0.6-0.3c0.4-0.2,0.8-0.4,1.1-0.5
		c-0.1,0.1-0.2,0.1-0.3,0.2C185.1,211.3,184.6,211.5,184.1,211.7z M198.4,208.4L198.4,208.4l0.1,0L198.4,208.4z M197.7,208.5
		L197.7,208.5L197.7,208.5C197.7,208.5,197.7,208.5,197.7,208.5C197.7,208.5,197.7,208.5,197.7,208.5L197.7,208.5z M197.7,208.5
		L197.7,208.5L197.7,208.5L197.7,208.5z M203,211.5c0.6,0,1.1-0.2,1.5-0.6c0.4,0.7,0.8,1.5,1.2,2.3
		C204.8,212.7,203.9,212.1,203,211.5C203,211.5,203,211.5,203,211.5z M195.1,203.9c0.1,0,0.1,0.1,0.2,0.1c0.9,0.3,1.7,0.7,2.5,1
		c-0.2-0.1-0.4-0.1-0.6-0.2c-0.8-0.3-1.5-0.6-2.3-0.9C195,203.9,195,203.9,195.1,203.9z M194.8,215.7c0.1,0,0.2,0.1,0.3,0.1
		c-0.4-0.1-0.8-0.1-1.1-0.2c-0.4,0-0.7-0.1-1.1-0.2c0,0,0-0.1,0-0.1c0-0.2,0-0.3-0.1-0.5C193.5,215.1,194.1,215.4,194.8,215.7z
		 M200.9,216.7c0-0.1,0.1-0.1,0.1-0.2c0.3,0.1,0.5,0.3,0.8,0.4c0.3,0.1,0.5,0.3,0.8,0.4c-0.6-0.2-1.3-0.3-1.9-0.5
		C200.8,216.9,200.8,216.8,200.9,216.7z M210.9,217.4c-2-5.9-4-11.4-10.6-15.1c1.4-0.8,2.7-1.8,3.8-3.1c2.4,7.1,3.3,9,8.8,16.6
		c0.3,1,0.6,1.9,0.9,2.7c0.3,0.9,0.6,1.7,1,2.5c-0.9-0.9-1.8-1.7-2.7-2.6C211.6,218.1,211.3,217.7,210.9,217.4z M197.8,182.5
		c3,1.3,5.3,4.2,5.9,7.1c0.4,2.2-0.4,4.8-2,7c-1.7,2.2-4.1,3.6-6.7,3.8c-4.1,0.3-8-2-9.6-5.8c-1.8-4-0.5-8.7,3.2-11.5
		C192.6,180.9,195.8,181.5,197.8,182.5z M210.6,177c-0.9,0.4-1.5,1.2-1.8,2.2c-0.3,1-0.1,2.1,0.6,3c0.1,0.2,0.3,0.3,0.4,0.4
		c-0.1,0.4-0.2,0.8-0.3,1.3c-0.4-1.3-0.7-2.7-1-4.1c-0.2-1.1-0.2-2.3-0.2-3.5c0.8,0.3,1.6,0.5,2.4,0.6
		C210.7,177,210.7,177,210.6,177z M209.5,196.5C209.5,196.5,209.5,196.5,209.5,196.5L209.5,196.5L209.5,196.5z M208.2,172.5
		c-0.1-0.1-0.3-0.2-0.4-0.2c-0.5-0.2-0.9-0.5-1.3-0.7c0.1,0.1,0.3,0.1,0.4,0.2c0.7,0.3,1.4,0.7,2,1
		C208.7,172.7,208.4,172.6,208.2,172.5z M209.7,199.8c0.1,0.5,0.2,0.9,0.3,1.2c0.2,0.7,0.4,1.4,0.6,2c0,0.7,0.2,1.4,0.7,2
		c0,0.9,0.1,1.7,0.1,2.5c-1.5-2.5-2.4-4.5-3.5-7.9C208.5,199.8,209.1,199.9,209.7,199.8z M180.8,203L180.8,203l0.1-0.1
		C180.9,202.9,180.9,202.9,180.8,203C180.9,203,180.9,203,180.8,203z M180.7,202.8C180.7,202.8,180.7,202.7,180.7,202.8
		c0.1,0,0.2,0,0.2,0l-0.1,0.1L180.7,202.8z M180.7,202.9L180.7,202.9C180.7,202.9,180.6,202.9,180.7,202.9L180.7,202.9z M185.9,222
		C185.9,222,185.9,222,185.9,222L185.9,222l-0.1,0l0,0L185.9,222z M185.6,221.9L185.6,221.9l-0.6-0.2L185.6,221.9z M182.1,220
		L182.1,220C182.1,220,182.1,220,182.1,220L182.1,220z M182,219.9L182,219.9L182,219.9L182,219.9l0.7-0.1L182,219.9z M181.9,220
		L181.9,220C181.9,220,181.8,220,181.9,220l-0.1-0.1c0,0,0,0,0,0L181.9,220c-0.1-0.1-0.1-0.2-0.1-0.2l0.2,0L181.9,220L181.9,220
		L181.9,220z M224.4,199l0.1-0.1C224.5,198.9,224.5,199,224.4,199L224.4,199z M224.4,199C224.4,199,224.4,199,224.4,199L224.4,199
		L224.4,199z M224.4,198.9l-0.1-0.1c0,0,0,0,0.1,0C224.4,198.7,224.4,198.8,224.4,198.9L224.4,198.9z M224.2,198.9
		C224.2,198.9,224.2,198.9,224.2,198.9c0-0.1,0-0.1,0-0.1l0.1,0.1L224.2,198.9C224.3,198.9,224.3,198.9,224.2,198.9z M224.3,198.9
		L224.3,198.9C224.3,198.9,224.3,198.9,224.3,198.9L224.3,198.9z M224.4,199L224.4,199C224.4,199,224.4,199,224.4,199L224.4,199z
		 M222.3,184.6C222.3,184.6,222.3,184.6,222.3,184.6L222.3,184.6L222.3,184.6z M222.3,184.5L222.3,184.5L222.3,184.5
		C222.3,184.6,222.3,184.6,222.3,184.5z M222.5,184.5L222.5,184.5L222.5,184.5L222.5,184.5z M222.6,184.6L222.6,184.6
		C222.6,184.6,222.6,184.6,222.6,184.6L222.6,184.6z M222.5,184.5L222.5,184.5L222.5,184.5L222.5,184.5l0.7-0.1L222.5,184.5z
		 M218.6,175.4L218.6,175.4l-0.2,0.1l0,0l-0.1,0l0,0l0,0l-0.1,0l0.1,0.1l0,0c0,0,0-0.1-0.1-0.1l-0.1,0c0,0,0,0,0,0l0,0
		c0,0,0-0.1,0-0.1l0.1,0c0,0,0.1,0,0.1,0l0,0L218.6,175.4z M218.4,175.7L218.4,175.7L218.4,175.7
		C218.4,175.7,218.4,175.7,218.4,175.7L218.4,175.7z M218.7,175.5L218.7,175.5l0.5-0.1L218.7,175.5z M200.5,175.4l0.2-0.1
		C200.6,175.3,200.6,175.4,200.5,175.4C200.5,175.4,200.5,175.4,200.5,175.4z M200.5,175.2l-0.1,0.1c0,0,0-0.1-0.1-0.1l-0.1,0
		c0,0,0,0,0,0c0,0,0-0.1,0-0.1l0.1,0C200.4,175.2,200.4,175.2,200.5,175.2l0.8-0.1L200.5,175.2z M197.9,177.4
		c0.6,0.7,1.4,1.1,2.3,1.2c0.1,0,0.2,0,0.3,0c0.8,0,1.6-0.3,2.3-0.9c0.7-0.7,1.1-1.7,1-2.7c0-0.4-0.1-0.8-0.2-1.1
		c1.2,0.8,2.3,1.4,2.7,1.6c-0.2,1.7-0.2,3.3-0.1,4.8c0.2,2.5,0.7,4.8,1.3,6.9c0.4,1.1,0.8,2.2,1.2,3.3c0,0,0,0,0,0
		c0,0.8-0.1,1.7,0,2.6c-0.2,0-0.5,0.1-0.7,0.2c0,0-0.1,0-0.1,0c-0.5,0.2-0.9,0.5-1.2,0.9c0.6-1.8,0.7-3.7,0.4-5.5
		c-0.8-3.9-4-7.8-7.9-9.6c-0.6-0.3-1.3-0.5-1.9-0.7c0.2-0.5,0.3-1,0.2-1.5c0-0.1,0-0.1,0-0.2C197.7,177.1,197.7,177.3,197.9,177.4z
		 M187.6,175.9L187.6,175.9l-0.6-0.1L187.6,175.9z M187.8,176L187.8,176l0.1,0C187.9,176,187.9,176,187.8,176L187.8,176L187.8,176z"
		/>
	<path class="stleaf" d="M213.9,167.2c-0.3,1-0.1,2.1,0.6,3c0.7,0.8,1.6,1.2,2.6,1.2c0.8,0,1.6-0.3,2.3-0.9c0.7-0.7,1.1-1.7,1-2.7
		c0-0.9-0.4-1.7-1.1-2.3c0,0-0.1,0-0.1-0.1c-1.1-0.7-2.5-0.9-3.5-0.4C214.8,165.4,214.1,166.2,213.9,167.2z"/>
	<path class="stleaf" d="M170,176.6c0-0.9-0.4-1.7-0.9-2.1c-1-0.9-2.4-1.2-3.7-0.7c-0.9,0.4-1.6,1.2-1.8,2.2c-0.3,1-0.1,2.1,0.6,3
		c0.7,0.8,1.6,1.2,2.6,1.2c0.8,0,1.6-0.3,2.3-0.9C169.6,178.6,170,177.6,170,176.6z M166.7,176.9l-0.1-0.1c0,0,0,0,0.1,0
		c0,0,0.1,0,0.1,0L166.7,176.9z M166.7,177C166.7,177,166.7,177,166.7,177C166.7,177,166.7,177,166.7,177L166.7,177L166.7,177z
		 M166.6,176.9L166.6,176.9C166.6,176.9,166.5,176.9,166.6,176.9L166.6,176.9z M166.8,176.9c0,0,0,0-0.1,0.1l0,0L166.8,176.9z"/>
	<path class="stleaf" d="M170.1,201.7c0.8,0,1.6-0.3,2.3-0.9c0.7-0.7,1.1-1.7,1-2.7c0-0.8-0.4-1.6-0.9-2.1c-0.9-1-2.4-1.3-3.8-0.7
		c-0.9,0.4-1.6,1.2-1.8,2.2c-0.3,1-0.1,2.1,0.6,3C168.2,201.3,169.2,201.7,170.1,201.7z M170.1,198.4
		C170.1,198.4,170.1,198.4,170.1,198.4c-0.1-0.1-0.1-0.1-0.1-0.1c0,0,0.1-0.1,0.1-0.1c0,0,0.1,0,0.2,0L170.1,198.4z M170.3,198.4
		C170.3,198.5,170.3,198.5,170.3,198.4C170.3,198.5,170.3,198.5,170.3,198.4L170.3,198.4z M170.2,198.5
		C170.2,198.5,170.2,198.5,170.2,198.5L170.2,198.5L170.2,198.5z"/>
	<path class="stleaf" d="M176.2,192.5c-0.8,0.4-1.4,1.2-1.6,2.1c-0.3,1-0.1,2.1,0.6,3c0.7,0.8,1.6,1.2,2.6,1.2c0.8,0,1.6-0.3,2.3-0.9
		c0.7-0.7,1.1-1.7,1-2.7c0-0.9-0.4-1.7-1.1-2.3C178.8,191.9,177.3,191.7,176.2,192.5z M177.7,195.4L177.7,195.4l-0.8-0.2
		L177.7,195.4z M177.9,195.5C177.9,195.5,177.9,195.5,177.9,195.5l-0.1,0l0,0L177.9,195.5z M177.6,195.4L177.6,195.4L177.6,195.4
		C177.7,195.5,177.7,195.5,177.6,195.4C177.6,195.5,177.6,195.5,177.6,195.4z"/>
	<path class="stleaf" d="M173.1,207.8c0.1,0,0.2,0,0.3,0c0.8,0,1.6-0.3,2.3-0.9c0.7-0.7,1.1-1.7,1-2.7c0-0.9-0.4-1.7-0.9-2.1
		c-1-1-2.5-1.3-3.8-0.7c-0.9,0.4-1.6,1.2-1.8,2.2c-0.3,1-0.1,2.1,0.6,3C171.5,207.3,172.3,207.7,173.1,207.8z M173.4,204.5
		L173.4,204.5C173.3,204.5,173.3,204.5,173.4,204.5L173.4,204.5z"/>
	<path class="stleaf" d="M193.4,223.4c-0.8,0.4-1.5,1.2-1.7,2.2c-0.3,1-0.1,2.1,0.6,3c0.7,0.8,1.6,1.2,2.6,1.2c0.8,0,1.6-0.3,2.3-0.9
		c0.7-0.7,1.1-1.7,1-2.7c0-0.9-0.4-1.7-0.9-2.1C196.1,222.8,194.6,222.6,193.4,223.4z M195,226.4L195,226.4
		C195,226.4,195,226.4,195,226.4C195,226.4,195,226.4,195,226.4z M194.8,226.4C194.8,226.4,194.8,226.4,194.8,226.4
		c-0.1,0-0.1-0.1-0.1-0.1c0,0,0.1-0.1,0.1-0.1c0,0,0.1,0,0.2,0L194.8,226.4z"/>
	<path class="stleaf" d="M157.8,185.2C157.8,185.2,157.8,185.2,157.8,185.2c-0.1,0-0.1,0.1-0.2,0.1c-0.9,0.4-1.6,1.2-1.8,2.2
		c-0.3,1-0.1,2.1,0.6,3c0.7,0.8,1.6,1.2,2.6,1.2c0.8,0,1.6-0.3,2.3-0.9c0.7-0.7,1.1-1.7,1-2.7c0-0.9-0.4-1.7-0.9-2.1
		C160.4,185,158.9,184.9,157.8,185.2z M159.2,188.4c0,0,0,0.1-0.1,0.1l0,0L159.2,188.4z M159.1,188.4l-0.1-0.1
		C159.1,188.2,159.1,188.3,159.1,188.4L159.1,188.4z"/>
</g>
</svg>
