<svg xmlns="http://www.w3.org/2000/svg" width="130.93mm" height="20.39mm" viewBox="0 0 371.15 57.79">
  <g>
    <path d="M404.77,56.65l.37-3.95,1.36-.19c1.86,7.74,3.69,15.49,5.62,23.21.33,1.34,1.38,2.51,1.64,3.84.49,2.51,1.14,5.16.69,7.57-.16.87-3.21,1.46-5,1.73-3.91.58-7.86.87-12.12,1.32-.31-1.44-.62-3.57-1.22-5.61-2.29-7.81-9.37-12.49-17.69-11.81a16.4,16.4,0,0,0-14.62,14.3c-.39,3-.35,6-4.35,2.32-.78-.71-2.56-.45-3.88-.45Q232,88.9,108.44,89c-2.37,0-4.73,1.19-5.8,1.47C99.58,85.37,97.43,80,93.71,76.24c-2.3-2.36-6.95-3.26-10.58-3.35-8.91-.22-14,5.67-16.45,18.14-6.27-3.51-13.07-1.4-19.59-2.24-4.33-.56-4.15-4.83-2.77-7.05,3.12-5,2.29-10.28,2.31-15.49,0-4.64,1.58-7.24,6.48-7.71,17.89-1.71,33.53-10,49.63-17a33.59,33.59,0,0,1,13-2.89c69.29-.18,138.57-.09,207.86-.18,7,0,13.43,1.36,18.73,5.93C353.2,53.84,365.89,57.2,380,56.71,388.19,56.42,396.4,56.65,404.77,56.65Zm-111.28-.17c-.4-3.12-1.07-5.77-1-8.4.12-4.32-1.85-5.12-5.81-5.11-45.24.13-90.47.07-135.71.08-2.1,0-4.19.2-6.38.31l-1.46,13.12Zm57.09.08C337.7,44.59,333.84,43,317.76,43H294.41c1.25,5.1,2.27,9.26,3.31,13.52ZM91.4,55.2c1.77.47,3.74,1.44,5.71,1.46q19.33.21,38.65,0c1.18,0,3.09-.93,3.38-1.83,1.15-3.59,1.8-7.35,2.79-11.75C123.8,43.54,105.46,39,91.4,55.2Zm10,5.63.16,1.19H113l0-1.19ZM401,61.18l4.83,7.21,1.37-1C406.75,64.65,407.49,61.11,401,61.18Z" transform="translate(-43.45 -38.49)" fill="#a17e13"/>
    <path d="M365.86,81.81a14.32,14.32,0,1,1,14.36,14.45A14.45,14.45,0,0,1,365.86,81.81Zm23.4-.27a9.14,9.14,0,0,0-9-8.94A9.48,9.48,0,0,0,371,81.93a9.36,9.36,0,0,0,9.41,9.17A9.08,9.08,0,0,0,389.26,81.54Z" transform="translate(-43.45 -38.49)" fill="#a17e13"/>
    <path d="M69.75,81.88a14.21,14.21,0,1,1,14.3,14.4A14.26,14.26,0,0,1,69.75,81.88Zm23.32.05a9.12,9.12,0,1,0-18.24-.34,9.12,9.12,0,1,0,18.24.34Z" transform="translate(-43.45 -38.49)" fill="#a17e13"/>
    <path d="M380.17,87.9c-2-2.75-4.22-4.59-3.94-5.86.38-1.71,2.72-3,4.22-4.45,1.29,1.48,3.5,2.9,3.62,4.47S382.09,85.19,380.17,87.9Z" transform="translate(-43.45 -38.49)" fill="#a17e13"/>
    <path d="M89.93,82c-2.79,2-4.47,4.06-5.9,3.91s-4.1-2.72-3.89-3.76a6.47,6.47,0,0,1,4.06-4.26C85.4,77.6,87.2,79.92,89.93,82Z" transform="translate(-43.45 -38.49)" fill="#a17e13"/>
  </g>
</svg>
