<svg xmlns="http://www.w3.org/2000/svg" width="89.5mm" height="89.5mm" viewBox="0 0 253.7 253.69">
  <g>
    <path d="M277.4,519.14a126.85,126.85,0,1,1,127-126.88A126.77,126.77,0,0,1,277.4,519.14Zm.13-17.18A109.65,109.65,0,1,0,167.86,392.37,109.63,109.63,0,0,0,277.53,502Z" transform="translate(-150.65 -265.45)" fill="#a17e01"/>
    <path d="M272.84,409c1.53.14,3,.38,4.54.37a44.09,44.09,0,0,0,4.39-.44,3.59,3.59,0,0,1,.15,1.55c0,4.09.06,8.18.09,12.28q.12,18.41.25,36.81a15.12,15.12,0,0,1-.1,2.13,4.56,4.56,0,0,1-8.9.48,7.43,7.43,0,0,1-.2-1.69c0-2.19,0-4.38-.05-6.57q-.15-21.62-.29-43.23A4,4,0,0,1,272.84,409Z" transform="translate(-150.65 -265.45)" fill="#a17e01"/>
    <path d="M291.74,404.13c1-1.21,2-2.25,2.77-3.42s1.41-2.46,2.14-3.77c.3.19.62.36.92.57l26,18.29a4.67,4.67,0,0,1,2.11,2.76,4.38,4.38,0,0,1-6.23,5,7.61,7.61,0,0,1-1.08-.69L292.6,404.78C292.33,404.59,292.08,404.38,291.74,404.13Z" transform="translate(-150.65 -265.45)" fill="#a17e01"/>
    <path d="M277.47,382.28a10,10,0,1,1-10,10.09A10,10,0,0,1,277.47,382.28Z" transform="translate(-150.65 -265.45)" fill="#a17e01"/>
    <path d="M274.24,295.44c0-1.47,0-2.95,0-4.42a5.24,5.24,0,0,1,.22-1.53,3.18,3.18,0,0,1,3.31-2.16,3.27,3.27,0,0,1,2.94,2.84,6,6,0,0,1,0,.85c0,2.94,0,5.89,0,8.83a5.4,5.4,0,0,1-.1,1.27,3.24,3.24,0,0,1-6.37-.56c-.06-.56,0-1.14,0-1.71Z" transform="translate(-150.65 -265.45)" fill="#a17e01"/>
    <path d="M281.08,488.85v4.27c0,.33,0,.66,0,1a3.22,3.22,0,0,1-6.35.43,9.48,9.48,0,0,1-.13-1.41q0-4.19,0-8.39a6.19,6.19,0,0,1,.16-1.55,3.14,3.14,0,0,1,3.44-2.34,3.18,3.18,0,0,1,2.87,2.88c0,.37,0,.76,0,1.14C281.09,486.19,281.08,487.52,281.08,488.85Z" transform="translate(-150.65 -265.45)" fill="#a17e01"/>
    <path d="M374.31,395.24h-4.55a3.53,3.53,0,0,1-1.66-.33,3.19,3.19,0,0,1-1.74-3.3,3.1,3.1,0,0,1,2.35-2.71,4.33,4.33,0,0,1,1.13-.15h9.1a4.68,4.68,0,0,1,1,.1,3.19,3.19,0,0,1,2.58,3.41,3.15,3.15,0,0,1-3.08,3c-1.7,0-3.41,0-5.12,0Z" transform="translate(-150.65 -265.45)" fill="#a17e01"/>
    <path d="M181,389.12h4.12a10.86,10.86,0,0,1,1.28.07,3.21,3.21,0,0,1,0,6.32,7.79,7.79,0,0,1-1.28.08c-2.8,0-5.59,0-8.39,0l-.85,0a3.22,3.22,0,0,1,0-6.43c.71,0,1.42,0,2.13,0Z" transform="translate(-150.65 -265.45)" fill="#a17e01"/>
    <path d="M325.48,310.67a1.76,1.76,0,0,1-1.51-2.28,3.56,3.56,0,0,1,.37-.76q1.1-1.92,2.21-3.83a3.87,3.87,0,0,1,.59-.79,1.74,1.74,0,0,1,2.82,1.83,3.69,3.69,0,0,1-.29.64c-.78,1.37-1.57,2.72-2.36,4.08a2.84,2.84,0,0,1-.41.57A1.71,1.71,0,0,1,325.48,310.67Z" transform="translate(-150.65 -265.45)" fill="#a17e01"/>
    <path d="M189.73,444.85a1.82,1.82,0,0,1-1.83-1.1,1.65,1.65,0,0,1,.34-1.85,2.9,2.9,0,0,1,.69-.5q2-1.15,3.95-2.28a3.73,3.73,0,0,1,.63-.32,1.75,1.75,0,0,1,2.11.73,1.71,1.71,0,0,1-.22,2.1,2.65,2.65,0,0,1-.56.44c-1.44.83-2.88,1.67-4.33,2.49A4.11,4.11,0,0,1,189.73,444.85Z" transform="translate(-150.65 -265.45)" fill="#a17e01"/>
    <path d="M365.29,444.87a7,7,0,0,1-.91-.37c-1.41-.79-2.8-1.61-4.2-2.42a1.86,1.86,0,0,1-1-1.17,1.63,1.63,0,0,1,.44-1.7,1.59,1.59,0,0,1,1.83-.41,3.68,3.68,0,0,1,.63.31c1.32.76,2.64,1.51,3.95,2.28a3.1,3.1,0,0,1,.78.61,1.6,1.6,0,0,1,.21,1.86A1.82,1.82,0,0,1,365.29,444.87Z" transform="translate(-150.65 -265.45)" fill="#a17e01"/>
    <path d="M328.27,482a1.7,1.7,0,0,1-1.52-.89c-.42-.7-.81-1.4-1.22-2.1l-1.21-2.09a4.25,4.25,0,0,1-.32-.64,1.75,1.75,0,0,1,.72-2.11,1.81,1.81,0,0,1,2.31.42,3,3,0,0,1,.31.48c.79,1.35,1.57,2.71,2.35,4.06a3.48,3.48,0,0,1,.24.52A1.72,1.72,0,0,1,328.27,482Z" transform="translate(-150.65 -265.45)" fill="#a17e01"/>
    <path d="M189.72,339.77a4.07,4.07,0,0,1,.77.26c1.49.84,3,1.68,4.44,2.57a1.74,1.74,0,0,1,.91,1.91,1.71,1.71,0,0,1-2.17,1.32,4,4,0,0,1-.9-.4l-3.7-2.14a3.86,3.86,0,0,1-.8-.57,1.64,1.64,0,0,1-.39-1.84A1.79,1.79,0,0,1,189.72,339.77Z" transform="translate(-150.65 -265.45)" fill="#a17e01"/>
    <path d="M231.11,308.73a1.76,1.76,0,0,1-1,1.78,1.61,1.61,0,0,1-1.85-.27,2.62,2.62,0,0,1-.52-.67q-1.2-2-2.35-4.07a3.32,3.32,0,0,1-.33-.78,1.71,1.71,0,0,1,.84-1.94,1.77,1.77,0,0,1,2.1.31,3,3,0,0,1,.41.58c.81,1.39,1.63,2.79,2.42,4.2A4.57,4.57,0,0,1,231.11,308.73Z" transform="translate(-150.65 -265.45)" fill="#a17e01"/>
    <path d="M365.22,339.77a1.83,1.83,0,0,1,1.9,1.11,1.66,1.66,0,0,1-.38,1.84,3.12,3.12,0,0,1-.69.5c-1.31.76-2.62,1.53-3.94,2.27a3.21,3.21,0,0,1-1.06.38,1.62,1.62,0,0,1-1.74-.95,1.77,1.77,0,0,1,.42-2.08,3.4,3.4,0,0,1,.59-.4c1.31-.76,2.62-1.53,3.94-2.27A9.33,9.33,0,0,1,365.22,339.77Z" transform="translate(-150.65 -265.45)" fill="#a17e01"/>
    <path d="M229.25,474a1.71,1.71,0,0,1,1.83,1.94,1.69,1.69,0,0,1-.2.67q-1.31,2.29-2.63,4.57A1.75,1.75,0,0,1,225,479.8a2.51,2.51,0,0,1,.28-.65q1.2-2.1,2.41-4.19A1.75,1.75,0,0,1,229.25,474Z" transform="translate(-150.65 -265.45)" fill="#a17e01"/>
  </g>
</svg>
