<!-- Generator: Adobe Illustrator 25.2.1, SVG Export Plug-In . SVG Version: 6.00 Build 0)  -->
<svg version="1.1" id="Layer_1" xmlns:serif="http://www.serif.com/"
	 xmlns="http://www.w3.org/2000/svg" xmlns:xlink="http://www.w3.org/1999/xlink" x="0px" y="0px" viewBox="0 0 595.3 321"
	 style="enable-background:new 0 0 595.3 321;" xml:space="preserve">
<style type="text/css">
	.top0{fill:#B68F00;}
	.top1{fill:#FFF9EB;}
	.top2{fill:#A17E01;}
</style>
<g transform="matrix(0.855083,0,0,0.633701,21.7376,73.7546)">
	<g>
		<path class="top0" d="M620.2,335.6c-5.5,0-11-2.6-15.5-7.9L322.6-10L40.5,327.6c-9.6,11.5-24.4,10.3-32.9-2.7s-7.7-32.9,2-44.4
			L307.2-75.6c8.8-10.6,22.1-10.6,30.9,0l297.6,356.1c9.6,11.5,10.5,31.4,2,44.4C633,332,626.6,335.5,620.2,335.6z"/>
	</g>
</g>
<g transform="matrix(0.642933,6.84109e-34,-6.84109e-34,0.642933,-121.724,87.7512)">
	<g transform="matrix(120,0,0,120,278.333,164.127)">
		<path class="top1" d="M1.8-0.1H2c0.2,0,0.2,0,0.3,0v-0.5c-0.1,0-0.2,0-0.3,0H1.1c-0.1,0-0.3,0-0.4,0v0.5c0.1,0,0.3,0,0.4,0h0.1v0.9
			c0,0.1,0,0.3,0,0.4h0.6c0-0.1,0-0.3,0-0.4L1.8-0.1z"/>
	</g>
	<path class="top1" d="M647.1,98.6c-60,0-96,36-96,108c0,60,36,108,96,108s108-36,108-108S707.1,98.6,647.1,98.6z M659.1,254.6
		c-36,0-36-12-36-48s0-60,36-60c24,0,36,24,36,60S683.1,254.6,659.1,254.6z"/>
	<g transform="matrix(120,0,0,120,476.933,164.127)">
		<path class="top1" d="M3,1.3C3,1.2,3,1.1,3,1V0.7h0.3c0.4,0,0.6-0.3,0.6-0.7c0-0.3-0.3-0.5-0.7-0.5H2.7c-0.1,0-0.2,0-0.3,0
			c0,0.1,0,0.2,0,0.3V1c0,0.1,0,0.2,0,0.3H3L3,1.3z M2.9,0.3V0h0.3c0.1,0,0.2,0,0.2,0.1C3.3,0.2,3.2,0.3,3.1,0.3H2.9z"/>
	</g>
	<g>
		<path class="top2" d="M655,140.8c-29,0-46.9,23.6-46.9,61.9c0,38.9,17.9,62.9,46.9,62.9c28.8,0,46.4-23.8,46.4-62.9
			C701.4,164.1,683.8,140.8,655,140.8z M655,250.2c-21.1,0-31.5-19.3-31.5-47.4c0-27.7,10.5-46.5,31.5-46.5c20.8,0,31,18.6,31,46.5
			C686,231,675.9,250.2,655,250.2z"/>
		<path class="top2" d="M926.4,109.1c-14.7-12.9-36.3-20.3-64.4-20.3h-52.1c-15,0-23.4-0.2-34.3-0.7c-4.5-0.2-8.9,1.6-12,5
			c-3.1,3.3-4.5,7.9-3.9,12.4c1.3,10.6,1.8,20.7,1.8,32.8v25.3c-5-18.4-13.6-34.1-25.3-46.5c-19.4-20.7-47.1-32.7-81.2-32.7
			c-34.1,0-61.9,12-81.3,32.9c-4.4,4.7-8.4,10-11.9,15.6v-30.4c0-4.4-1.9-8.6-5.1-11.5c-3.3-2.9-7.6-4.3-12-3.9
			c-10.5,1.1-19.6,1.6-35.5,1.6H405c-13.8,0-26.2-0.7-33.6-1.6c-4.4-0.5-8.8,0.8-12.1,3.8c-3.3,2.9-5.2,7.1-5.2,11.5v45.5
			c0,4.3,1.8,8.4,5,11.4c3.2,2.9,7.4,4.4,11.7,4c16.3-1.4,20.2-1.6,34.7-1.6h12.7v104.6c0,14.2-0.4,23.4-1.8,34
			c-0.6,4.4,0.8,8.8,3.7,12.2c2.9,3.3,7.1,5.2,11.6,5.2h52.6c4.4,0,8.7-1.9,11.6-5.2s4.3-7.8,3.7-12.2c-1.4-10.6-1.8-20.5-1.8-34
			V161.7h11.5c16.4,0,25.2,0.4,35.4,1.6c1.3,0.1,2.6,0.1,3.9-0.1c-3.4,12.1-5.2,25.4-5.2,39.8c0,36,11.2,65.4,30.2,86
			c19.4,21,47.2,33.2,81.2,33.2c53.8,0,93.4-30.8,106.7-80.8v25.7c0,13.2-0.4,23.3-1.8,33.2c-0.6,4.4,0.7,8.9,3.7,12.2
			c2.9,3.4,7.2,5.3,11.6,5.3l51-0.1c4.4,0,8.6-1.9,11.5-5.2s4.3-7.7,3.8-12c-1.1-9.7-1.8-20.8-1.8-34.2v-15h22.2
			c27.7,0,49.4-8.1,64.5-22c15.5-14.3,24.3-34.9,24.3-61C950.5,142.4,941.8,122.7,926.4,109.1z M546.4,148
			c-10.7-1.2-20-1.7-37.1-1.7h-26.9v120c0,14.3,0.5,24.8,1.9,36h-52.6c1.4-11.2,1.9-21,1.9-36v-120h-28.1c-15,0-19.1,0.3-36,1.7
			v-45.5c7.9,1,21,1.7,35.5,1.7h104.3c16.6,0,26.1-0.5,37.1-1.7L546.4,148L546.4,148z M654.8,306.8c-58.4,0-96-40.7-96-103.8
			c0-62.9,37.6-103.1,96.2-103.1c58.6,0,96,40,96,102.4C751,265.1,712.7,306.8,654.8,306.8z M861.7,235.8h-37.6v30.5
			c0,14.1,0.7,25.8,1.9,36l-51.2-0.1c1.4-10.4,1.9-21.2,1.9-35.2V138.2c0-12.9-0.5-23.6-1.9-34.8c11.2,0.5,19.8,0.7,35,0.7h52.1
			c47.1,0,73.1,22.7,73.1,64.1C935,210.6,907.9,235.8,861.7,235.8z"/>
		<path class="top2" d="M859.6,144.7h-35.5v50.7h35.5c16.6,0,26.4-9.3,26.4-25.7S876.7,144.7,859.6,144.7z M868.2,177.5
			c-2,1.9-5.1,2.4-8.7,2.4h-20V160h20c3.9,0,7.1,0.3,9.1,2.2c1.7,1.6,1.9,4.2,1.9,7.4C870.5,172.9,870.1,175.7,868.2,177.5z"/>
	</g>
</g>
</svg>
